STARTFONT 2.1
FONT -FontForge-Good Times Rg-Book-R-Normal--44-420-75-75-P-327-ISO10646-1
SIZE 42 75 75
FONTBOUNDINGBOX 87 52 -12 -9
COMMENT "Generated by fontforge, http://fontforge.sourceforge.net"
COMMENT "(c) 1998-2012 Typodermic Fonts Inc. See attached license agreement. If agreement is missing visit typodermicfonts.com for more info. Languages by Chikako Larabie"
STARTPROPERTIES 39
FOUNDRY "FontForge"
FAMILY_NAME "Good Times Rg"
WEIGHT_NAME "Book"
SLANT "R"
SETWIDTH_NAME "Normal"
ADD_STYLE_NAME ""
PIXEL_SIZE 44
POINT_SIZE 420
RESOLUTION_X 75
RESOLUTION_Y 75
SPACING "P"
AVERAGE_WIDTH 327
CHARSET_REGISTRY "ISO10646"
CHARSET_ENCODING "1"
FONTNAME_REGISTRY ""
CHARSET_COLLECTIONS "ISO8859-2 ISO8859-9 ISO8859-4 ISO10646-1"
FONT_NAME "GoodTimesRg-Regular"
FACE_NAME "GoodTimesRg-Regular"
COPYRIGHT "(c) 1998-2012 Typodermic Fonts Inc. See attached license agreement. If agreement is missing visit typodermicfonts.com for more info. Languages by Chikako Larabie"
FONT_VERSION "4.001"
FONT_ASCENT 35
FONT_DESCENT 9
UNDERLINE_POSITION -6
UNDERLINE_THICKNESS 1
X_HEIGHT 31
CAP_HEIGHT 31
RAW_ASCENT 799
RAW_DESCENT 201
NORM_SPACE 13
RELATIVE_WEIGHT 40
RELATIVE_SETWIDTH 50
SUPERSCRIPT_X 0
SUPERSCRIPT_Y 13
SUPERSCRIPT_SIZE 13
SUBSCRIPT_X 0
SUBSCRIPT_Y 0
SUBSCRIPT_SIZE 13
AVG_LOWERCASE_WIDTH 375
AVG_UPPERCASE_WIDTH 374
ENDPROPERTIES
CHARS 372
STARTCHAR space
ENCODING 32
SWIDTH 294 0
DWIDTH 13 0
BBX 1 1 0 0
BITMAP
00
ENDCHAR
STARTCHAR exclam
ENCODING 33
SWIDTH 298 0
DWIDTH 13 0
BBX 6 32 4 0
BITMAP
F8
F8
F8
F8
F8
F8
F8
F8
F8
F8
F8
F8
F8
F8
F8
F8
F8
F8
F8
F8
F8
F8
00
00
00
00
20
F8
FC
FC
F8
70
ENDCHAR
STARTCHAR quotedbl
ENCODING 34
SWIDTH 452 0
DWIDTH 20 0
BBX 14 12 3 20
BITMAP
FCFC
FCFC
F8FC
F87C
F87C
F878
7878
7878
7878
7878
7878
7878
ENDCHAR
STARTCHAR numbersign
ENCODING 35
SWIDTH 697 0
DWIDTH 31 0
BBX 27 32 2 0
BITMAP
001E0780
003C0780
003C0780
003C0F00
003C0F00
00780F00
00781E00
00781E00
1FFFFFE0
1FFFFFE0
1FFFFFE0
1FFFFFE0
01E03C00
01E07800
03C07800
03C07800
03C0F000
03C0F000
0780F000
FFFFFF00
FFFFFF00
FFFFFF00
FFFFFF00
0F03C000
1E03C000
1E03C000
1E078000
1E078000
3C078000
3C078000
3C0F0000
780F0000
ENDCHAR
STARTCHAR dollar
ENCODING 36
SWIDTH 744 0
DWIDTH 33 0
BBX 27 32 3 0
BITMAP
000E0000
000E0000
000E0000
0FFFFFC0
3FFFFFC0
7FFFFFC0
FFFFFFC0
FC0E0000
F80E0000
F00E0000
F00E0000
F00E0000
F80E0000
FC0E0000
7FFFFE00
7FFFFF80
3FFFFFC0
0FFFFFC0
000E03E0
000E01E0
000E01E0
000E01E0
000E01E0
000E03E0
FFFFFFE0
FFFFFFC0
FFFFFF80
FFFFFF00
FFFFFE00
000E0000
000E0000
000E0000
ENDCHAR
STARTCHAR percent
ENCODING 37
SWIDTH 965 0
DWIDTH 42 0
BBX 39 37 2 -3
BITMAP
00000001E0
00000003C0
07E0000780
1FF8000F00
3FFC000E00
781E001E00
700F003C00
E007007800
E007007000
E00300F000
E00301E000
E00703C000
E007078000
700F070000
781E0F0000
3FFC1E0000
1FF83C0000
07E0780000
0000780000
0000F01F80
0001E07FE0
0003C0FFF0
000381E078
000781C01C
000F03801C
001E03800C
003C03800E
003C03800E
007803800C
00F003801C
01E001C01C
01C001E078
03C000FFF0
0780007FE0
0F00001F80
1E00000000
3C00000000
ENDCHAR
STARTCHAR ampersand
ENCODING 38
SWIDTH 759 0
DWIDTH 33 0
BBX 30 32 2 0
BITMAP
01FF8000
0FFF8000
1FFF8000
3FFF8000
3FFF8000
7FFF8000
7F000000
7E000000
7C000000
7C000000
7E000000
7E000000
3F000000
1FFFFFF0
0FFFFFF0
0FFFFFF0
3FFFFFF0
3FFFFFF0
7F001F00
7E001F00
FC001F00
FC001F00
FC001F00
FC001F00
FC001F00
7F001F00
7FFFFFFC
7FFFFFFC
3FFFFFFC
1FFFFFFC
0FFFFFFC
01FFFFFC
ENDCHAR
STARTCHAR quotesingle
ENCODING 39
SWIDTH 255 0
DWIDTH 11 0
BBX 5 12 3 20
BITMAP
F8
F8
F8
F8
F8
F8
F8
F8
78
78
78
70
ENDCHAR
STARTCHAR parenleft
ENCODING 40
SWIDTH 356 0
DWIDTH 16 0
BBX 9 40 4 -4
BITMAP
0780
0F00
0F00
1E00
1E00
1E00
3C00
3C00
3C00
7800
7800
7800
7800
7000
F000
F000
F000
F000
F000
F000
F000
F000
F000
F000
F000
F000
7000
7000
7800
7800
7800
3C00
3C00
3C00
1E00
1E00
1E00
0F00
0F00
0780
ENDCHAR
STARTCHAR parenright
ENCODING 41
SWIDTH 355 0
DWIDTH 16 0
BBX 9 40 3 -4
BITMAP
F000
F000
7800
7800
3C00
3C00
3C00
1E00
1E00
1E00
0E00
0F00
0F00
0F00
0F00
0700
0700
0700
0700
0780
0780
0700
0700
0700
0700
0F00
0F00
0F00
0F00
0E00
1E00
1E00
1E00
3C00
3C00
3C00
7800
7800
F000
F000
ENDCHAR
STARTCHAR asterisk
ENCODING 42
SWIDTH 469 0
DWIDTH 21 0
BBX 15 14 3 18
BITMAP
0380
0380
0380
0380
C38C
FFFE
FFFE
1FE0
07C0
0FC0
1EE0
1C70
3878
1830
ENDCHAR
STARTCHAR plus
ENCODING 43
SWIDTH 690 0
DWIDTH 30 0
BBX 25 25 3 4
BITMAP
003C0000
003C0000
003C0000
003C0000
003C0000
003C0000
003C0000
003C0000
003C0000
003C0000
003C0000
FFFFFF80
FFFFFF80
FFFFFF80
FFFFFF80
003C0000
003C0000
003C0000
003C0000
003C0000
003C0000
003C0000
003C0000
003C0000
003C0000
ENDCHAR
STARTCHAR comma
ENCODING 44
SWIDTH 259 0
DWIDTH 11 0
BBX 6 11 3 -5
BITMAP
FC
F8
F8
F8
F8
F8
F0
F0
F0
F0
F0
ENDCHAR
STARTCHAR hyphen
ENCODING 45
SWIDTH 296 0
DWIDTH 13 0
BBX 11 4 1 14
BITMAP
FFE0
FFE0
FFE0
FFE0
ENDCHAR
STARTCHAR period
ENCODING 46
SWIDTH 262 0
DWIDTH 12 0
BBX 6 6 3 0
BITMAP
30
F8
FC
FC
F8
78
ENDCHAR
STARTCHAR slash
ENCODING 47
SWIDTH 444 0
DWIDTH 20 0
BBX 19 32 0 0
BITMAP
0001E0
0001C0
0003C0
000380
000780
000780
000F00
000F00
001E00
001E00
003C00
003C00
003800
007800
007000
00F000
00E000
01E000
01E000
03C000
03C000
078000
078000
0F0000
0F0000
1E0000
1E0000
3C0000
3C0000
380000
780000
F80000
ENDCHAR
STARTCHAR zero
ENCODING 48
SWIDTH 838 0
DWIDTH 37 0
BBX 33 32 2 0
BITMAP
000FF80000
007FFF0000
01FFFFC000
03FFFFE000
07FFFFF000
0FFFFFF800
1FF007FC00
3FC001FE00
3F0000FE00
7E00007F00
7E00003F00
FC00001F00
FC00001F80
FC00001F80
FC00001F80
F800001F80
F800001F80
FC00001F80
FC00001F80
FC00001F80
7C00003F00
7E00003F00
7F00007F00
3F0000FE00
3FC001FC00
1FE007FC00
0FFFFFF800
07FFFFF000
03FFFFE000
01FFFF8000
007FFE0000
000FF80000
ENDCHAR
STARTCHAR one
ENCODING 49
SWIDTH 385 0
DWIDTH 17 0
BBX 13 32 1 0
BITMAP
FE00
FF80
FFC0
FFE0
FFF0
FFF0
03F8
01F8
01F8
00F8
00F8
00F8
00F8
00F8
00F8
00F8
00F8
00F8
00F8
00F8
00F8
00F8
00F8
00F8
00F8
00F8
00F8
00F8
00F8
00F8
00F8
00F8
ENDCHAR
STARTCHAR two
ENCODING 50
SWIDTH 825 0
DWIDTH 36 0
BBX 31 32 3 0
BITMAP
FFFFFF80
FFFFFFE0
FFFFFFF0
FFFFFFF8
FFFFFFFC
FFFFFFFC
000000FE
0000007E
0000007E
0000007E
0000007E
0000007E
000001FC
03FFFFFC
1FFFFFF8
3FFFFFF0
7FFFFFE0
7FFFFF80
FE000000
FC000000
F8000000
F8000000
F8000000
F8000000
F8000000
F8000000
FFFFFFFC
FFFFFFFC
FFFFFFFC
FFFFFFFC
FFFFFFFC
FFFFFFFC
ENDCHAR
STARTCHAR three
ENCODING 51
SWIDTH 827 0
DWIDTH 36 0
BBX 32 32 2 0
BITMAP
FFFFFFC0
FFFFFFF0
FFFFFFF8
FFFFFFFC
FFFFFFFE
FFFFFFFE
0000007E
0000003F
0000003F
0000003F
0000003E
0000007E
000000FC
00FFFFFC
00FFFFF0
00FFFFF8
00FFFFFC
00FFFFFE
000000FE
0000003F
0000003F
0000001F
0000001F
0000003F
0000003F
0000007F
FFFFFFFE
FFFFFFFE
FFFFFFFC
FFFFFFF8
FFFFFFF0
FFFFFF80
ENDCHAR
STARTCHAR four
ENCODING 52
SWIDTH 845 0
DWIDTH 37 0
BBX 34 32 2 0
BITMAP
FC0000F800
FC0000F800
FC0000F800
FC0000F800
FC0000F800
FC0000F800
FC0000F800
FC0000F800
FC0000F800
FC0000F800
FC0000F800
FC0000F800
FC0000F800
FC0000F800
FC0000F800
FC0000F800
FE0000F800
7F0000F800
7FFFFFFFC0
7FFFFFFFC0
3FFFFFFFC0
1FFFFFFFC0
07FFFFFFC0
00FFFFFFC0
000000F800
000000F800
000000F800
000000F800
000000F800
000000F800
000000F800
000000F800
ENDCHAR
STARTCHAR five
ENCODING 53
SWIDTH 885 0
DWIDTH 39 0
BBX 34 32 3 0
BITMAP
FFFFFFFF00
FFFFFFFF00
FFFFFFFF00
FFFFFFFF00
FFFFFFFF00
FFFFFFFF00
FC00000000
FC00000000
FC00000000
FC00000000
FC00000000
FC00000000
FC00000000
FFFFFFF000
FFFFFFFC00
FFFFFFFE00
FFFFFFFF00
FFFFFFFF80
0000003F80
0000000F80
0000000FC0
0000000FC0
0000000FC0
0000000FC0
0000000F80
0000001F80
FFFFFFFF80
FFFFFFFF00
FFFFFFFF00
FFFFFFFE00
FFFFFFFC00
FFFFFFE000
ENDCHAR
STARTCHAR six
ENCODING 54
SWIDTH 872 0
DWIDTH 38 0
BBX 34 32 2 0
BITMAP
003FFFFF80
01FFFFFF80
07FFFFFF80
0FFFFFFF80
1FFFFFFF80
3FFFFFFF80
3FC0000000
7F00000000
7E00000000
7E00000000
FC00000000
FC00000000
FC00000000
FFFFFFF000
FFFFFFFC00
FFFFFFFF00
FFFFFFFF80
FFFFFFFF80
FC00001FC0
FC00000FC0
FC00000FC0
FC000007C0
7E000007C0
7E00000FC0
7F00000FC0
3FC0001FC0
1FFFFFFF80
1FFFFFFF80
0FFFFFFF00
07FFFFFE00
01FFFFFC00
003FFFF000
ENDCHAR
STARTCHAR seven
ENCODING 55
SWIDTH 756 0
DWIDTH 33 0
BBX 30 32 2 0
BITMAP
FFFFFFF8
FFFFFFFC
FFFFFFFC
FFFFFFFC
FFFFFFFC
FFFFFFF8
000007F0
00000FE0
00000FE0
00001FC0
00003F80
00007F00
0000FE00
0001FE00
0001FC00
0003F800
0007F000
000FE000
001FE000
001FC000
003F8000
007F0000
00FE0000
01FC0000
03FC0000
03F80000
07F00000
0FE00000
1FC00000
3FC00000
7F800000
FF000000
ENDCHAR
STARTCHAR eight
ENCODING 56
SWIDTH 898 0
DWIDTH 40 0
BBX 35 32 2 0
BITMAP
01FFFFF800
07FFFFFE00
1FFFFFFF00
3FFFFFFF80
3FFFFFFFC0
7FFFFFFFC0
7F00000FE0
7E000007E0
7E000007E0
7C000007E0
7E000007C0
7E00000FC0
3F00001FC0
1FFFFFFF80
0FFFFFFE00
0FFFFFFF00
3FFFFFFF80
3FFFFFFFC0
7F00001FE0
7E000007E0
FC000007E0
FC000003E0
FC000003E0
FC000007E0
FE000007E0
7F00000FE0
7FFFFFFFC0
3FFFFFFFC0
3FFFFFFF80
1FFFFFFF00
07FFFFFE00
01FFFFF800
ENDCHAR
STARTCHAR nine
ENCODING 57
SWIDTH 861 0
DWIDTH 38 0
BBX 34 32 2 0
BITMAP
03FFFF0000
0FFFFFE000
1FFFFFF000
3FFFFFFC00
7FFFFFFE00
7FFFFFFE00
FE0000FF00
FC00007F00
FC00003F80
FC00001F80
FC00001F80
FC00000FC0
FC00000FC0
FC00000FC0
FF00000FC0
7FFFFFFFC0
7FFFFFFFC0
3FFFFFFFC0
1FFFFFFFC0
07FFFFFFC0
0000000FC0
0000000FC0
0000001F80
0000001F80
0000003F80
000000FF00
1FFFFFFF00
1FFFFFFE00
1FFFFFFC00
1FFFFFF800
1FFFFFE000
1FFFFF0000
ENDCHAR
STARTCHAR colon
ENCODING 58
SWIDTH 262 0
DWIDTH 12 0
BBX 6 20 3 0
BITMAP
70
F8
FC
FC
F8
20
00
00
00
00
00
00
00
00
30
F8
FC
FC
F8
78
ENDCHAR
STARTCHAR semicolon
ENCODING 59
SWIDTH 262 0
DWIDTH 12 0
BBX 6 25 3 -5
BITMAP
78
F8
FC
FC
F8
20
00
00
00
00
00
00
00
00
FC
F8
F8
F8
F8
F8
F0
F0
F0
F0
F0
ENDCHAR
STARTCHAR less
ENCODING 60
SWIDTH 690 0
DWIDTH 30 0
BBX 25 24 3 4
BITMAP
00000180
00000780
00003F80
0000FF80
0003FE00
001FF000
007FC000
03FE0000
0FF80000
3FC00000
FF000000
F8000000
FE000000
7F800000
1FF00000
07FC0000
00FF8000
003FE000
000FFC00
0001FF00
00007F80
00000F80
00000380
00000080
ENDCHAR
STARTCHAR equal
ENCODING 61
SWIDTH 690 0
DWIDTH 30 0
BBX 25 16 3 8
BITMAP
FFFFFF80
FFFFFF80
FFFFFF80
FFFFFF80
00000000
00000000
00000000
00000000
00000000
00000000
00000000
00000000
FFFFFF80
FFFFFF80
FFFFFF80
FFFFFF80
ENDCHAR
STARTCHAR greater
ENCODING 62
SWIDTH 690 0
DWIDTH 30 0
BBX 25 24 3 4
BITMAP
80000000
F0000000
FC000000
FF000000
7FE00000
0FF80000
03FF0000
007FC000
000FF000
0003FE00
00007F00
00001F80
00003F00
0001FF00
0007F800
003FE000
00FF8000
07FC0000
1FF00000
FFC00000
FE000000
F8000000
C0000000
80000000
ENDCHAR
STARTCHAR question
ENCODING 63
SWIDTH 776 0
DWIDTH 34 0
BBX 31 32 2 0
BITMAP
FFFFFF80
FFFFFFE0
FFFFFFF0
FFFFFFF8
FFFFFFFC
FFFFFFFC
000000FE
0000007E
0000007E
0000007E
0000007E
000000FE
000001FC
01FFFFFC
07FFFFF8
0FFFFFF0
0FFFFFE0
1FFFFF80
1F800000
1F000000
1F000000
1F000000
00000000
00000000
00000000
00000000
04000000
1F000000
1F800000
1F800000
1F000000
0E000000
ENDCHAR
STARTCHAR at
ENCODING 64
SWIDTH 833 0
DWIDTH 37 0
BBX 32 32 2 0
BITMAP
000FFFFF
007FFFFF
01FFFFFF
03FFFFFF
07F0000F
0FC0000F
1F00000F
3E00000F
3C00000F
7C07FF0F
781FFF0F
F83FFF0F
F03C0F0F
F0780F0F
F0780F0F
F0780F0F
F0780F0F
F0780F0F
F0780F0F
F07C0F0F
F83FFFFF
783FFFFF
7C1FFFFF
7C07FFFF
3E000000
1F000000
1FC00000
0FF00000
07FFFFFF
01FFFFFF
007FFFFF
000FFFFF
ENDCHAR
STARTCHAR A
ENCODING 65
SWIDTH 989 0
DWIDTH 44 0
BBX 42 32 1 0
BITMAP
00001C000000
00003E000000
00003F000000
00007F000000
0000FF800000
0000FFC00000
0001FFC00000
0001FFE00000
0003F7F00000
0007E3F00000
0007E3F80000
000FC1F80000
001FC0FC0000
001F80FE0000
003F007E0000
003F007F0000
007E003F0000
00FE001F8000
00FC001FC000
01F83FFFC000
01F87FFFE000
03F0FFFFE000
07F0FFFFF000
07E1FFFFF800
0FC00001F800
0FC00001FC00
1F800000FE00
3F800000FE00
3F0000007F00
7F0000003F00
FE0000003F80
FC0000001FC0
ENDCHAR
STARTCHAR B
ENCODING 66
SWIDTH 891 0
DWIDTH 39 0
BBX 34 32 3 0
BITMAP
FFFFFFE000
FFFFFFFC00
FFFFFFFE00
FFFFFFFF00
FFFFFFFF80
FFFFFFFF80
F800003F80
F800001F80
F800000FC0
F800000F80
F800000F80
F800001F80
F800003F00
F87FFFFE00
F87FFFFC00
F87FFFFE00
F87FFFFF00
F87FFFFF80
F800003F80
F800000FC0
F800000FC0
F800000FC0
F800000FC0
F800000FC0
F800000FC0
F800003FC0
FFFFFFFF80
FFFFFFFF80
FFFFFFFF00
FFFFFFFE00
FFFFFFFC00
FFFFFFF000
ENDCHAR
STARTCHAR C
ENCODING 67
SWIDTH 829 0
DWIDTH 36 0
BBX 33 32 2 0
BITMAP
001FFFFF80
00FFFFFF80
03FFFFFF80
07FFFFFF80
0FFFFFFF80
1FFFFFFF80
3FE0000000
3F80000000
7F00000000
7E00000000
7E00000000
FC00000000
FC00000000
FC00000000
FC00000000
F800000000
F800000000
FC00000000
FC00000000
FC00000000
FC00000000
7E00000000
7E00000000
3F00000000
3F80000000
1FE0000000
0FFFFFFF80
0FFFFFFF80
03FFFFFF80
01FFFFFF80
007FFFFF80
001FFFFF80
ENDCHAR
STARTCHAR D
ENCODING 68
SWIDTH 879 0
DWIDTH 39 0
BBX 34 32 3 0
BITMAP
FFFFFE0000
FFFFFF8000
FFFFFFE000
FFFFFFF800
FFFFFFFC00
FFFFFFFC00
F80001FE00
F80000FF00
F800007F00
F800003F80
F800001F80
F800001F80
F800000FC0
F800000FC0
F800000FC0
F800000FC0
F800000FC0
F800000FC0
F800000FC0
F800000F80
F800001F80
F800001F80
F800003F80
F800007F00
F80000FF00
F80001FE00
FFFFFFFC00
FFFFFFF800
FFFFFFF000
FFFFFFE000
FFFFFF8000
FFFFFC0000
ENDCHAR
STARTCHAR E
ENCODING 69
SWIDTH 759 0
DWIDTH 33 0
BBX 28 32 3 0
BITMAP
FFFFFFF0
FFFFFFF0
FFFFFFF0
FFFFFFF0
FFFFFFF0
FFFFFFF0
F8000000
F8000000
F8000000
F8000000
F8000000
F8000000
F8000000
F87FFFE0
F87FFFE0
F87FFFE0
F87FFFE0
F87FFFE0
F8000000
F8000000
F8000000
F8000000
F8000000
F8000000
F8000000
F8000000
FFFFFFF0
FFFFFFF0
FFFFFFF0
FFFFFFF0
FFFFFFF0
FFFFFFF0
ENDCHAR
STARTCHAR F
ENCODING 70
SWIDTH 705 0
DWIDTH 31 0
BBX 27 32 3 0
BITMAP
FFFFFFE0
FFFFFFE0
FFFFFFE0
FFFFFFE0
FFFFFFE0
FFFFFFE0
F8000000
F8000000
F8000000
F8000000
F8000000
F8000000
F8000000
F8000000
F87FFFC0
F87FFFC0
F87FFFC0
F87FFFC0
F87FFFC0
F8000000
F8000000
F8000000
F8000000
F8000000
F8000000
F8000000
F8000000
F8000000
F8000000
F8000000
F8000000
F8000000
ENDCHAR
STARTCHAR G
ENCODING 71
SWIDTH 888 0
DWIDTH 39 0
BBX 35 32 2 0
BITMAP
001FFFFF80
00FFFFFF80
03FFFFFF80
07FFFFFF80
0FFFFFFF80
1FFFFFFF80
3FE0000000
3F80000000
7F00000000
7E00000000
7E00000000
FC00000000
FC00000000
FC01FFFFE0
FC01FFFFE0
F801FFFFE0
F801FFFFE0
FC01FFFFE0
FC000007E0
FC000007E0
FC000007E0
7E000007E0
7E000007E0
3F000007E0
3F800007E0
1FE00007E0
0FFFFFFFE0
0FFFFFFFE0
03FFFFFFE0
01FFFFFFE0
007FFFFFE0
001FFFFFE0
ENDCHAR
STARTCHAR H
ENCODING 72
SWIDTH 838 0
DWIDTH 37 0
BBX 31 32 3 0
BITMAP
F800003E
F800003E
F800003E
F800003E
F800003E
F800003E
F800003E
F800003E
F800003E
F800003E
F800003E
F800003E
F800003E
F87FFFFE
F87FFFFE
F87FFFFE
F87FFFFE
F87FFFFE
F87FFFFE
F800003E
F800003E
F800003E
F800003E
F800003E
F800003E
F800003E
F800003E
F800003E
F800003E
F800003E
F800003E
F800003E
ENDCHAR
STARTCHAR I
ENCODING 73
SWIDTH 267 0
DWIDTH 12 0
BBX 6 32 3 0
BITMAP
FC
FC
FC
FC
FC
FC
FC
FC
FC
FC
FC
FC
FC
FC
FC
FC
FC
FC
FC
FC
FC
FC
FC
FC
FC
FC
FC
FC
FC
FC
FC
FC
ENDCHAR
STARTCHAR J
ENCODING 74
SWIDTH 708 0
DWIDTH 31 0
BBX 28 32 1 0
BITMAP
000003F0
000003F0
000003F0
000003F0
000003F0
000003F0
000003F0
000003F0
000003F0
000003F0
000003F0
000003F0
000003F0
000003F0
000003F0
000003F0
000003F0
000003F0
000003F0
000003F0
000003F0
000003F0
000007E0
000007E0
00000FE0
00003FC0
FFFFFFC0
FFFFFF80
FFFFFF00
FFFFFE00
FFFFF800
FFFFC000
ENDCHAR
STARTCHAR K
ENCODING 75
SWIDTH 875 0
DWIDTH 39 0
BBX 35 32 3 0
BITMAP
F800007FC0
F80001FF00
F80003FE00
F80007F800
F8000FF000
F8003FE000
F8007F8000
F800FF0000
F803FE0000
F807F80000
F80FF00000
F83FE00000
F87F800000
F8FF000000
F9FE000000
F9F8000000
F9FC000000
F8FF000000
F87F800000
F83FC00000
F81FF00000
F807F80000
F803FC0000
F801FE0000
F8007F8000
F8003FC000
F8001FE000
F8000FF800
F80003FC00
F80001FE00
F80000FF80
F800007FE0
ENDCHAR
STARTCHAR L
ENCODING 76
SWIDTH 707 0
DWIDTH 31 0
BBX 27 32 3 0
BITMAP
F8000000
F8000000
F8000000
F8000000
F8000000
F8000000
F8000000
F8000000
F8000000
F8000000
F8000000
F8000000
F8000000
F8000000
F8000000
F8000000
F8000000
F8000000
F8000000
F8000000
F8000000
F8000000
F8000000
F8000000
F8000000
F8000000
FFFFFFE0
FFFFFFE0
FFFFFFE0
FFFFFFE0
FFFFFFE0
FFFFFFE0
ENDCHAR
STARTCHAR M
ENCODING 77
SWIDTH 1115 0
DWIDTH 49 0
BBX 47 32 1 0
BITMAP
007800001C00
007C00003E00
00FC00007E00
00FE00007E00
00FE0000FF00
01FE0000FF00
01FF0000FF00
01FF0001FF00
01FF8001FF80
03FF8003FF80
03FFC003EF80
03EFC007EFC0
07E7E007CFC0
07E7E00FCFC0
07C3E00F87C0
07C3F00F87E0
0FC1F01F07E0
0FC1F81F03E0
0F80F83F03E0
0F80FC3E03F0
1F80FC7E03F0
1F007E7C01F0
1F007EFC01F8
3F003EF801F8
3F003FF800F8
3E001FF000F8
3E001FF000FC
7E000FF000FC
7E000FE0007C
7C000FE0007C
FC0007C0007E
FC000380007E
ENDCHAR
STARTCHAR N
ENCODING 78
SWIDTH 873 0
DWIDTH 38 0
BBX 33 32 3 0
BITMAP
7000001F80
F800001F80
FC00001F80
FE00001F80
FF00001F80
FF80001F80
FFC0001F80
FFE0001F80
FFF0001F80
FBF8001F80
F9FC001F80
F8FE001F80
F87F001F80
F83F801F80
F81FE01F80
F80FF01F80
F807F81F80
F803FC1F80
F801FE1F80
F800FF1F80
F8007F9F80
F8003FDF80
F8001FFF80
F8000FFF80
F80007FF80
F80003FF80
F80001FF80
F80000FF80
F800007F80
F800003F80
F800001F00
F800000F00
ENDCHAR
STARTCHAR O
ENCODING 79
SWIDTH 968 0
DWIDTH 43 0
BBX 39 32 2 0
BITMAP
001FFFE000
00FFFFFC00
03FFFFFF00
07FFFFFFC0
0FFFFFFFE0
1FFFFFFFE0
3FE0001FF0
3F800007F8
7F000003F8
7E000001FC
7E000000FC
FC000000FC
FC0000007E
FC0000007E
FC0000007E
F80000007E
F80000007E
FC0000007E
FC0000007E
FC0000007C
FC000000FC
7E000000FC
7E000001FC
3F000003F8
3F800007F8
1FE0001FF0
0FFFFFFFE0
0FFFFFFFC0
03FFFFFF80
01FFFFFF00
007FFFFC00
001FFFE000
ENDCHAR
STARTCHAR P
ENCODING 80
SWIDTH 867 0
DWIDTH 38 0
BBX 34 32 3 0
BITMAP
FFFFFFC000
FFFFFFF800
FFFFFFFC00
FFFFFFFE00
FFFFFFFF00
FFFFFFFF80
F800003F80
F800001F80
F800000FC0
F800000FC0
F800000FC0
F800000FC0
F800000FC0
F800000FC0
F800000FC0
F800001F80
F800003F80
F87FFFFF80
F87FFFFF00
F87FFFFE00
F87FFFFC00
F87FFFF800
F87FFFC000
F800000000
F800000000
F800000000
F800000000
F800000000
F800000000
F800000000
F800000000
F800000000
ENDCHAR
STARTCHAR Q
ENCODING 81
SWIDTH 968 0
DWIDTH 43 0
BBX 40 32 2 0
BITMAP
001FFFE000
00FFFFFC00
03FFFFFF00
07FFFFFFC0
0FFFFFFFE0
1FFFFFFFE0
3FE0001FF0
3F800007F8
7F000003F8
7E000001FC
7E000000FC
FC000000FC
FC0000007E
FC0000007E
FC0000007E
F80000007E
F80000007E
FC0000007E
FC0000007E
FC007F807C
FC001FC0FC
7E000FE0FC
7E0007F1FC
3F0001FFF8
3F8000FFF8
1FE0007FF0
0FFFFFFFE0
0FFFFFFFE0
03FFFFFFF0
01FFFFFFF8
007FFFFDFE
001FFFE0FF
ENDCHAR
STARTCHAR R
ENCODING 82
SWIDTH 921 0
DWIDTH 41 0
BBX 37 32 3 0
BITMAP
FFFFFFE000
FFFFFFF800
FFFFFFFE00
FFFFFFFF00
FFFFFFFF00
FFFFFFFF80
F800003F80
F800000FC0
F800000FC0
F8000007C0
F8000007C0
F8000007C0
F8000007C0
F8000007C0
F800000FC0
F800000FC0
F800001FC0
F800003F80
F87FFFFF00
F87FFFFF00
F87FFFFE00
F87FFFF800
F87FFFF000
F80003F800
F80001FC00
F80000FE00
F800007F00
F800007F80
F800003FC0
F800001FE0
F800000FF0
F8000007F8
ENDCHAR
STARTCHAR S
ENCODING 83
SWIDTH 880 0
DWIDTH 39 0
BBX 35 32 2 0
BITMAP
03FFFFFF80
0FFFFFFF80
1FFFFFFF80
3FFFFFFF80
7FFFFFFF80
7FFFFFFF80
7E00000000
FC00000000
FC00000000
FC00000000
FC00000000
7E00000000
7F00000000
7FFFFFF800
3FFFFFFE00
1FFFFFFF00
0FFFFFFF80
03FFFFFFC0
0000001FC0
00000007C0
00000007E0
00000007E0
00000007E0
00000007E0
00000007E0
0000000FC0
7FFFFFFFC0
7FFFFFFFC0
7FFFFFFF80
7FFFFFFF00
7FFFFFFE00
7FFFFFF000
ENDCHAR
STARTCHAR T
ENCODING 84
SWIDTH 720 0
DWIDTH 32 0
BBX 30 32 1 0
BITMAP
FFFFFFFC
FFFFFFFC
FFFFFFFC
FFFFFFFC
FFFFFFFC
FFFFFFFC
000FC000
000FC000
000FC000
000FC000
000FC000
000FC000
000FC000
000FC000
000FC000
000FC000
000FC000
000FC000
000FC000
000FC000
000FC000
000FC000
000FC000
000FC000
000FC000
000FC000
000FC000
000FC000
000FC000
000FC000
000FC000
000FC000
ENDCHAR
STARTCHAR U
ENCODING 85
SWIDTH 889 0
DWIDTH 39 0
BBX 35 32 2 0
BITMAP
FC000007E0
FC000007E0
FC000007E0
FC000007E0
FC000007E0
FC000007E0
FC000007E0
FC000007E0
FC000007E0
FC000007E0
FC000007E0
FC000007E0
FC000007E0
FC000007E0
FC000007E0
FC000007E0
FC000007E0
FC000007E0
FC000007E0
FC000007E0
FC000007E0
7E000007E0
7E00000FC0
7F00000FC0
7F80001FC0
3FE0007F80
3FFFFFFF80
1FFFFFFF00
0FFFFFFE00
03FFFFF800
00FFFFE000
001FFF0000
ENDCHAR
STARTCHAR V
ENCODING 86
SWIDTH 989 0
DWIDTH 44 0
BBX 42 32 1 0
BITMAP
FE0000001FC0
7E0000001F80
7F0000003F00
3F8000007F00
3F8000007E00
1FC00000FE00
0FC00000FC00
0FE00001F800
07F00003F800
07F00003F000
03F80007E000
01F80007E000
01FC000FC000
00FC001FC000
00FE001F8000
007F003F0000
003F003F0000
003F807E0000
001F80FE0000
001FC0FC0000
000FE1F80000
0007E1F80000
0007F3F00000
0003F7F00000
0001FFE00000
0001FFC00000
0000FFC00000
0000FF800000
00007F000000
00003F000000
00003E000000
00001C000000
ENDCHAR
STARTCHAR W
ENCODING 87
SWIDTH 1268 0
DWIDTH 56 0
BBX 54 32 1 0
BITMAP
FE00FE000000FC
FE007E000001F8
7F007F000001F8
3F003F000003F0
3F803F800007F0
1F801F800007E0
1FC01FC0000FE0
0FC00FC0000FC0
0FE00FE0001FC0
07E007E0001F80
07F007F0003F00
03F003F0003F00
03F803F8007E00
01F801F8007E00
00FC01FC00FC00
00FE00FC00FC00
007E00FE01F800
007F01FE03F800
003F03FF03F000
003F83FF07E000
001F87FF87E000
001FC7FF8FC000
000FCFCFCFC000
000FEFCFDF8000
0007FF87FF8000
0003FF87FF0000
0003FF03FF0000
0001FE03FE0000
0001FE01FE0000
0000FC01FC0000
0000FC00F80000
00007800700000
ENDCHAR
STARTCHAR X
ENCODING 88
SWIDTH 1000 0
DWIDTH 44 0
BBX 42 32 1 0
BITMAP
7F8000007F00
1FC00000FE00
0FE00001FC00
07F80003F800
03FC0007F000
01FE000FE000
00FF003FC000
007F807F8000
003FC0FF0000
001FE1FE0000
000FF3FC0000
0007FFF00000
0003FFE00000
0001FFC00000
0000FF800000
00007F800000
0000FFC00000
0001FFE00000
0003FFF00000
0007F7F80000
000FE3FC0000
001FC1FE0000
003F80FF0000
007F007F8000
00FE003FC000
01FC001FE000
03F8000FF000
07F00007F800
0FE00003FC00
1FC00001FE00
3F800000FF00
FF0000007FC0
ENDCHAR
STARTCHAR Y
ENCODING 89
SWIDTH 926 0
DWIDTH 41 0
BBX 39 32 1 0
BITMAP
FF000000FE
7F000001FC
3F800003F8
1FC00007F0
1FE0000FE0
0FF0001FC0
07F8001FC0
03F8003F80
01FC007F00
00FE00FE00
007F01FC00
007F83F800
003FC7F000
001FE7F000
000FEFE000
0007FFC000
0003FF8000
0001FF0000
0001FE0000
0000FC0000
00007C0000
00007C0000
00007C0000
00007C0000
00007C0000
00007C0000
00007C0000
00007C0000
00007C0000
00007C0000
00007C0000
00007C0000
ENDCHAR
STARTCHAR Z
ENCODING 90
SWIDTH 802 0
DWIDTH 35 0
BBX 31 32 2 0
BITMAP
FFFFFFFC
FFFFFFFE
FFFFFFFE
FFFFFFFE
FFFFFFFE
FFFFFFFC
000007F8
00000FF0
00001FE0
00003FC0
00007F80
0000FF00
0001FE00
0003FC00
0007F800
000FF000
001FE000
003FC000
007F8000
00FF0000
01FE0000
03FC0000
07F80000
0FF00000
1FE00000
3FC00000
7FFFFFFE
FFFFFFFE
FFFFFFFE
FFFFFFFE
FFFFFFFE
7FFFFFFE
ENDCHAR
STARTCHAR bracketleft
ENCODING 91
SWIDTH 333 0
DWIDTH 15 0
BBX 8 40 4 -4
BITMAP
FF
FF
FF
FF
F0
F0
F0
F0
F0
F0
F0
F0
F0
F0
F0
F0
F0
F0
F0
F0
F0
F0
F0
F0
F0
F0
F0
F0
F0
F0
F0
F0
F0
F0
F0
F0
FF
FF
FF
FF
ENDCHAR
STARTCHAR backslash
ENCODING 92
SWIDTH 445 0
DWIDTH 20 0
BBX 19 32 0 0
BITMAP
F00000
780000
380000
3C0000
1C0000
1E0000
1E0000
0F0000
0F0000
078000
078000
03C000
03C000
01C000
01E000
00E000
00F000
007000
007800
007800
003C00
003C00
001E00
001E00
000F00
000F00
000780
000780
0003C0
0003C0
0001C0
0001E0
ENDCHAR
STARTCHAR bracketright
ENCODING 93
SWIDTH 333 0
DWIDTH 15 0
BBX 7 40 3 -4
BITMAP
FE
FE
FE
FE
0E
0E
0E
0E
0E
0E
0E
0E
0E
0E
0E
0E
0E
0E
0E
0E
0E
0E
0E
0E
0E
0E
0E
0E
0E
0E
0E
0E
0E
0E
0E
0E
FE
FE
FE
FE
ENDCHAR
STARTCHAR asciicircum
ENCODING 94
SWIDTH 559 0
DWIDTH 25 0
BBX 19 19 3 13
BITMAP
00E000
01E000
01F000
03F000
03F800
03B800
07BC00
073C00
0F1C00
0E1E00
1E0E00
1E0F00
1C0F00
3C0780
380780
780380
7803C0
F003C0
F001E0
ENDCHAR
STARTCHAR underscore
ENCODING 95
SWIDTH 668 0
DWIDTH 29 0
BBX 30 3 0 -7
BITMAP
FFFFFFFC
FFFFFFFC
FFFFFFFC
ENDCHAR
STARTCHAR grave
ENCODING 96
SWIDTH 362 0
DWIDTH 16 0
BBX 12 6 2 34
BITMAP
C000
F800
FF00
FFF0
0FF0
0070
ENDCHAR
STARTCHAR a
ENCODING 97
SWIDTH 989 0
DWIDTH 44 0
BBX 42 32 1 0
BITMAP
00001C000000
00003E000000
00003F000000
00007F000000
0000FF800000
0000FFC00000
0001FFC00000
0001FFE00000
0003F7F00000
0007E3F00000
0007E3F80000
000FC1F80000
001FC0FC0000
001F80FE0000
003F007E0000
003F007F0000
007E003F0000
00FE001F8000
00FC001FC000
01F83FFFC000
01F87FFFE000
03F0FFFFE000
07F0FFFFF000
07E1FFFFF800
0FC00001F800
0FC00001FC00
1F800000FE00
3F800000FE00
3F0000007F00
7F0000003F00
FE0000003F80
FC0000001FC0
ENDCHAR
STARTCHAR b
ENCODING 98
SWIDTH 891 0
DWIDTH 39 0
BBX 34 32 3 0
BITMAP
FFFFFFE000
FFFFFFFC00
FFFFFFFE00
FFFFFFFF00
FFFFFFFF80
FFFFFFFF80
F800003F80
F800001F80
F800000FC0
F800000F80
F800000F80
F800001F80
F800003F00
F87FFFFE00
F87FFFFC00
F87FFFFE00
F87FFFFF00
F87FFFFF80
F800003F80
F800000FC0
F800000FC0
F800000FC0
F800000FC0
F800000FC0
F800000FC0
F800003FC0
FFFFFFFF80
FFFFFFFF80
FFFFFFFF00
FFFFFFFE00
FFFFFFFC00
FFFFFFF000
ENDCHAR
STARTCHAR c
ENCODING 99
SWIDTH 829 0
DWIDTH 36 0
BBX 33 32 2 0
BITMAP
001FFFFF80
00FFFFFF80
03FFFFFF80
07FFFFFF80
0FFFFFFF80
1FFFFFFF80
3FE0000000
3F80000000
7F00000000
7E00000000
7E00000000
FC00000000
FC00000000
FC00000000
FC00000000
F800000000
F800000000
FC00000000
FC00000000
FC00000000
FC00000000
7E00000000
7E00000000
3F00000000
3F80000000
1FE0000000
0FFFFFFF80
0FFFFFFF80
03FFFFFF80
01FFFFFF80
007FFFFF80
001FFFFF80
ENDCHAR
STARTCHAR d
ENCODING 100
SWIDTH 879 0
DWIDTH 39 0
BBX 34 32 3 0
BITMAP
FFFFFE0000
FFFFFF8000
FFFFFFE000
FFFFFFF800
FFFFFFFC00
FFFFFFFC00
F80001FE00
F80000FF00
F800007F00
F800003F80
F800001F80
F800001F80
F800000FC0
F800000FC0
F800000FC0
F800000FC0
F800000FC0
F800000FC0
F800000FC0
F800000F80
F800001F80
F800001F80
F800003F80
F800007F00
F80000FF00
F80001FE00
FFFFFFFC00
FFFFFFF800
FFFFFFF000
FFFFFFE000
FFFFFF8000
FFFFFC0000
ENDCHAR
STARTCHAR e
ENCODING 101
SWIDTH 759 0
DWIDTH 33 0
BBX 28 32 3 0
BITMAP
FFFFFFF0
FFFFFFF0
FFFFFFF0
FFFFFFF0
FFFFFFF0
FFFFFFF0
F8000000
F8000000
F8000000
F8000000
F8000000
F8000000
F8000000
F87FFFE0
F87FFFE0
F87FFFE0
F87FFFE0
F87FFFE0
F8000000
F8000000
F8000000
F8000000
F8000000
F8000000
F8000000
F8000000
FFFFFFF0
FFFFFFF0
FFFFFFF0
FFFFFFF0
FFFFFFF0
FFFFFFF0
ENDCHAR
STARTCHAR f
ENCODING 102
SWIDTH 705 0
DWIDTH 31 0
BBX 27 32 3 0
BITMAP
FFFFFFE0
FFFFFFE0
FFFFFFE0
FFFFFFE0
FFFFFFE0
FFFFFFE0
F8000000
F8000000
F8000000
F8000000
F8000000
F8000000
F8000000
F8000000
F87FFFC0
F87FFFC0
F87FFFC0
F87FFFC0
F87FFFC0
F8000000
F8000000
F8000000
F8000000
F8000000
F8000000
F8000000
F8000000
F8000000
F8000000
F8000000
F8000000
F8000000
ENDCHAR
STARTCHAR g
ENCODING 103
SWIDTH 888 0
DWIDTH 39 0
BBX 35 32 2 0
BITMAP
001FFFFF80
00FFFFFF80
03FFFFFF80
07FFFFFF80
0FFFFFFF80
1FFFFFFF80
3FE0000000
3F80000000
7F00000000
7E00000000
7E00000000
FC00000000
FC00000000
FC01FFFFE0
FC01FFFFE0
F801FFFFE0
F801FFFFE0
FC01FFFFE0
FC000007E0
FC000007E0
FC000007E0
7E000007E0
7E000007E0
3F000007E0
3F800007E0
1FE00007E0
0FFFFFFFE0
0FFFFFFFE0
03FFFFFFE0
01FFFFFFE0
007FFFFFE0
001FFFFFE0
ENDCHAR
STARTCHAR h
ENCODING 104
SWIDTH 838 0
DWIDTH 37 0
BBX 31 32 3 0
BITMAP
F800003E
F800003E
F800003E
F800003E
F800003E
F800003E
F800003E
F800003E
F800003E
F800003E
F800003E
F800003E
F800003E
F87FFFFE
F87FFFFE
F87FFFFE
F87FFFFE
F87FFFFE
F87FFFFE
F800003E
F800003E
F800003E
F800003E
F800003E
F800003E
F800003E
F800003E
F800003E
F800003E
F800003E
F800003E
F800003E
ENDCHAR
STARTCHAR i
ENCODING 105
SWIDTH 267 0
DWIDTH 12 0
BBX 6 32 3 0
BITMAP
FC
FC
FC
FC
FC
FC
FC
FC
FC
FC
FC
FC
FC
FC
FC
FC
FC
FC
FC
FC
FC
FC
FC
FC
FC
FC
FC
FC
FC
FC
FC
FC
ENDCHAR
STARTCHAR j
ENCODING 106
SWIDTH 708 0
DWIDTH 31 0
BBX 28 32 1 0
BITMAP
000003F0
000003F0
000003F0
000003F0
000003F0
000003F0
000003F0
000003F0
000003F0
000003F0
000003F0
000003F0
000003F0
000003F0
000003F0
000003F0
000003F0
000003F0
000003F0
000003F0
000003F0
000003F0
000007E0
000007E0
00000FE0
00003FC0
FFFFFFC0
FFFFFF80
FFFFFF00
FFFFFE00
FFFFF800
FFFFC000
ENDCHAR
STARTCHAR k
ENCODING 107
SWIDTH 875 0
DWIDTH 39 0
BBX 35 32 3 0
BITMAP
F800007FC0
F80001FF00
F80003FE00
F80007F800
F8000FF000
F8003FE000
F8007F8000
F800FF0000
F803FE0000
F807F80000
F80FF00000
F83FE00000
F87F800000
F8FF000000
F9FE000000
F9F8000000
F9FC000000
F8FF000000
F87F800000
F83FC00000
F81FF00000
F807F80000
F803FC0000
F801FE0000
F8007F8000
F8003FC000
F8001FE000
F8000FF800
F80003FC00
F80001FE00
F80000FF80
F800007FE0
ENDCHAR
STARTCHAR l
ENCODING 108
SWIDTH 707 0
DWIDTH 31 0
BBX 27 32 3 0
BITMAP
F8000000
F8000000
F8000000
F8000000
F8000000
F8000000
F8000000
F8000000
F8000000
F8000000
F8000000
F8000000
F8000000
F8000000
F8000000
F8000000
F8000000
F8000000
F8000000
F8000000
F8000000
F8000000
F8000000
F8000000
F8000000
F8000000
FFFFFFE0
FFFFFFE0
FFFFFFE0
FFFFFFE0
FFFFFFE0
FFFFFFE0
ENDCHAR
STARTCHAR m
ENCODING 109
SWIDTH 1115 0
DWIDTH 49 0
BBX 47 32 1 0
BITMAP
007800001C00
007C00003E00
00FC00007E00
00FE00007E00
00FE0000FF00
01FE0000FF00
01FF0000FF00
01FF0001FF00
01FF8001FF80
03FF8003FF80
03FFC003EF80
03EFC007EFC0
07E7E007CFC0
07E7E00FCFC0
07C3E00F87C0
07C3F00F87E0
0FC1F01F07E0
0FC1F81F03E0
0F80F83F03E0
0F80FC3E03F0
1F80FC7E03F0
1F007E7C01F0
1F007EFC01F8
3F003EF801F8
3F003FF800F8
3E001FF000F8
3E001FF000FC
7E000FF000FC
7E000FE0007C
7C000FE0007C
FC0007C0007E
FC000380007E
ENDCHAR
STARTCHAR n
ENCODING 110
SWIDTH 873 0
DWIDTH 38 0
BBX 33 32 3 0
BITMAP
7000001F80
F800001F80
FC00001F80
FE00001F80
FF00001F80
FF80001F80
FFC0001F80
FFE0001F80
FFF0001F80
FBF8001F80
F9FC001F80
F8FE001F80
F87F001F80
F83F801F80
F81FE01F80
F80FF01F80
F807F81F80
F803FC1F80
F801FE1F80
F800FF1F80
F8007F9F80
F8003FDF80
F8001FFF80
F8000FFF80
F80007FF80
F80003FF80
F80001FF80
F80000FF80
F800007F80
F800003F80
F800001F00
F800000F00
ENDCHAR
STARTCHAR o
ENCODING 111
SWIDTH 968 0
DWIDTH 43 0
BBX 39 32 2 0
BITMAP
001FFFE000
00FFFFFC00
03FFFFFF00
07FFFFFFC0
0FFFFFFFE0
1FFFFFFFE0
3FE0001FF0
3F800007F8
7F000003F8
7E000001FC
7E000000FC
FC000000FC
FC0000007E
FC0000007E
FC0000007E
F80000007E
F80000007E
FC0000007E
FC0000007E
FC0000007C
FC000000FC
7E000000FC
7E000001FC
3F000003F8
3F800007F8
1FE0001FF0
0FFFFFFFE0
0FFFFFFFC0
03FFFFFF80
01FFFFFF00
007FFFFC00
001FFFE000
ENDCHAR
STARTCHAR p
ENCODING 112
SWIDTH 867 0
DWIDTH 38 0
BBX 34 32 3 0
BITMAP
FFFFFFC000
FFFFFFF800
FFFFFFFC00
FFFFFFFE00
FFFFFFFF00
FFFFFFFF80
F800003F80
F800001F80
F800000FC0
F800000FC0
F800000FC0
F800000FC0
F800000FC0
F800000FC0
F800000FC0
F800001F80
F800003F80
F87FFFFF80
F87FFFFF00
F87FFFFE00
F87FFFFC00
F87FFFF800
F87FFFC000
F800000000
F800000000
F800000000
F800000000
F800000000
F800000000
F800000000
F800000000
F800000000
ENDCHAR
STARTCHAR q
ENCODING 113
SWIDTH 968 0
DWIDTH 43 0
BBX 40 32 2 0
BITMAP
001FFFE000
00FFFFFC00
03FFFFFF00
07FFFFFFC0
0FFFFFFFE0
1FFFFFFFE0
3FE0001FF0
3F800007F8
7F000003F8
7E000001FC
7E000000FC
FC000000FC
FC0000007E
FC0000007E
FC0000007E
F80000007E
F80000007E
FC0000007E
FC0000007E
FC007F807C
FC001FC0FC
7E000FE0FC
7E0007F1FC
3F0001FFF8
3F8000FFF8
1FE0007FF0
0FFFFFFFE0
0FFFFFFFE0
03FFFFFFF0
01FFFFFFF8
007FFFFDFE
001FFFE0FF
ENDCHAR
STARTCHAR r
ENCODING 114
SWIDTH 921 0
DWIDTH 41 0
BBX 37 32 3 0
BITMAP
FFFFFFE000
FFFFFFF800
FFFFFFFE00
FFFFFFFF00
FFFFFFFF00
FFFFFFFF80
F800003F80
F800000FC0
F800000FC0
F8000007C0
F8000007C0
F8000007C0
F8000007C0
F8000007C0
F800000FC0
F800000FC0
F800001FC0
F800003F80
F87FFFFF00
F87FFFFF00
F87FFFFE00
F87FFFF800
F87FFFF000
F80003F800
F80001FC00
F80000FE00
F800007F00
F800007F80
F800003FC0
F800001FE0
F800000FF0
F8000007F8
ENDCHAR
STARTCHAR s
ENCODING 115
SWIDTH 880 0
DWIDTH 39 0
BBX 35 32 2 0
BITMAP
03FFFFFF80
0FFFFFFF80
1FFFFFFF80
3FFFFFFF80
7FFFFFFF80
7FFFFFFF80
7E00000000
FC00000000
FC00000000
FC00000000
FC00000000
7E00000000
7F00000000
7FFFFFF800
3FFFFFFE00
1FFFFFFF00
0FFFFFFF80
03FFFFFFC0
0000001FC0
00000007C0
00000007E0
00000007E0
00000007E0
00000007E0
00000007E0
0000000FC0
7FFFFFFFC0
7FFFFFFFC0
7FFFFFFF80
7FFFFFFF00
7FFFFFFE00
7FFFFFF000
ENDCHAR
STARTCHAR t
ENCODING 116
SWIDTH 720 0
DWIDTH 32 0
BBX 30 32 1 0
BITMAP
FFFFFFFC
FFFFFFFC
FFFFFFFC
FFFFFFFC
FFFFFFFC
FFFFFFFC
000FC000
000FC000
000FC000
000FC000
000FC000
000FC000
000FC000
000FC000
000FC000
000FC000
000FC000
000FC000
000FC000
000FC000
000FC000
000FC000
000FC000
000FC000
000FC000
000FC000
000FC000
000FC000
000FC000
000FC000
000FC000
000FC000
ENDCHAR
STARTCHAR u
ENCODING 117
SWIDTH 889 0
DWIDTH 39 0
BBX 35 32 2 0
BITMAP
FC000007E0
FC000007E0
FC000007E0
FC000007E0
FC000007E0
FC000007E0
FC000007E0
FC000007E0
FC000007E0
FC000007E0
FC000007E0
FC000007E0
FC000007E0
FC000007E0
FC000007E0
FC000007E0
FC000007E0
FC000007E0
FC000007E0
FC000007E0
FC000007E0
7E000007E0
7E00000FC0
7F00000FC0
7F80001FC0
3FE0007F80
3FFFFFFF80
1FFFFFFF00
0FFFFFFE00
03FFFFF800
00FFFFE000
001FFF0000
ENDCHAR
STARTCHAR v
ENCODING 118
SWIDTH 989 0
DWIDTH 44 0
BBX 42 32 1 0
BITMAP
FE0000001FC0
7E0000001F80
7F0000003F00
3F8000007F00
3F8000007E00
1FC00000FE00
0FC00000FC00
0FE00001F800
07F00003F800
07F00003F000
03F80007E000
01F80007E000
01FC000FC000
00FC001FC000
00FE001F8000
007F003F0000
003F003F0000
003F807E0000
001F80FE0000
001FC0FC0000
000FE1F80000
0007E1F80000
0007F3F00000
0003F7F00000
0001FFE00000
0001FFC00000
0000FFC00000
0000FF800000
00007F000000
00003F000000
00003E000000
00001C000000
ENDCHAR
STARTCHAR w
ENCODING 119
SWIDTH 1268 0
DWIDTH 56 0
BBX 54 32 1 0
BITMAP
FE00FE000000FC
FE007E000001F8
7F007F000001F8
3F003F000003F0
3F803F800007F0
1F801F800007E0
1FC01FC0000FE0
0FC00FC0000FC0
0FE00FE0001FC0
07E007E0001F80
07F007F0003F00
03F003F0003F00
03F803F8007E00
01F801F8007E00
00FC01FC00FC00
00FE00FC00FC00
007E00FE01F800
007F01FE03F800
003F03FF03F000
003F83FF07E000
001F87FF87E000
001FC7FF8FC000
000FCFCFCFC000
000FEFCFDF8000
0007FF87FF8000
0003FF87FF0000
0003FF03FF0000
0001FE03FE0000
0001FE01FE0000
0000FC01FC0000
0000FC00F80000
00007800700000
ENDCHAR
STARTCHAR x
ENCODING 120
SWIDTH 1000 0
DWIDTH 44 0
BBX 42 32 1 0
BITMAP
7F8000007F00
1FC00000FE00
0FE00001FC00
07F80003F800
03FC0007F000
01FE000FE000
00FF003FC000
007F807F8000
003FC0FF0000
001FE1FE0000
000FF3FC0000
0007FFF00000
0003FFE00000
0001FFC00000
0000FF800000
00007F800000
0000FFC00000
0001FFE00000
0003FFF00000
0007F7F80000
000FE3FC0000
001FC1FE0000
003F80FF0000
007F007F8000
00FE003FC000
01FC001FE000
03F8000FF000
07F00007F800
0FE00003FC00
1FC00001FE00
3F800000FF00
FF0000007FC0
ENDCHAR
STARTCHAR y
ENCODING 121
SWIDTH 926 0
DWIDTH 41 0
BBX 39 32 1 0
BITMAP
FF000000FE
7F000001FC
3F800003F8
1FC00007F0
1FE0000FE0
0FF0001FC0
07F8001FC0
03F8003F80
01FC007F00
00FE00FE00
007F01FC00
007F83F800
003FC7F000
001FE7F000
000FEFE000
0007FFC000
0003FF8000
0001FF0000
0001FE0000
0000FC0000
00007C0000
00007C0000
00007C0000
00007C0000
00007C0000
00007C0000
00007C0000
00007C0000
00007C0000
00007C0000
00007C0000
00007C0000
ENDCHAR
STARTCHAR z
ENCODING 122
SWIDTH 802 0
DWIDTH 35 0
BBX 31 32 2 0
BITMAP
FFFFFFFC
FFFFFFFE
FFFFFFFE
FFFFFFFE
FFFFFFFE
FFFFFFFC
000007F8
00000FF0
00001FE0
00003FC0
00007F80
0000FF00
0001FE00
0003FC00
0007F800
000FF000
001FE000
003FC000
007F8000
00FF0000
01FE0000
03FC0000
07F80000
0FF00000
1FE00000
3FC00000
7FFFFFFE
FFFFFFFE
FFFFFFFE
FFFFFFFE
FFFFFFFE
7FFFFFFE
ENDCHAR
STARTCHAR braceleft
ENCODING 123
SWIDTH 337 0
DWIDTH 15 0
BBX 9 40 3 -4
BITMAP
0780
1F80
3F80
3E00
3C00
3C00
3C00
3C00
3C00
3C00
3C00
3C00
3C00
3C00
3C00
3C00
3C00
3C00
F800
F000
F800
3800
3C00
3C00
3C00
3C00
3C00
3C00
3C00
3C00
3C00
3C00
3C00
3C00
3C00
3C00
3E00
1F80
1F80
0780
ENDCHAR
STARTCHAR bar
ENCODING 124
SWIDTH 297 0
DWIDTH 13 0
BBX 3 40 5 -4
BITMAP
E0
E0
E0
E0
E0
E0
E0
E0
E0
E0
E0
E0
E0
E0
E0
E0
E0
E0
E0
E0
E0
E0
E0
E0
E0
E0
E0
E0
E0
E0
E0
E0
E0
E0
E0
E0
E0
E0
E0
E0
ENDCHAR
STARTCHAR braceright
ENCODING 125
SWIDTH 337 0
DWIDTH 15 0
BBX 9 40 3 -4
BITMAP
F000
FC00
FC00
3E00
1E00
1E00
1E00
1E00
1E00
1E00
1E00
1E00
1E00
1E00
1E00
1E00
1E00
1E00
0F80
0780
0F80
1E00
1E00
1E00
1E00
1E00
1E00
1E00
1E00
1E00
1E00
1E00
1E00
1E00
1E00
1E00
3E00
FC00
FC00
F000
ENDCHAR
STARTCHAR asciitilde
ENCODING 126
SWIDTH 691 0
DWIDTH 30 0
BBX 25 7 3 13
BITMAP
1F800080
7FF00180
FFFE0780
FFFFFF80
E07FFF80
800FFF00
8001FC00
ENDCHAR
STARTCHAR nonbreakingspace
ENCODING 160
SWIDTH 294 0
DWIDTH 13 0
BBX 1 1 0 0
BITMAP
00
ENDCHAR
STARTCHAR exclamdown
ENCODING 161
SWIDTH 298 0
DWIDTH 13 0
BBX 6 32 4 0
BITMAP
70
F8
FC
FC
F8
30
00
00
00
00
F8
F8
F8
F8
F8
F8
F8
F8
F8
F8
F8
F8
F8
F8
F8
F8
F8
F8
F8
F8
F8
F8
ENDCHAR
STARTCHAR cent
ENCODING 162
SWIDTH 692 0
DWIDTH 30 0
BBX 26 32 2 0
BITMAP
0000C000
0000C000
0000C000
007FFFC0
03FFFFC0
07FFFFC0
1FFFFFC0
3FFFFFC0
3F80C000
7F00C000
7C00C000
FC00C000
F800C000
F800C000
F000C000
F000C000
F000C000
F000C000
F800C000
F800C000
7C00C000
7C00C000
7F00C000
3F80C000
1FFFFFC0
0FFFFFC0
07FFFFC0
03FFFFC0
007FFFC0
0000C000
0000C000
0000C000
ENDCHAR
STARTCHAR sterling
ENCODING 163
SWIDTH 709 0
DWIDTH 31 0
BBX 28 32 1 0
BITMAP
003FFF00
00FFFF00
01FFFF00
03FFFF00
07FFFF00
07FFFF00
07E00000
0FC00000
0FC00000
0FC00000
0F800000
0F800000
0F800000
0F800000
3FFFC000
3FFFC000
3FFFC000
3FFFC000
0F800000
0F800000
0F800000
0F800000
0F800000
0F800000
0F800000
0F800000
FFFFFFF0
FFFFFFF0
FFFFFFF0
FFFFFFF0
FFFFFFF0
FFFFFFF0
ENDCHAR
STARTCHAR yen
ENCODING 165
SWIDTH 787 0
DWIDTH 35 0
BBX 32 32 1 0
BITMAP
FE00003F
7F00007F
3F0000FE
3F8000FC
1F8001F8
0FC003F8
0FE003F0
07E007E0
03F007E0
03F80FC0
01F81F80
00FC1F80
00FE3F00
007E7E00
003F7E00
003FFC00
001FF800
07FFFFF0
07FFFFF0
07FFFFF0
07FFFFF0
0003E000
0003E000
0003E000
0003E000
07FFFFF0
07FFFFF0
07FFFFF0
07FFFFF0
0003E000
0003E000
0003E000
ENDCHAR
STARTCHAR brokenbar
ENCODING 166
SWIDTH 297 0
DWIDTH 13 0
BBX 3 40 5 -4
BITMAP
E0
E0
E0
E0
E0
E0
E0
E0
E0
E0
E0
E0
E0
E0
E0
E0
E0
E0
00
00
00
00
E0
E0
E0
E0
E0
E0
E0
E0
E0
E0
E0
E0
E0
E0
E0
E0
E0
E0
ENDCHAR
STARTCHAR section
ENCODING 167
SWIDTH 773 0
DWIDTH 34 0
BBX 29 41 2 -9
BITMAP
03FFFFC0
0FFFFFC0
3FFFFFC0
3FFFFFC0
7FFFFFC0
7FFFFFC0
FE000000
FC000000
FC000000
F8000000
FC000000
7C000000
7E000000
3FFFFF00
1FFFFFC0
0FFFFFE0
1FFFFFE0
1F0007F0
3E0003F0
3E0001F0
3E0001F0
3E0001F0
3E0003E0
3F0003E0
3FFFFFC0
1FFFFF80
0FFFFFE0
03FFFFF0
000003F8
000001F8
000000F8
000000F8
000000F8
000000F8
000001F8
0FFFFFF8
0FFFFFF8
0FFFFFF0
0FFFFFE0
0FFFFFC0
0FFFFF00
ENDCHAR
STARTCHAR dieresis
ENCODING 168
SWIDTH 393 0
DWIDTH 17 0
BBX 13 4 2 35
BITMAP
7070
F878
F8F8
7070
ENDCHAR
STARTCHAR copyright
ENCODING 169
SWIDTH 829 0
DWIDTH 36 0
BBX 33 32 2 0
BITMAP
000FF00000
00781E0000
01C0018000
030000E000
0600003000
0C00001800
1800000800
3000000400
2007F80600
601FF80200
403C000300
C070000100
C0E0000100
C0E0000100
80C0000180
80C0000180
80C0000180
C0E0000180
C060000100
C070000100
C03C000300
601FF80300
6007F80600
3000000600
3000000C00
1800001800
0C00003800
0700007000
038001C000
01F0078000
007FFE0000
000FF00000
ENDCHAR
STARTCHAR ordfeminine
ENCODING 170
SWIDTH 604 0
DWIDTH 27 0
BBX 23 19 2 13
BITMAP
001000
003800
007800
007C00
00FE00
01FE00
01CF00
03C700
038780
0783C0
0F03C0
0E01E0
1E7FE0
1CFFF0
3C0078
780078
70003C
F0001C
E0001E
ENDCHAR
STARTCHAR guillemotleft
ENCODING 171
SWIDTH 629 0
DWIDTH 28 0
BBX 24 17 2 8
BITMAP
000801
001003
00700F
01F01E
03C07C
0F01F0
3E03C0
780F00
E01E00
F00F00
3C0780
1F01E0
078078
01E03E
00F00F
003003
000801
ENDCHAR
STARTCHAR registered
ENCODING 174
SWIDTH 585 0
DWIDTH 26 0
BBX 20 21 3 11
BITMAP
01F800
07FE00
1E0700
380180
3000C0
600060
C7F860
C7FC30
C60630
860630
860430
867C30
C61830
C60E30
400060
600060
3000C0
380180
1E0700
07FE00
01F000
ENDCHAR
STARTCHAR macron
ENCODING 175
SWIDTH 362 0
DWIDTH 16 0
BBX 12 3 2 36
BITMAP
FFF0
FFF0
FFF0
ENDCHAR
STARTCHAR degree
ENCODING 176
SWIDTH 361 0
DWIDTH 16 0
BBX 12 13 2 19
BITMAP
1F80
7FC0
7FE0
E0F0
E070
C070
C030
C070
E070
F0F0
7FE0
3FC0
0F00
ENDCHAR
STARTCHAR plusminus
ENCODING 177
SWIDTH 690 0
DWIDTH 30 0
BBX 25 32 3 -3
BITMAP
003C0000
003C0000
003C0000
003C0000
003C0000
003C0000
003C0000
003C0000
003C0000
003C0000
003C0000
FFFFFF80
FFFFFF80
FFFFFF80
FFFFFF80
003C0000
003C0000
003C0000
003C0000
003C0000
003C0000
003C0000
003C0000
003C0000
003C0000
00000000
00000000
00000000
FFFFFF80
FFFFFF80
FFFFFF80
FFFFFF80
ENDCHAR
STARTCHAR twosuperior
ENCODING 178
SWIDTH 442 0
DWIDTH 19 0
BBX 16 16 2 17
BITMAP
FFF8
FFFE
FFFE
000F
0007
0007
000E
3FFE
7FF8
E000
E000
E000
E000
FFFE
FFFE
FFFE
ENDCHAR
STARTCHAR threesuperior
ENCODING 179
SWIDTH 443 0
DWIDTH 19 0
BBX 16 16 2 17
BITMAP
FFF8
FFFE
FFFE
000E
0006
0006
000E
1FF8
1FFE
000E
0007
0007
000F
FFFE
FFFE
FFF8
ENDCHAR
STARTCHAR acute
ENCODING 180
SWIDTH 362 0
DWIDTH 16 0
BBX 12 6 2 34
BITMAP
0030
01F0
0FF0
FFF0
FE00
E000
ENDCHAR
STARTCHAR paragraph
ENCODING 182
SWIDTH 629 0
DWIDTH 28 0
BBX 23 37 2 -5
BITMAP
0FFFFE
3FFFFE
3FFFFE
7FFFFE
FFFC1E
FFFC1E
FFFC1E
FFFC1E
FFFC1E
FFFC1E
FFFC1E
7FFC1E
7FFC1E
3FFC1E
0FFC1E
003C1E
003C1E
003C1E
003C1E
003C1E
003C1E
003C1E
003C1E
003C1E
003C1E
003C1E
003C1E
003C1E
003C1E
003C1E
003C1E
003C1E
003C1E
003C1E
003C1E
003C1E
003C1E
ENDCHAR
STARTCHAR periodcentered
ENCODING 183
SWIDTH 262 0
DWIDTH 12 0
BBX 6 6 3 13
BITMAP
30
F8
FC
FC
F8
78
ENDCHAR
STARTCHAR cedilla
ENCODING 184
SWIDTH 219 0
DWIDTH 10 0
BBX 6 7 2 -9
BITMAP
FC
78
78
70
30
20
20
ENDCHAR
STARTCHAR onesuperior
ENCODING 185
SWIDTH 222 0
DWIDTH 10 0
BBX 7 16 1 17
BITMAP
F0
FC
FC
1E
0E
0E
0E
0E
0E
0E
0E
0E
0E
0E
0E
0E
ENDCHAR
STARTCHAR ordmasculine
ENCODING 186
SWIDTH 592 0
DWIDTH 26 0
BBX 22 18 2 13
BITMAP
03FF00
0FFFC0
1FFFE0
3E00F0
780078
700038
70003C
F0001C
E0001C
E0001C
F0001C
700038
700038
780078
3E01F0
1FFFE0
0FFFC0
03FF00
ENDCHAR
STARTCHAR guillemotright
ENCODING 187
SWIDTH 629 0
DWIDTH 28 0
BBX 24 17 2 8
BITMAP
801000
C01800
E01E00
F80F00
3E03C0
0F01F0
03C078
01F01E
007007
00F00E
03C03C
0780F0
1E03E0
780780
F01E00
C01C00
801000
ENDCHAR
STARTCHAR onequarter
ENCODING 188
SWIDTH 972 0
DWIDTH 43 0
BBX 39 37 2 -3
BITMAP
0000000F80
1E00000E00
1F80001E00
1FC0003C00
01C0007800
01C000F000
01C000E000
01C001E000
01C003C000
01C0078000
01C0070000
01C00F0000
01C01E0000
01C03C0000
01C0780000
01C0700000
01C0F00000
0001E00000
0003C38038
0003838038
0007838038
000F038038
001E038038
003C038038
0038038038
0078038038
00F0038038
01E003FFFE
03C001FFFE
03C0007FFE
0780000038
0F00000038
1E00000038
1C00000038
3C00000000
7800000000
F000000000
ENDCHAR
STARTCHAR onehalf
ENCODING 189
SWIDTH 948 0
DWIDTH 42 0
BBX 38 37 2 -3
BITMAP
0000000F80
1E00000E00
1F80001E00
1FC0003C00
01C0007800
01C000F000
01C000E000
01C001E000
01C003C000
01C0078000
01C0070000
01C00F0000
01C01E0000
01C03C0000
01C0780000
01C0700000
01C0F00000
0001E00000
0003C3FFF0
000383FFF8
000783FFF8
000F00001C
001E00001C
003C00001C
0038000038
007800FFF8
00F001FFE0
01E0018000
03C0038000
03C0038000
0780038000
0F0003FFFC
1E0003FFFC
1C0003FFFC
3C00000000
7800000000
F000000000
ENDCHAR
STARTCHAR threequarters
ENCODING 190
SWIDTH 1029 0
DWIDTH 45 0
BBX 41 37 2 -3
BITMAP
00000001E000
FFF80003C000
FFFE00078000
FFFE00070000
000F000F0000
0007001E0000
0006003C0000
000E00780000
0FFC00700000
0FFE00F00000
000F01E00000
000703C00000
000707800000
000F07800000
FFFE0F000000
FFFE1E000000
FFF83C000000
000038000000
000078E00E00
0000F0E00E00
0001E0E00E00
0003C0E00E00
000380E00E00
000780E00E00
000F00E00E00
001E00E00E00
001C00700E00
003C007FFF80
0078003FFF80
00F0001FFF80
01E000000E00
01C000000E00
03C000000E00
078000000E00
0F0000000000
0E0000000000
3E0000000000
ENDCHAR
STARTCHAR questiondown
ENCODING 191
SWIDTH 776 0
DWIDTH 34 0
BBX 31 32 1 0
BITMAP
000000E0
000001F0
000003F0
000003F0
000001F0
000000C0
00000000
00000000
00000000
00000000
000001F0
000001F0
000001F0
000003F0
03FFFFF0
0FFFFFF0
1FFFFFE0
3FFFFFC0
7FFFFF00
7F000000
7E000000
FC000000
FC000000
FC000000
FC000000
FE000000
7FFFFFFE
7FFFFFFE
3FFFFFFE
1FFFFFFE
0FFFFFFE
03FFFFFE
ENDCHAR
STARTCHAR Agrave
ENCODING 192
SWIDTH 989 0
DWIDTH 44 0
BBX 42 40 1 0
BITMAP
000200000000
0003C0000000
0003FC000000
0003FF800000
00003F800000
000001800000
000000000000
000000000000
00001C000000
00003E000000
00003F000000
00007F000000
0000FF800000
0000FFC00000
0001FFC00000
0001FFE00000
0003F7F00000
0007E3F00000
0007E3F80000
000FC1F80000
001FC0FC0000
001F80FE0000
003F007E0000
003F007F0000
007E003F0000
00FE001F8000
00FC001FC000
01F83FFFC000
01F87FFFE000
03F0FFFFE000
07F0FFFFF000
07E1FFFFF800
0FC00001F800
0FC00001FC00
1F800000FE00
3F800000FE00
3F0000007F00
7F0000003F00
FE0000003F80
FC0000001FC0
ENDCHAR
STARTCHAR Aacute
ENCODING 193
SWIDTH 989 0
DWIDTH 44 0
BBX 42 40 1 0
BITMAP
000000300000
000001F00000
00000FF00000
0000FFF00000
0000FF000000
0000E0000000
000000000000
000000000000
00001C000000
00003E000000
00003F000000
00007F000000
0000FF800000
0000FFC00000
0001FFC00000
0001FFE00000
0003F7F00000
0007E3F00000
0007E3F80000
000FC1F80000
001FC0FC0000
001F80FE0000
003F007E0000
003F007F0000
007E003F0000
00FE001F8000
00FC001FC000
01F83FFFC000
01F87FFFE000
03F0FFFFE000
07F0FFFFF000
07E1FFFFF800
0FC00001F800
0FC00001FC00
1F800000FE00
3F800000FE00
3F0000007F00
7F0000003F00
FE0000003F80
FC0000001FC0
ENDCHAR
STARTCHAR Acircumflex
ENCODING 194
SWIDTH 989 0
DWIDTH 44 0
BBX 42 40 1 0
BITMAP
00001E000000
00003F000000
000077000000
000073800000
0000E3C00000
0001C1C00000
0001C0E00000
000000000000
00001C000000
00003E000000
00003F000000
00007F000000
0000FF800000
0000FFC00000
0001FFC00000
0001FFE00000
0003F7F00000
0007E3F00000
0007E3F80000
000FC1F80000
001FC0FC0000
001F80FE0000
003F007E0000
003F007F0000
007E003F0000
00FE001F8000
00FC001FC000
01F83FFFC000
01F87FFFE000
03F0FFFFE000
07F0FFFFF000
07E1FFFFF800
0FC00001F800
0FC00001FC00
1F800000FE00
3F800000FE00
3F0000007F00
7F0000003F00
FE0000003F80
FC0000001FC0
ENDCHAR
STARTCHAR Atilde
ENCODING 195
SWIDTH 989 0
DWIDTH 44 0
BBX 42 39 1 0
BITMAP
0000F0200000
0001FC400000
00019FC00000
000103800000
000000000000
000000000000
000000000000
00001C000000
00003E000000
00003F000000
00007F000000
0000FF800000
0000FFC00000
0001FFC00000
0001FFE00000
0003F7F00000
0007E3F00000
0007E3F80000
000FC1F80000
001FC0FC0000
001F80FE0000
003F007E0000
003F007F0000
007E003F0000
00FE001F8000
00FC001FC000
01F83FFFC000
01F87FFFE000
03F0FFFFE000
07F0FFFFF000
07E1FFFFF800
0FC00001F800
0FC00001FC00
1F800000FE00
3F800000FE00
3F0000007F00
7F0000003F00
FE0000003F80
FC0000001FC0
ENDCHAR
STARTCHAR Adieresis
ENCODING 196
SWIDTH 989 0
DWIDTH 44 0
BBX 42 39 1 0
BITMAP
0001C1C00000
0003E1E00000
0003E1E00000
0001C1C00000
000000000000
000000000000
000000000000
00001C000000
00003E000000
00003F000000
00007F000000
0000FF800000
0000FFC00000
0001FFC00000
0001FFE00000
0003F7F00000
0007E3F00000
0007E3F80000
000FC1F80000
001FC0FC0000
001F80FE0000
003F007E0000
003F007F0000
007E003F0000
00FE001F8000
00FC001FC000
01F83FFFC000
01F87FFFE000
03F0FFFFE000
07F0FFFFF000
07E1FFFFF800
0FC00001F800
0FC00001FC00
1F800000FE00
3F800000FE00
3F0000007F00
7F0000003F00
FE0000003F80
FC0000001FC0
ENDCHAR
STARTCHAR Aring
ENCODING 197
SWIDTH 989 0
DWIDTH 44 0
BBX 42 43 1 0
BITMAP
00007F000000
0000FF800000
0001C0C00000
000180400000
000180400000
000180C00000
0000C0C00000
0000FF800000
00007F000000
000000000000
000000000000
00001C000000
00003E000000
00003F000000
00007F000000
0000FF800000
0000FFC00000
0001FFC00000
0001FFE00000
0003F7F00000
0007E3F00000
0007E3F80000
000FC1F80000
001FC0FC0000
001F80FE0000
003F007E0000
003F007F0000
007E003F0000
00FE001F8000
00FC001FC000
01F83FFFC000
01F87FFFE000
03F0FFFFE000
07F0FFFFF000
07E1FFFFF800
0FC00001F800
0FC00001FC00
1F800000FE00
3F800000FE00
3F0000007F00
7F0000003F00
FE0000003F80
FC0000001FC0
ENDCHAR
STARTCHAR AE
ENCODING 198
SWIDTH 1345 0
DWIDTH 59 0
BBX 56 32 1 0
BITMAP
00003FFFFFFFFF
00007FFFFFFFFF
00007FFFFFFFFF
0000FFFFFFFFFF
0000FFFFFFFFFF
0001FFFFFFFFFF
0003F007E00000
0003F007E00000
0007E007E00000
0007E007E00000
000FC007E00000
000FC007E00000
001F8007E00000
003F0007E1FFFE
003F0007E1FFFE
007E0007E1FFFE
007E0007E1FFFE
00FC0007E1FFFE
01FC0007E00000
01F87FFFE00000
03F07FFFE00000
03F0FFFFE00000
07E0FFFFE00000
07E1FFFFE00000
0FC00007E00000
1FC00007E00000
1F800007FFFFFF
3F000007FFFFFF
3F000007FFFFFF
7E000007FFFFFF
FE000007FFFFFF
FC000007FFFFFF
ENDCHAR
STARTCHAR Ccedilla
ENCODING 199
SWIDTH 829 0
DWIDTH 36 0
BBX 33 41 2 -9
BITMAP
001FFFFF80
00FFFFFF80
03FFFFFF80
07FFFFFF80
0FFFFFFF80
1FFFFFFF80
3FE0000000
3F80000000
7F00000000
7E00000000
7E00000000
FC00000000
FC00000000
FC00000000
FC00000000
F800000000
F800000000
FC00000000
FC00000000
FC00000000
FC00000000
7E00000000
7E00000000
3F00000000
3F80000000
1FE0000000
0FFFFFFF80
0FFFFFFF80
03FFFFFF80
01FFFFFF80
007FFFFF80
001FFFFF80
0000000000
0000000000
0003F00000
0001E00000
0001E00000
0000E00000
0000C00000
0000400000
0000400000
ENDCHAR
STARTCHAR Egrave
ENCODING 200
SWIDTH 759 0
DWIDTH 33 0
BBX 28 40 3 0
BITMAP
01000000
01E00000
01FE0000
01FFC000
001FC000
0000C000
00000000
00000000
FFFFFFF0
FFFFFFF0
FFFFFFF0
FFFFFFF0
FFFFFFF0
FFFFFFF0
F8000000
F8000000
F8000000
F8000000
F8000000
F8000000
F8000000
F87FFFE0
F87FFFE0
F87FFFE0
F87FFFE0
F87FFFE0
F8000000
F8000000
F8000000
F8000000
F8000000
F8000000
F8000000
F8000000
FFFFFFF0
FFFFFFF0
FFFFFFF0
FFFFFFF0
FFFFFFF0
FFFFFFF0
ENDCHAR
STARTCHAR Eacute
ENCODING 201
SWIDTH 759 0
DWIDTH 33 0
BBX 28 40 3 0
BITMAP
00001800
0000F800
0007F800
007FF800
007F0000
00700000
00000000
00000000
FFFFFFF0
FFFFFFF0
FFFFFFF0
FFFFFFF0
FFFFFFF0
FFFFFFF0
F8000000
F8000000
F8000000
F8000000
F8000000
F8000000
F8000000
F87FFFE0
F87FFFE0
F87FFFE0
F87FFFE0
F87FFFE0
F8000000
F8000000
F8000000
F8000000
F8000000
F8000000
F8000000
F8000000
FFFFFFF0
FFFFFFF0
FFFFFFF0
FFFFFFF0
FFFFFFF0
FFFFFFF0
ENDCHAR
STARTCHAR Ecircumflex
ENCODING 202
SWIDTH 759 0
DWIDTH 33 0
BBX 28 40 3 0
BITMAP
001F0000
001F8000
003B8000
0039C000
0071C000
00E0E000
00E07000
00000000
FFFFFFF0
FFFFFFF0
FFFFFFF0
FFFFFFF0
FFFFFFF0
FFFFFFF0
F8000000
F8000000
F8000000
F8000000
F8000000
F8000000
F8000000
F87FFFE0
F87FFFE0
F87FFFE0
F87FFFE0
F87FFFE0
F8000000
F8000000
F8000000
F8000000
F8000000
F8000000
F8000000
F8000000
FFFFFFF0
FFFFFFF0
FFFFFFF0
FFFFFFF0
FFFFFFF0
FFFFFFF0
ENDCHAR
STARTCHAR Edieresis
ENCODING 203
SWIDTH 759 0
DWIDTH 33 0
BBX 28 39 3 0
BITMAP
00E0E000
01F0F000
01F0F000
00E0E000
00000000
00000000
00000000
FFFFFFF0
FFFFFFF0
FFFFFFF0
FFFFFFF0
FFFFFFF0
FFFFFFF0
F8000000
F8000000
F8000000
F8000000
F8000000
F8000000
F8000000
F87FFFE0
F87FFFE0
F87FFFE0
F87FFFE0
F87FFFE0
F8000000
F8000000
F8000000
F8000000
F8000000
F8000000
F8000000
F8000000
FFFFFFF0
FFFFFFF0
FFFFFFF0
FFFFFFF0
FFFFFFF0
FFFFFFF0
ENDCHAR
STARTCHAR Igrave
ENCODING 204
SWIDTH 267 0
DWIDTH 12 0
BBX 11 40 -1 0
BITMAP
8000
F800
FF00
FFE0
0FE0
0060
0000
0000
0FC0
0FC0
0FC0
0FC0
0FC0
0FC0
0FC0
0FC0
0FC0
0FC0
0FC0
0FC0
0FC0
0FC0
0FC0
0FC0
0FC0
0FC0
0FC0
0FC0
0FC0
0FC0
0FC0
0FC0
0FC0
0FC0
0FC0
0FC0
0FC0
0FC0
0FC0
0FC0
ENDCHAR
STARTCHAR Iacute
ENCODING 205
SWIDTH 267 0
DWIDTH 12 0
BBX 11 40 2 0
BITMAP
0020
03E0
1FE0
FFE0
FE00
C000
0000
0000
7E00
7E00
7E00
7E00
7E00
7E00
7E00
7E00
7E00
7E00
7E00
7E00
7E00
7E00
7E00
7E00
7E00
7E00
7E00
7E00
7E00
7E00
7E00
7E00
7E00
7E00
7E00
7E00
7E00
7E00
7E00
7E00
ENDCHAR
STARTCHAR Icircumflex
ENCODING 206
SWIDTH 267 0
DWIDTH 12 0
BBX 12 40 0 0
BITMAP
0F00
1F80
3B80
39C0
70E0
70E0
E070
0000
1F80
1F80
1F80
1F80
1F80
1F80
1F80
1F80
1F80
1F80
1F80
1F80
1F80
1F80
1F80
1F80
1F80
1F80
1F80
1F80
1F80
1F80
1F80
1F80
1F80
1F80
1F80
1F80
1F80
1F80
1F80
1F80
ENDCHAR
STARTCHAR Idieresis
ENCODING 207
SWIDTH 267 0
DWIDTH 12 0
BBX 12 39 0 0
BITMAP
E0F0
F0F0
F0F0
E0F0
0000
0000
0000
1F80
1F80
1F80
1F80
1F80
1F80
1F80
1F80
1F80
1F80
1F80
1F80
1F80
1F80
1F80
1F80
1F80
1F80
1F80
1F80
1F80
1F80
1F80
1F80
1F80
1F80
1F80
1F80
1F80
1F80
1F80
1F80
ENDCHAR
STARTCHAR Eth
ENCODING 208
SWIDTH 877 0
DWIDTH 39 0
BBX 37 32 0 0
BITMAP
1FFFFF8000
1FFFFFF000
1FFFFFFC00
1FFFFFFE00
1FFFFFFF80
1FFFFFFF80
1F00007FC0
1F00001FE0
1F00000FE0
1F000007F0
1F000003F0
1F000003F0
1F000001F8
FFFFF801F8
FFFFF801F8
FFFFF801F8
FFFFF801F8
FFFFF801F8
1F000001F8
1F000001F0
1F000003F0
1F000003F0
1F000007F0
1F00000FE0
1F00001FE0
1F00007FC0
1FFFFFFF80
1FFFFFFF00
1FFFFFFE00
1FFFFFFC00
1FFFFFF000
1FFFFF8000
ENDCHAR
STARTCHAR Ntilde
ENCODING 209
SWIDTH 873 0
DWIDTH 38 0
BBX 33 39 3 0
BITMAP
000E040000
001F8C0000
0011FC0000
0020780000
0000000000
0000000000
0000000000
7000001F80
F800001F80
FC00001F80
FE00001F80
FF00001F80
FF80001F80
FFC0001F80
FFE0001F80
FFF0001F80
FBF8001F80
F9FC001F80
F8FE001F80
F87F001F80
F83F801F80
F81FE01F80
F80FF01F80
F807F81F80
F803FC1F80
F801FE1F80
F800FF1F80
F8007F9F80
F8003FDF80
F8001FFF80
F8000FFF80
F80007FF80
F80003FF80
F80001FF80
F80000FF80
F800007F80
F800003F80
F800001F00
F800000F00
ENDCHAR
STARTCHAR Ograve
ENCODING 210
SWIDTH 968 0
DWIDTH 43 0
BBX 39 40 2 0
BITMAP
000C000000
000F800000
000FF00000
000FFF0000
00007F0000
0000070000
0000000000
0000000000
001FFFE000
00FFFFFC00
03FFFFFF00
07FFFFFFC0
0FFFFFFFE0
1FFFFFFFE0
3FE0001FF0
3F800007F8
7F000003F8
7E000001FC
7E000000FC
FC000000FC
FC0000007E
FC0000007E
FC0000007E
F80000007E
F80000007E
FC0000007E
FC0000007E
FC0000007C
FC000000FC
7E000000FC
7E000001FC
3F000003F8
3F800007F8
1FE0001FF0
0FFFFFFFE0
0FFFFFFFC0
03FFFFFF80
01FFFFFF00
007FFFFC00
001FFFE000
ENDCHAR
STARTCHAR Oacute
ENCODING 211
SWIDTH 968 0
DWIDTH 43 0
BBX 39 40 2 0
BITMAP
0000004000
000003C000
00003FC000
0001FFC000
0001FC0000
0001800000
0000000000
0000000000
001FFFE000
00FFFFFC00
03FFFFFF00
07FFFFFFC0
0FFFFFFFE0
1FFFFFFFE0
3FE0001FF0
3F800007F8
7F000003F8
7E000001FC
7E000000FC
FC000000FC
FC0000007E
FC0000007E
FC0000007E
F80000007E
F80000007E
FC0000007E
FC0000007E
FC0000007C
FC000000FC
7E000000FC
7E000001FC
3F000003F8
3F800007F8
1FE0001FF0
0FFFFFFFE0
0FFFFFFFC0
03FFFFFF80
01FFFFFF00
007FFFFC00
001FFFE000
ENDCHAR
STARTCHAR Ocircumflex
ENCODING 212
SWIDTH 968 0
DWIDTH 43 0
BBX 39 40 2 0
BITMAP
00007C0000
0000FC0000
0000EE0000
0001CE0000
0001C70000
0003838000
0007038000
0000000000
001FFFE000
00FFFFFC00
03FFFFFF00
07FFFFFFC0
0FFFFFFFE0
1FFFFFFFE0
3FE0001FF0
3F800007F8
7F000003F8
7E000001FC
7E000000FC
FC000000FC
FC0000007E
FC0000007E
FC0000007E
F80000007E
F80000007E
FC0000007E
FC0000007E
FC0000007C
FC000000FC
7E000000FC
7E000001FC
3F000003F8
3F800007F8
1FE0001FF0
0FFFFFFFE0
0FFFFFFFC0
03FFFFFF80
01FFFFFF00
007FFFFC00
001FFFE000
ENDCHAR
STARTCHAR Otilde
ENCODING 213
SWIDTH 968 0
DWIDTH 43 0
BBX 39 39 2 0
BITMAP
0001C08000
0003F18000
00023F8000
00040F0000
0000000000
0000000000
0000000000
001FFFE000
00FFFFFC00
03FFFFFF00
07FFFFFFC0
0FFFFFFFE0
1FFFFFFFE0
3FE0001FF0
3F800007F8
7F000003F8
7E000001FC
7E000000FC
FC000000FC
FC0000007E
FC0000007E
FC0000007E
F80000007E
F80000007E
FC0000007E
FC0000007E
FC0000007C
FC000000FC
7E000000FC
7E000001FC
3F000003F8
3F800007F8
1FE0001FF0
0FFFFFFFE0
0FFFFFFFC0
03FFFFFF80
01FFFFFF00
007FFFFC00
001FFFE000
ENDCHAR
STARTCHAR Odieresis
ENCODING 214
SWIDTH 968 0
DWIDTH 43 0
BBX 39 39 2 0
BITMAP
0003838000
000787C000
000787C000
0003838000
0000000000
0000000000
0000000000
001FFFE000
00FFFFFC00
03FFFFFF00
07FFFFFFC0
0FFFFFFFE0
1FFFFFFFE0
3FE0001FF0
3F800007F8
7F000003F8
7E000001FC
7E000000FC
FC000000FC
FC0000007E
FC0000007E
FC0000007E
F80000007E
F80000007E
FC0000007E
FC0000007E
FC0000007C
FC000000FC
7E000000FC
7E000001FC
3F000003F8
3F800007F8
1FE0001FF0
0FFFFFFFE0
0FFFFFFFC0
03FFFFFF80
01FFFFFF00
007FFFFC00
001FFFE000
ENDCHAR
STARTCHAR multiply
ENCODING 215
SWIDTH 690 0
DWIDTH 30 0
BBX 20 20 5 6
BITMAP
300040
7800E0
FC01F0
7E03E0
3F07C0
1F8F80
0FDF00
07FE00
03FC00
01F800
01FC00
03FE00
07FF00
0F9F80
1F0FC0
3E07E0
7C03F0
F801F0
7000E0
200040
ENDCHAR
STARTCHAR Oslash
ENCODING 216
SWIDTH 968 0
DWIDTH 43 0
BBX 39 36 2 -2
BITMAP
0000000040
00000000E0
001FFFE1C0
00FFFFFF80
03FFFFFF80
07FFFFFF80
0FFFFFFFE0
1FFFFFFFE0
3FE0003FF0
3F800077F8
7F000063F8
7E0000E1FC
7E0001C0FC
FC000380FC
FC0007007E
FC000E007E
FC001C007E
F8001C007E
FC0038007E
FC0070007E
FC00E0007E
FC01C0007C
FC038000FC
7E070000FC
7E070001FC
3F0E0003F8
3F9C0007F8
1FF8001FF0
0FFFFFFFE0
0FFFFFFFC0
07FFFFFF80
01FFFFFF00
03FFFFFC00
071FFFE000
0E00000000
0400000000
ENDCHAR
STARTCHAR Ugrave
ENCODING 217
SWIDTH 889 0
DWIDTH 39 0
BBX 35 40 2 0
BITMAP
0010000000
001E000000
001FE00000
001FFC0000
0001FC0000
00001C0000
0000000000
0000000000
FC000007E0
FC000007E0
FC000007E0
FC000007E0
FC000007E0
FC000007E0
FC000007E0
FC000007E0
FC000007E0
FC000007E0
FC000007E0
FC000007E0
FC000007E0
FC000007E0
FC000007E0
FC000007E0
FC000007E0
FC000007E0
FC000007E0
FC000007E0
FC000007E0
7E000007E0
7E00000FC0
7F00000FC0
7F80001FC0
3FE0007F80
3FFFFFFF80
1FFFFFFF00
0FFFFFFE00
03FFFFF800
00FFFFE000
001FFF0000
ENDCHAR
STARTCHAR Uacute
ENCODING 218
SWIDTH 889 0
DWIDTH 39 0
BBX 35 40 2 0
BITMAP
0000010000
00000F0000
00007F0000
0007FF0000
0007F00000
0007000000
0000000000
0000000000
FC000007E0
FC000007E0
FC000007E0
FC000007E0
FC000007E0
FC000007E0
FC000007E0
FC000007E0
FC000007E0
FC000007E0
FC000007E0
FC000007E0
FC000007E0
FC000007E0
FC000007E0
FC000007E0
FC000007E0
FC000007E0
FC000007E0
FC000007E0
FC000007E0
7E000007E0
7E00000FC0
7F00000FC0
7F80001FC0
3FE0007F80
3FFFFFFF80
1FFFFFFF00
0FFFFFFE00
03FFFFF800
00FFFFE000
001FFF0000
ENDCHAR
STARTCHAR Ucircumflex
ENCODING 219
SWIDTH 889 0
DWIDTH 39 0
BBX 35 40 2 0
BITMAP
0001F00000
0001F00000
0003B80000
00071C0000
00071C0000
000E0E0000
000E0F0000
0000000000
FC000007E0
FC000007E0
FC000007E0
FC000007E0
FC000007E0
FC000007E0
FC000007E0
FC000007E0
FC000007E0
FC000007E0
FC000007E0
FC000007E0
FC000007E0
FC000007E0
FC000007E0
FC000007E0
FC000007E0
FC000007E0
FC000007E0
FC000007E0
FC000007E0
7E000007E0
7E00000FC0
7F00000FC0
7F80001FC0
3FE0007F80
3FFFFFFF80
1FFFFFFF00
0FFFFFFE00
03FFFFF800
00FFFFE000
001FFF0000
ENDCHAR
STARTCHAR Udieresis
ENCODING 220
SWIDTH 889 0
DWIDTH 39 0
BBX 35 39 2 0
BITMAP
000E0E0000
001F1F0000
001F1F0000
000E0E0000
0000000000
0000000000
0000000000
FC000007E0
FC000007E0
FC000007E0
FC000007E0
FC000007E0
FC000007E0
FC000007E0
FC000007E0
FC000007E0
FC000007E0
FC000007E0
FC000007E0
FC000007E0
FC000007E0
FC000007E0
FC000007E0
FC000007E0
FC000007E0
FC000007E0
FC000007E0
FC000007E0
7E000007E0
7E00000FC0
7F00000FC0
7F80001FC0
3FE0007F80
3FFFFFFF80
1FFFFFFF00
0FFFFFFE00
03FFFFF800
00FFFFE000
001FFF0000
ENDCHAR
STARTCHAR Yacute
ENCODING 221
SWIDTH 926 0
DWIDTH 41 0
BBX 39 40 1 0
BITMAP
0000006000
000003E000
00001FE000
0001FFE000
0001FC0000
0001C00000
0000000000
0000000000
FF000000FE
7F000001FC
3F800003F8
1FC00007F0
1FE0000FE0
0FF0001FC0
07F8001FC0
03F8003F80
01FC007F00
00FE00FE00
007F01FC00
007F83F800
003FC7F000
001FE7F000
000FEFE000
0007FFC000
0003FF8000
0001FF0000
0001FE0000
0000FC0000
00007C0000
00007C0000
00007C0000
00007C0000
00007C0000
00007C0000
00007C0000
00007C0000
00007C0000
00007C0000
00007C0000
00007C0000
ENDCHAR
STARTCHAR Thorn
ENCODING 222
SWIDTH 843 0
DWIDTH 37 0
BBX 33 32 3 0
BITMAP
F800000000
F800000000
F800000000
F800000000
FFFFFC0000
FFFFFFE000
FFFFFFF000
FFFFFFFC00
FFFFFFFC00
FFFFFFFE00
F80000FF00
F800007F00
F800003F00
F800001F80
F800001F80
F800001F80
F800001F80
F800001F80
F800001F80
F800001F00
F800003F00
F800007F00
F87FFFFE00
F87FFFFE00
F87FFFFC00
F87FFFF800
F87FFFE000
F87FFF8000
F800000000
F800000000
F800000000
F800000000
ENDCHAR
STARTCHAR germandbls
ENCODING 223
SWIDTH 1760 0
DWIDTH 77 0
BBX 73 32 2 0
BITMAP
03FFFFFF8007FFFFFF00
0FFFFFFF801FFFFFFF00
1FFFFFFF803FFFFFFF00
3FFFFFFF807FFFFFFF00
7FFFFFFF80FFFFFFFF00
7FFFFFFF80FFFFFFFF00
7E00000001FC00000000
FC00000001F800000000
FC00000001F800000000
FC00000001F800000000
FC00000001F800000000
7E00000001F800000000
7F00000000FE00000000
7FFFFFF800FFFFFFE000
3FFFFFFE007FFFFFFC00
1FFFFFFF003FFFFFFE00
0FFFFFFF801FFFFFFF00
03FFFFFFC007FFFFFF00
0000001FC00000003F80
00000007C00000001F80
00000007E00000000F80
00000007E00000000F80
00000007E00000000F80
00000007E00000000F80
00000007E00000000F80
0000000FC00000001F80
7FFFFFFFC1FFFFFFFF80
7FFFFFFFC1FFFFFFFF00
7FFFFFFF81FFFFFFFF00
7FFFFFFF01FFFFFFFE00
7FFFFFFE01FFFFFFF800
7FFFFFF001FFFFFFE000
ENDCHAR
STARTCHAR agrave
ENCODING 224
SWIDTH 989 0
DWIDTH 44 0
BBX 42 40 1 0
BITMAP
000200000000
0003C0000000
0003FC000000
0003FF800000
00003F800000
000001800000
000000000000
000000000000
00001C000000
00003E000000
00003F000000
00007F000000
0000FF800000
0000FFC00000
0001FFC00000
0001FFE00000
0003F7F00000
0007E3F00000
0007E3F80000
000FC1F80000
001FC0FC0000
001F80FE0000
003F007E0000
003F007F0000
007E003F0000
00FE001F8000
00FC001FC000
01F83FFFC000
01F87FFFE000
03F0FFFFE000
07F0FFFFF000
07E1FFFFF800
0FC00001F800
0FC00001FC00
1F800000FE00
3F800000FE00
3F0000007F00
7F0000003F00
FE0000003F80
FC0000001FC0
ENDCHAR
STARTCHAR aacute
ENCODING 225
SWIDTH 989 0
DWIDTH 44 0
BBX 42 40 1 0
BITMAP
000000300000
000001F00000
00000FF00000
0000FFF00000
0000FF000000
0000E0000000
000000000000
000000000000
00001C000000
00003E000000
00003F000000
00007F000000
0000FF800000
0000FFC00000
0001FFC00000
0001FFE00000
0003F7F00000
0007E3F00000
0007E3F80000
000FC1F80000
001FC0FC0000
001F80FE0000
003F007E0000
003F007F0000
007E003F0000
00FE001F8000
00FC001FC000
01F83FFFC000
01F87FFFE000
03F0FFFFE000
07F0FFFFF000
07E1FFFFF800
0FC00001F800
0FC00001FC00
1F800000FE00
3F800000FE00
3F0000007F00
7F0000003F00
FE0000003F80
FC0000001FC0
ENDCHAR
STARTCHAR acircumflex
ENCODING 226
SWIDTH 989 0
DWIDTH 44 0
BBX 42 40 1 0
BITMAP
00001E000000
00003F000000
000077000000
000073800000
0000E3C00000
0001C1C00000
0001C0E00000
000000000000
00001C000000
00003E000000
00003F000000
00007F000000
0000FF800000
0000FFC00000
0001FFC00000
0001FFE00000
0003F7F00000
0007E3F00000
0007E3F80000
000FC1F80000
001FC0FC0000
001F80FE0000
003F007E0000
003F007F0000
007E003F0000
00FE001F8000
00FC001FC000
01F83FFFC000
01F87FFFE000
03F0FFFFE000
07F0FFFFF000
07E1FFFFF800
0FC00001F800
0FC00001FC00
1F800000FE00
3F800000FE00
3F0000007F00
7F0000003F00
FE0000003F80
FC0000001FC0
ENDCHAR
STARTCHAR atilde
ENCODING 227
SWIDTH 989 0
DWIDTH 44 0
BBX 42 39 1 0
BITMAP
0000F0200000
0001FC400000
00019FC00000
000103800000
000000000000
000000000000
000000000000
00001C000000
00003E000000
00003F000000
00007F000000
0000FF800000
0000FFC00000
0001FFC00000
0001FFE00000
0003F7F00000
0007E3F00000
0007E3F80000
000FC1F80000
001FC0FC0000
001F80FE0000
003F007E0000
003F007F0000
007E003F0000
00FE001F8000
00FC001FC000
01F83FFFC000
01F87FFFE000
03F0FFFFE000
07F0FFFFF000
07E1FFFFF800
0FC00001F800
0FC00001FC00
1F800000FE00
3F800000FE00
3F0000007F00
7F0000003F00
FE0000003F80
FC0000001FC0
ENDCHAR
STARTCHAR adieresis
ENCODING 228
SWIDTH 989 0
DWIDTH 44 0
BBX 42 39 1 0
BITMAP
0001C1C00000
0003E1E00000
0003E1E00000
0001C1C00000
000000000000
000000000000
000000000000
00001C000000
00003E000000
00003F000000
00007F000000
0000FF800000
0000FFC00000
0001FFC00000
0001FFE00000
0003F7F00000
0007E3F00000
0007E3F80000
000FC1F80000
001FC0FC0000
001F80FE0000
003F007E0000
003F007F0000
007E003F0000
00FE001F8000
00FC001FC000
01F83FFFC000
01F87FFFE000
03F0FFFFE000
07F0FFFFF000
07E1FFFFF800
0FC00001F800
0FC00001FC00
1F800000FE00
3F800000FE00
3F0000007F00
7F0000003F00
FE0000003F80
FC0000001FC0
ENDCHAR
STARTCHAR aring
ENCODING 229
SWIDTH 989 0
DWIDTH 44 0
BBX 42 43 1 0
BITMAP
00007F000000
0000FF800000
0001C0C00000
000180400000
000180400000
000180C00000
0000C0C00000
0000FF800000
00007F000000
000000000000
000000000000
00001C000000
00003E000000
00003F000000
00007F000000
0000FF800000
0000FFC00000
0001FFC00000
0001FFE00000
0003F7F00000
0007E3F00000
0007E3F80000
000FC1F80000
001FC0FC0000
001F80FE0000
003F007E0000
003F007F0000
007E003F0000
00FE001F8000
00FC001FC000
01F83FFFC000
01F87FFFE000
03F0FFFFE000
07F0FFFFF000
07E1FFFFF800
0FC00001F800
0FC00001FC00
1F800000FE00
3F800000FE00
3F0000007F00
7F0000003F00
FE0000003F80
FC0000001FC0
ENDCHAR
STARTCHAR ae
ENCODING 230
SWIDTH 1345 0
DWIDTH 59 0
BBX 56 32 1 0
BITMAP
00003FFFFFFFFF
00007FFFFFFFFF
00007FFFFFFFFF
0000FFFFFFFFFF
0000FFFFFFFFFF
0001FFFFFFFFFF
0003F007E00000
0003F007E00000
0007E007E00000
0007E007E00000
000FC007E00000
000FC007E00000
001F8007E00000
003F0007E1FFFE
003F0007E1FFFE
007E0007E1FFFE
007E0007E1FFFE
00FC0007E1FFFE
01FC0007E00000
01F87FFFE00000
03F07FFFE00000
03F0FFFFE00000
07E0FFFFE00000
07E1FFFFE00000
0FC00007E00000
1FC00007E00000
1F800007FFFFFF
3F000007FFFFFF
3F000007FFFFFF
7E000007FFFFFF
FE000007FFFFFF
FC000007FFFFFF
ENDCHAR
STARTCHAR ccedilla
ENCODING 231
SWIDTH 829 0
DWIDTH 36 0
BBX 33 41 2 -9
BITMAP
001FFFFF80
00FFFFFF80
03FFFFFF80
07FFFFFF80
0FFFFFFF80
1FFFFFFF80
3FE0000000
3F80000000
7F00000000
7E00000000
7E00000000
FC00000000
FC00000000
FC00000000
FC00000000
F800000000
F800000000
FC00000000
FC00000000
FC00000000
FC00000000
7E00000000
7E00000000
3F00000000
3F80000000
1FE0000000
0FFFFFFF80
0FFFFFFF80
03FFFFFF80
01FFFFFF80
007FFFFF80
001FFFFF80
0000000000
0000000000
0003F00000
0001E00000
0001E00000
0000E00000
0000C00000
0000400000
0000400000
ENDCHAR
STARTCHAR egrave
ENCODING 232
SWIDTH 759 0
DWIDTH 33 0
BBX 28 40 3 0
BITMAP
01000000
01E00000
01FE0000
01FFC000
001FC000
0000C000
00000000
00000000
FFFFFFF0
FFFFFFF0
FFFFFFF0
FFFFFFF0
FFFFFFF0
FFFFFFF0
F8000000
F8000000
F8000000
F8000000
F8000000
F8000000
F8000000
F87FFFE0
F87FFFE0
F87FFFE0
F87FFFE0
F87FFFE0
F8000000
F8000000
F8000000
F8000000
F8000000
F8000000
F8000000
F8000000
FFFFFFF0
FFFFFFF0
FFFFFFF0
FFFFFFF0
FFFFFFF0
FFFFFFF0
ENDCHAR
STARTCHAR eacute
ENCODING 233
SWIDTH 759 0
DWIDTH 33 0
BBX 28 40 3 0
BITMAP
00001800
0000F800
0007F800
007FF800
007F0000
00700000
00000000
00000000
FFFFFFF0
FFFFFFF0
FFFFFFF0
FFFFFFF0
FFFFFFF0
FFFFFFF0
F8000000
F8000000
F8000000
F8000000
F8000000
F8000000
F8000000
F87FFFE0
F87FFFE0
F87FFFE0
F87FFFE0
F87FFFE0
F8000000
F8000000
F8000000
F8000000
F8000000
F8000000
F8000000
F8000000
FFFFFFF0
FFFFFFF0
FFFFFFF0
FFFFFFF0
FFFFFFF0
FFFFFFF0
ENDCHAR
STARTCHAR ecircumflex
ENCODING 234
SWIDTH 759 0
DWIDTH 33 0
BBX 28 40 3 0
BITMAP
001F0000
001F8000
003B8000
0039C000
0071C000
00E0E000
00E07000
00000000
FFFFFFF0
FFFFFFF0
FFFFFFF0
FFFFFFF0
FFFFFFF0
FFFFFFF0
F8000000
F8000000
F8000000
F8000000
F8000000
F8000000
F8000000
F87FFFE0
F87FFFE0
F87FFFE0
F87FFFE0
F87FFFE0
F8000000
F8000000
F8000000
F8000000
F8000000
F8000000
F8000000
F8000000
FFFFFFF0
FFFFFFF0
FFFFFFF0
FFFFFFF0
FFFFFFF0
FFFFFFF0
ENDCHAR
STARTCHAR edieresis
ENCODING 235
SWIDTH 759 0
DWIDTH 33 0
BBX 28 39 3 0
BITMAP
00E0E000
01F0F000
01F0F000
00E0E000
00000000
00000000
00000000
FFFFFFF0
FFFFFFF0
FFFFFFF0
FFFFFFF0
FFFFFFF0
FFFFFFF0
F8000000
F8000000
F8000000
F8000000
F8000000
F8000000
F8000000
F87FFFE0
F87FFFE0
F87FFFE0
F87FFFE0
F87FFFE0
F8000000
F8000000
F8000000
F8000000
F8000000
F8000000
F8000000
F8000000
FFFFFFF0
FFFFFFF0
FFFFFFF0
FFFFFFF0
FFFFFFF0
FFFFFFF0
ENDCHAR
STARTCHAR igrave
ENCODING 236
SWIDTH 267 0
DWIDTH 12 0
BBX 11 40 -1 0
BITMAP
8000
F800
FF00
FFE0
0FE0
0060
0000
0000
0FC0
0FC0
0FC0
0FC0
0FC0
0FC0
0FC0
0FC0
0FC0
0FC0
0FC0
0FC0
0FC0
0FC0
0FC0
0FC0
0FC0
0FC0
0FC0
0FC0
0FC0
0FC0
0FC0
0FC0
0FC0
0FC0
0FC0
0FC0
0FC0
0FC0
0FC0
0FC0
ENDCHAR
STARTCHAR iacute
ENCODING 237
SWIDTH 267 0
DWIDTH 12 0
BBX 11 40 2 0
BITMAP
0020
03E0
1FE0
FFE0
FE00
C000
0000
0000
7E00
7E00
7E00
7E00
7E00
7E00
7E00
7E00
7E00
7E00
7E00
7E00
7E00
7E00
7E00
7E00
7E00
7E00
7E00
7E00
7E00
7E00
7E00
7E00
7E00
7E00
7E00
7E00
7E00
7E00
7E00
7E00
ENDCHAR
STARTCHAR icircumflex
ENCODING 238
SWIDTH 267 0
DWIDTH 12 0
BBX 12 40 0 0
BITMAP
0F00
1F80
3B80
39C0
70E0
70E0
E070
0000
1F80
1F80
1F80
1F80
1F80
1F80
1F80
1F80
1F80
1F80
1F80
1F80
1F80
1F80
1F80
1F80
1F80
1F80
1F80
1F80
1F80
1F80
1F80
1F80
1F80
1F80
1F80
1F80
1F80
1F80
1F80
1F80
ENDCHAR
STARTCHAR idieresis
ENCODING 239
SWIDTH 267 0
DWIDTH 12 0
BBX 12 39 0 0
BITMAP
E0F0
F0F0
F0F0
E0F0
0000
0000
0000
1F80
1F80
1F80
1F80
1F80
1F80
1F80
1F80
1F80
1F80
1F80
1F80
1F80
1F80
1F80
1F80
1F80
1F80
1F80
1F80
1F80
1F80
1F80
1F80
1F80
1F80
1F80
1F80
1F80
1F80
1F80
1F80
ENDCHAR
STARTCHAR eth
ENCODING 240
SWIDTH 877 0
DWIDTH 39 0
BBX 37 32 0 0
BITMAP
1FFFFF8000
1FFFFFF000
1FFFFFFC00
1FFFFFFE00
1FFFFFFF80
1FFFFFFF80
1F00007FC0
1F00001FE0
1F00000FE0
1F000007F0
1F000003F0
1F000003F0
1F000001F8
FFFFF801F8
FFFFF801F8
FFFFF801F8
FFFFF801F8
FFFFF801F8
1F000001F8
1F000001F0
1F000003F0
1F000003F0
1F000007F0
1F00000FE0
1F00001FE0
1F00007FC0
1FFFFFFF80
1FFFFFFF00
1FFFFFFE00
1FFFFFFC00
1FFFFFF000
1FFFFF8000
ENDCHAR
STARTCHAR ntilde
ENCODING 241
SWIDTH 873 0
DWIDTH 38 0
BBX 33 39 3 0
BITMAP
000E040000
001F8C0000
0011FC0000
0020780000
0000000000
0000000000
0000000000
7000001F80
F800001F80
FC00001F80
FE00001F80
FF00001F80
FF80001F80
FFC0001F80
FFE0001F80
FFF0001F80
FBF8001F80
F9FC001F80
F8FE001F80
F87F001F80
F83F801F80
F81FE01F80
F80FF01F80
F807F81F80
F803FC1F80
F801FE1F80
F800FF1F80
F8007F9F80
F8003FDF80
F8001FFF80
F8000FFF80
F80007FF80
F80003FF80
F80001FF80
F80000FF80
F800007F80
F800003F80
F800001F00
F800000F00
ENDCHAR
STARTCHAR ograve
ENCODING 242
SWIDTH 968 0
DWIDTH 43 0
BBX 39 40 2 0
BITMAP
000C000000
000F800000
000FF00000
000FFF0000
00007F0000
0000070000
0000000000
0000000000
001FFFE000
00FFFFFC00
03FFFFFF00
07FFFFFFC0
0FFFFFFFE0
1FFFFFFFE0
3FE0001FF0
3F800007F8
7F000003F8
7E000001FC
7E000000FC
FC000000FC
FC0000007E
FC0000007E
FC0000007E
F80000007E
F80000007E
FC0000007E
FC0000007E
FC0000007C
FC000000FC
7E000000FC
7E000001FC
3F000003F8
3F800007F8
1FE0001FF0
0FFFFFFFE0
0FFFFFFFC0
03FFFFFF80
01FFFFFF00
007FFFFC00
001FFFE000
ENDCHAR
STARTCHAR oacute
ENCODING 243
SWIDTH 968 0
DWIDTH 43 0
BBX 39 40 2 0
BITMAP
0000004000
000003C000
00003FC000
0001FFC000
0001FC0000
0001800000
0000000000
0000000000
001FFFE000
00FFFFFC00
03FFFFFF00
07FFFFFFC0
0FFFFFFFE0
1FFFFFFFE0
3FE0001FF0
3F800007F8
7F000003F8
7E000001FC
7E000000FC
FC000000FC
FC0000007E
FC0000007E
FC0000007E
F80000007E
F80000007E
FC0000007E
FC0000007E
FC0000007C
FC000000FC
7E000000FC
7E000001FC
3F000003F8
3F800007F8
1FE0001FF0
0FFFFFFFE0
0FFFFFFFC0
03FFFFFF80
01FFFFFF00
007FFFFC00
001FFFE000
ENDCHAR
STARTCHAR ocircumflex
ENCODING 244
SWIDTH 968 0
DWIDTH 43 0
BBX 39 40 2 0
BITMAP
00007C0000
0000FC0000
0000EE0000
0001CE0000
0001C70000
0003838000
0007038000
0000000000
001FFFE000
00FFFFFC00
03FFFFFF00
07FFFFFFC0
0FFFFFFFE0
1FFFFFFFE0
3FE0001FF0
3F800007F8
7F000003F8
7E000001FC
7E000000FC
FC000000FC
FC0000007E
FC0000007E
FC0000007E
F80000007E
F80000007E
FC0000007E
FC0000007E
FC0000007C
FC000000FC
7E000000FC
7E000001FC
3F000003F8
3F800007F8
1FE0001FF0
0FFFFFFFE0
0FFFFFFFC0
03FFFFFF80
01FFFFFF00
007FFFFC00
001FFFE000
ENDCHAR
STARTCHAR otilde
ENCODING 245
SWIDTH 968 0
DWIDTH 43 0
BBX 39 39 2 0
BITMAP
0001C08000
0003F18000
00023F8000
00040F0000
0000000000
0000000000
0000000000
001FFFE000
00FFFFFC00
03FFFFFF00
07FFFFFFC0
0FFFFFFFE0
1FFFFFFFE0
3FE0001FF0
3F800007F8
7F000003F8
7E000001FC
7E000000FC
FC000000FC
FC0000007E
FC0000007E
FC0000007E
F80000007E
F80000007E
FC0000007E
FC0000007E
FC0000007C
FC000000FC
7E000000FC
7E000001FC
3F000003F8
3F800007F8
1FE0001FF0
0FFFFFFFE0
0FFFFFFFC0
03FFFFFF80
01FFFFFF00
007FFFFC00
001FFFE000
ENDCHAR
STARTCHAR odieresis
ENCODING 246
SWIDTH 968 0
DWIDTH 43 0
BBX 39 39 2 0
BITMAP
0003838000
000787C000
000787C000
0003838000
0000000000
0000000000
0000000000
001FFFE000
00FFFFFC00
03FFFFFF00
07FFFFFFC0
0FFFFFFFE0
1FFFFFFFE0
3FE0001FF0
3F800007F8
7F000003F8
7E000001FC
7E000000FC
FC000000FC
FC0000007E
FC0000007E
FC0000007E
F80000007E
F80000007E
FC0000007E
FC0000007E
FC0000007C
FC000000FC
7E000000FC
7E000001FC
3F000003F8
3F800007F8
1FE0001FF0
0FFFFFFFE0
0FFFFFFFC0
03FFFFFF80
01FFFFFF00
007FFFFC00
001FFFE000
ENDCHAR
STARTCHAR divide
ENCODING 247
SWIDTH 690 0
DWIDTH 30 0
BBX 25 29 3 2
BITMAP
00080000
003E0000
007E0000
007E0000
007E0000
003C0000
00000000
00000000
00000000
00000000
00000000
00000000
00000000
FFFFFF80
FFFFFF80
FFFFFF80
FFFFFF80
00000000
00000000
00000000
00000000
00000000
00000000
00080000
003E0000
007E0000
007E0000
007E0000
003C0000
ENDCHAR
STARTCHAR oslash
ENCODING 248
SWIDTH 968 0
DWIDTH 43 0
BBX 39 36 2 -2
BITMAP
0000000040
00000000E0
001FFFE1C0
00FFFFFF80
03FFFFFF80
07FFFFFF80
0FFFFFFFE0
1FFFFFFFE0
3FE0003FF0
3F800077F8
7F000063F8
7E0000E1FC
7E0001C0FC
FC000380FC
FC0007007E
FC000E007E
FC001C007E
F8001C007E
FC0038007E
FC0070007E
FC00E0007E
FC01C0007C
FC038000FC
7E070000FC
7E070001FC
3F0E0003F8
3F9C0007F8
1FF8001FF0
0FFFFFFFE0
0FFFFFFFC0
07FFFFFF80
01FFFFFF00
03FFFFFC00
071FFFE000
0E00000000
0400000000
ENDCHAR
STARTCHAR ugrave
ENCODING 249
SWIDTH 889 0
DWIDTH 39 0
BBX 35 40 2 0
BITMAP
0010000000
001E000000
001FE00000
001FFC0000
0001FC0000
00001C0000
0000000000
0000000000
FC000007E0
FC000007E0
FC000007E0
FC000007E0
FC000007E0
FC000007E0
FC000007E0
FC000007E0
FC000007E0
FC000007E0
FC000007E0
FC000007E0
FC000007E0
FC000007E0
FC000007E0
FC000007E0
FC000007E0
FC000007E0
FC000007E0
FC000007E0
FC000007E0
7E000007E0
7E00000FC0
7F00000FC0
7F80001FC0
3FE0007F80
3FFFFFFF80
1FFFFFFF00
0FFFFFFE00
03FFFFF800
00FFFFE000
001FFF0000
ENDCHAR
STARTCHAR uacute
ENCODING 250
SWIDTH 889 0
DWIDTH 39 0
BBX 35 40 2 0
BITMAP
0000010000
00000F0000
00007F0000
0007FF0000
0007F00000
0007000000
0000000000
0000000000
FC000007E0
FC000007E0
FC000007E0
FC000007E0
FC000007E0
FC000007E0
FC000007E0
FC000007E0
FC000007E0
FC000007E0
FC000007E0
FC000007E0
FC000007E0
FC000007E0
FC000007E0
FC000007E0
FC000007E0
FC000007E0
FC000007E0
FC000007E0
FC000007E0
7E000007E0
7E00000FC0
7F00000FC0
7F80001FC0
3FE0007F80
3FFFFFFF80
1FFFFFFF00
0FFFFFFE00
03FFFFF800
00FFFFE000
001FFF0000
ENDCHAR
STARTCHAR ucircumflex
ENCODING 251
SWIDTH 889 0
DWIDTH 39 0
BBX 35 40 2 0
BITMAP
0001F00000
0001F00000
0003B80000
00071C0000
00071C0000
000E0E0000
000E0F0000
0000000000
FC000007E0
FC000007E0
FC000007E0
FC000007E0
FC000007E0
FC000007E0
FC000007E0
FC000007E0
FC000007E0
FC000007E0
FC000007E0
FC000007E0
FC000007E0
FC000007E0
FC000007E0
FC000007E0
FC000007E0
FC000007E0
FC000007E0
FC000007E0
FC000007E0
7E000007E0
7E00000FC0
7F00000FC0
7F80001FC0
3FE0007F80
3FFFFFFF80
1FFFFFFF00
0FFFFFFE00
03FFFFF800
00FFFFE000
001FFF0000
ENDCHAR
STARTCHAR udieresis
ENCODING 252
SWIDTH 889 0
DWIDTH 39 0
BBX 35 39 2 0
BITMAP
000E0E0000
001F1F0000
001F1F0000
000E0E0000
0000000000
0000000000
0000000000
FC000007E0
FC000007E0
FC000007E0
FC000007E0
FC000007E0
FC000007E0
FC000007E0
FC000007E0
FC000007E0
FC000007E0
FC000007E0
FC000007E0
FC000007E0
FC000007E0
FC000007E0
FC000007E0
FC000007E0
FC000007E0
FC000007E0
FC000007E0
FC000007E0
7E000007E0
7E00000FC0
7F00000FC0
7F80001FC0
3FE0007F80
3FFFFFFF80
1FFFFFFF00
0FFFFFFE00
03FFFFF800
00FFFFE000
001FFF0000
ENDCHAR
STARTCHAR yacute
ENCODING 253
SWIDTH 926 0
DWIDTH 41 0
BBX 39 40 1 0
BITMAP
0000006000
000003E000
00001FE000
0001FFE000
0001FC0000
0001C00000
0000000000
0000000000
FF000000FE
7F000001FC
3F800003F8
1FC00007F0
1FE0000FE0
0FF0001FC0
07F8001FC0
03F8003F80
01FC007F00
00FE00FE00
007F01FC00
007F83F800
003FC7F000
001FE7F000
000FEFE000
0007FFC000
0003FF8000
0001FF0000
0001FE0000
0000FC0000
00007C0000
00007C0000
00007C0000
00007C0000
00007C0000
00007C0000
00007C0000
00007C0000
00007C0000
00007C0000
00007C0000
00007C0000
ENDCHAR
STARTCHAR thorn
ENCODING 254
SWIDTH 843 0
DWIDTH 37 0
BBX 33 32 3 0
BITMAP
F800000000
F800000000
F800000000
F800000000
FFFFFC0000
FFFFFFE000
FFFFFFF000
FFFFFFFC00
FFFFFFFC00
FFFFFFFE00
F80000FF00
F800007F00
F800003F00
F800001F80
F800001F80
F800001F80
F800001F80
F800001F80
F800001F80
F800001F00
F800003F00
F800007F00
F87FFFFE00
F87FFFFE00
F87FFFFC00
F87FFFF800
F87FFFE000
F87FFF8000
F800000000
F800000000
F800000000
F800000000
ENDCHAR
STARTCHAR ydieresis
ENCODING 255
SWIDTH 926 0
DWIDTH 41 0
BBX 39 39 1 0
BITMAP
0003838000
0007C7C000
0007C7C000
0003838000
0000000000
0000000000
0000000000
FF000000FE
7F000001FC
3F800003F8
1FC00007F0
1FE0000FE0
0FF0001FC0
07F8001FC0
03F8003F80
01FC007F00
00FE00FE00
007F01FC00
007F83F800
003FC7F000
001FE7F000
000FEFE000
0007FFC000
0003FF8000
0001FF0000
0001FE0000
0000FC0000
00007C0000
00007C0000
00007C0000
00007C0000
00007C0000
00007C0000
00007C0000
00007C0000
00007C0000
00007C0000
00007C0000
00007C0000
ENDCHAR
STARTCHAR Amacron
ENCODING 256
SWIDTH 989 0
DWIDTH 44 0
BBX 42 39 1 0
BITMAP
0001FFC00000
0001FFC00000
0001FFC00000
000000000000
000000000000
000000000000
000000000000
00001C000000
00003E000000
00003F000000
00007F000000
0000FF800000
0000FFC00000
0001FFC00000
0001FFE00000
0003F7F00000
0007E3F00000
0007E3F80000
000FC1F80000
001FC0FC0000
001F80FE0000
003F007E0000
003F007F0000
007E003F0000
00FE001F8000
00FC001FC000
01F83FFFC000
01F87FFFE000
03F0FFFFE000
07F0FFFFF000
07E1FFFFF800
0FC00001F800
0FC00001FC00
1F800000FE00
3F800000FE00
3F0000007F00
7F0000003F00
FE0000003F80
FC0000001FC0
ENDCHAR
STARTCHAR amacron
ENCODING 257
SWIDTH 989 0
DWIDTH 44 0
BBX 42 39 1 0
BITMAP
0001FFC00000
0001FFC00000
0001FFC00000
000000000000
000000000000
000000000000
000000000000
00001C000000
00003E000000
00003F000000
00007F000000
0000FF800000
0000FFC00000
0001FFC00000
0001FFE00000
0003F7F00000
0007E3F00000
0007E3F80000
000FC1F80000
001FC0FC0000
001F80FE0000
003F007E0000
003F007F0000
007E003F0000
00FE001F8000
00FC001FC000
01F83FFFC000
01F87FFFE000
03F0FFFFE000
07F0FFFFF000
07E1FFFFF800
0FC00001F800
0FC00001FC00
1F800000FE00
3F800000FE00
3F0000007F00
7F0000003F00
FE0000003F80
FC0000001FC0
ENDCHAR
STARTCHAR Abreve
ENCODING 258
SWIDTH 989 0
DWIDTH 44 0
BBX 42 40 1 0
BITMAP
0001C0E00000
0001C0E00000
0001C1C00000
0000E1C00000
0000FF800000
00003F000000
000000000000
000000000000
00001C000000
00003E000000
00003F000000
00007F000000
0000FF800000
0000FFC00000
0001FFC00000
0001FFE00000
0003F7F00000
0007E3F00000
0007E3F80000
000FC1F80000
001FC0FC0000
001F80FE0000
003F007E0000
003F007F0000
007E003F0000
00FE001F8000
00FC001FC000
01F83FFFC000
01F87FFFE000
03F0FFFFE000
07F0FFFFF000
07E1FFFFF800
0FC00001F800
0FC00001FC00
1F800000FE00
3F800000FE00
3F0000007F00
7F0000003F00
FE0000003F80
FC0000001FC0
ENDCHAR
STARTCHAR abreve
ENCODING 259
SWIDTH 989 0
DWIDTH 44 0
BBX 42 40 1 0
BITMAP
0001C0E00000
0001C0E00000
0001C1C00000
0000E1C00000
0000FF800000
00003F000000
000000000000
000000000000
00001C000000
00003E000000
00003F000000
00007F000000
0000FF800000
0000FFC00000
0001FFC00000
0001FFE00000
0003F7F00000
0007E3F00000
0007E3F80000
000FC1F80000
001FC0FC0000
001F80FE0000
003F007E0000
003F007F0000
007E003F0000
00FE001F8000
00FC001FC000
01F83FFFC000
01F87FFFE000
03F0FFFFE000
07F0FFFFF000
07E1FFFFF800
0FC00001F800
0FC00001FC00
1F800000FE00
3F800000FE00
3F0000007F00
7F0000003F00
FE0000003F80
FC0000001FC0
ENDCHAR
STARTCHAR Aogonek
ENCODING 260
SWIDTH 989 0
DWIDTH 44 0
BBX 42 41 1 -9
BITMAP
00001C000000
00003E000000
00003F000000
00007F000000
0000FF800000
0000FFC00000
0001FFC00000
0001FFE00000
0003F7F00000
0007E3F00000
0007E3F80000
000FC1F80000
001FC0FC0000
001F80FE0000
003F007E0000
003F007F0000
007E003F0000
00FE001F8000
00FC001FC000
01F83FFFC000
01F87FFFE000
03F0FFFFE000
07F0FFFFF000
07E1FFFFF800
0FC00001F800
0FC00001FC00
1F800000FE00
3F800000FE00
3F0000007F00
7F0000003F00
FE0000003F80
FC0000001FC0
000000000180
000000000700
000000001C00
000000003800
000000003800
000000003FC0
000000003FC0
000000003FC0
000000001FC0
ENDCHAR
STARTCHAR aogonek
ENCODING 261
SWIDTH 989 0
DWIDTH 44 0
BBX 42 41 1 -9
BITMAP
00001C000000
00003E000000
00003F000000
00007F000000
0000FF800000
0000FFC00000
0001FFC00000
0001FFE00000
0003F7F00000
0007E3F00000
0007E3F80000
000FC1F80000
001FC0FC0000
001F80FE0000
003F007E0000
003F007F0000
007E003F0000
00FE001F8000
00FC001FC000
01F83FFFC000
01F87FFFE000
03F0FFFFE000
07F0FFFFF000
07E1FFFFF800
0FC00001F800
0FC00001FC00
1F800000FE00
3F800000FE00
3F0000007F00
7F0000003F00
FE0000003F80
FC0000001FC0
000000000180
000000000700
000000001C00
000000003800
000000003800
000000003FC0
000000003FC0
000000003FC0
000000001FC0
ENDCHAR
STARTCHAR Cacute
ENCODING 262
SWIDTH 829 0
DWIDTH 36 0
BBX 33 40 2 0
BITMAP
0000008000
0000078000
00007F8000
0003FF8000
0003F80000
0003800000
0000000000
0000000000
001FFFFF80
00FFFFFF80
03FFFFFF80
07FFFFFF80
0FFFFFFF80
1FFFFFFF80
3FE0000000
3F80000000
7F00000000
7E00000000
7E00000000
FC00000000
FC00000000
FC00000000
FC00000000
F800000000
F800000000
FC00000000
FC00000000
FC00000000
FC00000000
7E00000000
7E00000000
3F00000000
3F80000000
1FE0000000
0FFFFFFF80
0FFFFFFF80
03FFFFFF80
01FFFFFF80
007FFFFF80
001FFFFF80
ENDCHAR
STARTCHAR cacute
ENCODING 263
SWIDTH 829 0
DWIDTH 36 0
BBX 33 40 2 0
BITMAP
0000008000
0000078000
00007F8000
0003FF8000
0003F80000
0003800000
0000000000
0000000000
001FFFFF80
00FFFFFF80
03FFFFFF80
07FFFFFF80
0FFFFFFF80
1FFFFFFF80
3FE0000000
3F80000000
7F00000000
7E00000000
7E00000000
FC00000000
FC00000000
FC00000000
FC00000000
F800000000
F800000000
FC00000000
FC00000000
FC00000000
FC00000000
7E00000000
7E00000000
3F00000000
3F80000000
1FE0000000
0FFFFFFF80
0FFFFFFF80
03FFFFFF80
01FFFFFF80
007FFFFF80
001FFFFF80
ENDCHAR
STARTCHAR Cdotaccent
ENCODING 266
SWIDTH 829 0
DWIDTH 36 0
BBX 33 39 2 0
BITMAP
0000700000
0000780000
0000780000
0000700000
0000000000
0000000000
0000000000
001FFFFF80
00FFFFFF80
03FFFFFF80
07FFFFFF80
0FFFFFFF80
1FFFFFFF80
3FE0000000
3F80000000
7F00000000
7E00000000
7E00000000
FC00000000
FC00000000
FC00000000
FC00000000
F800000000
F800000000
FC00000000
FC00000000
FC00000000
FC00000000
7E00000000
7E00000000
3F00000000
3F80000000
1FE0000000
0FFFFFFF80
0FFFFFFF80
03FFFFFF80
01FFFFFF80
007FFFFF80
001FFFFF80
ENDCHAR
STARTCHAR cdotaccent
ENCODING 267
SWIDTH 829 0
DWIDTH 36 0
BBX 33 39 2 0
BITMAP
0000700000
0000780000
0000780000
0000700000
0000000000
0000000000
0000000000
001FFFFF80
00FFFFFF80
03FFFFFF80
07FFFFFF80
0FFFFFFF80
1FFFFFFF80
3FE0000000
3F80000000
7F00000000
7E00000000
7E00000000
FC00000000
FC00000000
FC00000000
FC00000000
F800000000
F800000000
FC00000000
FC00000000
FC00000000
FC00000000
7E00000000
7E00000000
3F00000000
3F80000000
1FE0000000
0FFFFFFF80
0FFFFFFF80
03FFFFFF80
01FFFFFF80
007FFFFF80
001FFFFF80
ENDCHAR
STARTCHAR Ccaron
ENCODING 268
SWIDTH 829 0
DWIDTH 36 0
BBX 33 40 2 0
BITMAP
000F070000
00070E0000
00038E0000
0001DC0000
0001F80000
0000F80000
0000000000
0000000000
001FFFFF80
00FFFFFF80
03FFFFFF80
07FFFFFF80
0FFFFFFF80
1FFFFFFF80
3FE0000000
3F80000000
7F00000000
7E00000000
7E00000000
FC00000000
FC00000000
FC00000000
FC00000000
F800000000
F800000000
FC00000000
FC00000000
FC00000000
FC00000000
7E00000000
7E00000000
3F00000000
3F80000000
1FE0000000
0FFFFFFF80
0FFFFFFF80
03FFFFFF80
01FFFFFF80
007FFFFF80
001FFFFF80
ENDCHAR
STARTCHAR ccaron
ENCODING 269
SWIDTH 829 0
DWIDTH 36 0
BBX 33 40 2 0
BITMAP
000F070000
00070E0000
00038E0000
0001DC0000
0001F80000
0000F80000
0000000000
0000000000
001FFFFF80
00FFFFFF80
03FFFFFF80
07FFFFFF80
0FFFFFFF80
1FFFFFFF80
3FE0000000
3F80000000
7F00000000
7E00000000
7E00000000
FC00000000
FC00000000
FC00000000
FC00000000
F800000000
F800000000
FC00000000
FC00000000
FC00000000
FC00000000
7E00000000
7E00000000
3F00000000
3F80000000
1FE0000000
0FFFFFFF80
0FFFFFFF80
03FFFFFF80
01FFFFFF80
007FFFFF80
001FFFFF80
ENDCHAR
STARTCHAR Dcaron
ENCODING 270
SWIDTH 879 0
DWIDTH 39 0
BBX 34 40 3 0
BITMAP
0070780000
0038F00000
0038E00000
001DC00000
000FC00000
000F800000
0000000000
0000000000
FFFFFE0000
FFFFFF8000
FFFFFFE000
FFFFFFF800
FFFFFFFC00
FFFFFFFC00
F80001FE00
F80000FF00
F800007F00
F800003F80
F800001F80
F800001F80
F800000FC0
F800000FC0
F800000FC0
F800000FC0
F800000FC0
F800000FC0
F800000FC0
F800000F80
F800001F80
F800001F80
F800003F80
F800007F00
F80000FF00
F80001FE00
FFFFFFFC00
FFFFFFF800
FFFFFFF000
FFFFFFE000
FFFFFF8000
FFFFFC0000
ENDCHAR
STARTCHAR dcaron
ENCODING 271
SWIDTH 879 0
DWIDTH 39 0
BBX 34 40 3 0
BITMAP
0070780000
0038F00000
0038E00000
001DC00000
000FC00000
000F800000
0000000000
0000000000
FFFFFE0000
FFFFFF8000
FFFFFFE000
FFFFFFF800
FFFFFFFC00
FFFFFFFC00
F80001FE00
F80000FF00
F800007F00
F800003F80
F800001F80
F800001F80
F800000FC0
F800000FC0
F800000FC0
F800000FC0
F800000FC0
F800000FC0
F800000FC0
F800000F80
F800001F80
F800001F80
F800003F80
F800007F00
F80000FF00
F80001FE00
FFFFFFFC00
FFFFFFF800
FFFFFFF000
FFFFFFE000
FFFFFF8000
FFFFFC0000
ENDCHAR
STARTCHAR Dcroat
ENCODING 272
SWIDTH 877 0
DWIDTH 39 0
BBX 37 32 0 0
BITMAP
1FFFFF8000
1FFFFFF000
1FFFFFFC00
1FFFFFFE00
1FFFFFFF80
1FFFFFFF80
1F00007FC0
1F00001FE0
1F00000FE0
1F000007F0
1F000003F0
1F000003F0
1F000001F8
FFFFF801F8
FFFFF801F8
FFFFF801F8
FFFFF801F8
FFFFF801F8
1F000001F8
1F000001F0
1F000003F0
1F000003F0
1F000007F0
1F00000FE0
1F00001FE0
1F00007FC0
1FFFFFFF80
1FFFFFFF00
1FFFFFFE00
1FFFFFFC00
1FFFFFF000
1FFFFF8000
ENDCHAR
STARTCHAR dcroat
ENCODING 273
SWIDTH 877 0
DWIDTH 39 0
BBX 37 32 0 0
BITMAP
1FFFFF8000
1FFFFFF000
1FFFFFFC00
1FFFFFFE00
1FFFFFFF80
1FFFFFFF80
1F00007FC0
1F00001FE0
1F00000FE0
1F000007F0
1F000003F0
1F000003F0
1F000001F8
FFFFF801F8
FFFFF801F8
FFFFF801F8
FFFFF801F8
FFFFF801F8
1F000001F8
1F000001F0
1F000003F0
1F000003F0
1F000007F0
1F00000FE0
1F00001FE0
1F00007FC0
1FFFFFFF80
1FFFFFFF00
1FFFFFFE00
1FFFFFFC00
1FFFFFF000
1FFFFF8000
ENDCHAR
STARTCHAR Emacron
ENCODING 274
SWIDTH 759 0
DWIDTH 33 0
BBX 28 39 3 0
BITMAP
00FFE000
00FFE000
00FFE000
00000000
00000000
00000000
00000000
FFFFFFF0
FFFFFFF0
FFFFFFF0
FFFFFFF0
FFFFFFF0
FFFFFFF0
F8000000
F8000000
F8000000
F8000000
F8000000
F8000000
F8000000
F87FFFE0
F87FFFE0
F87FFFE0
F87FFFE0
F87FFFE0
F8000000
F8000000
F8000000
F8000000
F8000000
F8000000
F8000000
F8000000
FFFFFFF0
FFFFFFF0
FFFFFFF0
FFFFFFF0
FFFFFFF0
FFFFFFF0
ENDCHAR
STARTCHAR emacron
ENCODING 275
SWIDTH 759 0
DWIDTH 33 0
BBX 28 39 3 0
BITMAP
00FFE000
00FFE000
00FFE000
00000000
00000000
00000000
00000000
FFFFFFF0
FFFFFFF0
FFFFFFF0
FFFFFFF0
FFFFFFF0
FFFFFFF0
F8000000
F8000000
F8000000
F8000000
F8000000
F8000000
F8000000
F87FFFE0
F87FFFE0
F87FFFE0
F87FFFE0
F87FFFE0
F8000000
F8000000
F8000000
F8000000
F8000000
F8000000
F8000000
F8000000
FFFFFFF0
FFFFFFF0
FFFFFFF0
FFFFFFF0
FFFFFFF0
FFFFFFF0
ENDCHAR
STARTCHAR Ebreve
ENCODING 276
SWIDTH 759 0
DWIDTH 33 0
BBX 28 40 3 0
BITMAP
00E07000
00E07000
00E0E000
0070E000
007FC000
003F8000
00000000
00000000
FFFFFFF0
FFFFFFF0
FFFFFFF0
FFFFFFF0
FFFFFFF0
FFFFFFF0
F8000000
F8000000
F8000000
F8000000
F8000000
F8000000
F8000000
F87FFFE0
F87FFFE0
F87FFFE0
F87FFFE0
F87FFFE0
F8000000
F8000000
F8000000
F8000000
F8000000
F8000000
F8000000
F8000000
FFFFFFF0
FFFFFFF0
FFFFFFF0
FFFFFFF0
FFFFFFF0
FFFFFFF0
ENDCHAR
STARTCHAR ebreve
ENCODING 277
SWIDTH 759 0
DWIDTH 33 0
BBX 28 40 3 0
BITMAP
00E07000
00E07000
00E0E000
0070E000
007FC000
003F8000
00000000
00000000
FFFFFFF0
FFFFFFF0
FFFFFFF0
FFFFFFF0
FFFFFFF0
FFFFFFF0
F8000000
F8000000
F8000000
F8000000
F8000000
F8000000
F8000000
F87FFFE0
F87FFFE0
F87FFFE0
F87FFFE0
F87FFFE0
F8000000
F8000000
F8000000
F8000000
F8000000
F8000000
F8000000
F8000000
FFFFFFF0
FFFFFFF0
FFFFFFF0
FFFFFFF0
FFFFFFF0
FFFFFFF0
ENDCHAR
STARTCHAR Edotaccent
ENCODING 278
SWIDTH 759 0
DWIDTH 33 0
BBX 28 39 3 0
BITMAP
000E0000
001F0000
001F0000
000E0000
00000000
00000000
00000000
FFFFFFF0
FFFFFFF0
FFFFFFF0
FFFFFFF0
FFFFFFF0
FFFFFFF0
F8000000
F8000000
F8000000
F8000000
F8000000
F8000000
F8000000
F87FFFE0
F87FFFE0
F87FFFE0
F87FFFE0
F87FFFE0
F8000000
F8000000
F8000000
F8000000
F8000000
F8000000
F8000000
F8000000
FFFFFFF0
FFFFFFF0
FFFFFFF0
FFFFFFF0
FFFFFFF0
FFFFFFF0
ENDCHAR
STARTCHAR edotaccent
ENCODING 279
SWIDTH 759 0
DWIDTH 33 0
BBX 28 39 3 0
BITMAP
000E0000
001F0000
001F0000
000E0000
00000000
00000000
00000000
FFFFFFF0
FFFFFFF0
FFFFFFF0
FFFFFFF0
FFFFFFF0
FFFFFFF0
F8000000
F8000000
F8000000
F8000000
F8000000
F8000000
F8000000
F87FFFE0
F87FFFE0
F87FFFE0
F87FFFE0
F87FFFE0
F8000000
F8000000
F8000000
F8000000
F8000000
F8000000
F8000000
F8000000
FFFFFFF0
FFFFFFF0
FFFFFFF0
FFFFFFF0
FFFFFFF0
FFFFFFF0
ENDCHAR
STARTCHAR Eogonek
ENCODING 280
SWIDTH 759 0
DWIDTH 33 0
BBX 28 41 3 -9
BITMAP
FFFFFFF0
FFFFFFF0
FFFFFFF0
FFFFFFF0
FFFFFFF0
FFFFFFF0
F8000000
F8000000
F8000000
F8000000
F8000000
F8000000
F8000000
F87FFFE0
F87FFFE0
F87FFFE0
F87FFFE0
F87FFFE0
F8000000
F8000000
F8000000
F8000000
F8000000
F8000000
F8000000
F8000000
FFFFFFF0
FFFFFFF0
FFFFFFF0
FFFFFFF0
FFFFFFF0
FFFFFFF0
00000070
000000C0
00000380
00000600
00000F00
00000FF0
00000FF0
000007F0
000003F0
ENDCHAR
STARTCHAR eogonek
ENCODING 281
SWIDTH 759 0
DWIDTH 33 0
BBX 28 41 3 -9
BITMAP
FFFFFFF0
FFFFFFF0
FFFFFFF0
FFFFFFF0
FFFFFFF0
FFFFFFF0
F8000000
F8000000
F8000000
F8000000
F8000000
F8000000
F8000000
F87FFFE0
F87FFFE0
F87FFFE0
F87FFFE0
F87FFFE0
F8000000
F8000000
F8000000
F8000000
F8000000
F8000000
F8000000
F8000000
FFFFFFF0
FFFFFFF0
FFFFFFF0
FFFFFFF0
FFFFFFF0
FFFFFFF0
00000070
000000C0
00000380
00000600
00000F00
00000FF0
00000FF0
000007F0
000003F0
ENDCHAR
STARTCHAR Ecaron
ENCODING 282
SWIDTH 759 0
DWIDTH 33 0
BBX 28 40 3 0
BITMAP
00E0F000
0070E000
0071C000
003B8000
001F8000
001F0000
00000000
00000000
FFFFFFF0
FFFFFFF0
FFFFFFF0
FFFFFFF0
FFFFFFF0
FFFFFFF0
F8000000
F8000000
F8000000
F8000000
F8000000
F8000000
F8000000
F87FFFE0
F87FFFE0
F87FFFE0
F87FFFE0
F87FFFE0
F8000000
F8000000
F8000000
F8000000
F8000000
F8000000
F8000000
F8000000
FFFFFFF0
FFFFFFF0
FFFFFFF0
FFFFFFF0
FFFFFFF0
FFFFFFF0
ENDCHAR
STARTCHAR ecaron
ENCODING 283
SWIDTH 759 0
DWIDTH 33 0
BBX 28 40 3 0
BITMAP
00E0F000
0070E000
0071C000
003B8000
001F8000
001F0000
00000000
00000000
FFFFFFF0
FFFFFFF0
FFFFFFF0
FFFFFFF0
FFFFFFF0
FFFFFFF0
F8000000
F8000000
F8000000
F8000000
F8000000
F8000000
F8000000
F87FFFE0
F87FFFE0
F87FFFE0
F87FFFE0
F87FFFE0
F8000000
F8000000
F8000000
F8000000
F8000000
F8000000
F8000000
F8000000
FFFFFFF0
FFFFFFF0
FFFFFFF0
FFFFFFF0
FFFFFFF0
FFFFFFF0
ENDCHAR
STARTCHAR Gbreve
ENCODING 286
SWIDTH 888 0
DWIDTH 39 0
BBX 35 40 2 0
BITMAP
0007038000
0007038000
0007070000
0003870000
0003FE0000
0000FC0000
0000000000
0000000000
001FFFFF80
00FFFFFF80
03FFFFFF80
07FFFFFF80
0FFFFFFF80
1FFFFFFF80
3FE0000000
3F80000000
7F00000000
7E00000000
7E00000000
FC00000000
FC00000000
FC01FFFFE0
FC01FFFFE0
F801FFFFE0
F801FFFFE0
FC01FFFFE0
FC000007E0
FC000007E0
FC000007E0
7E000007E0
7E000007E0
3F000007E0
3F800007E0
1FE00007E0
0FFFFFFFE0
0FFFFFFFE0
03FFFFFFE0
01FFFFFFE0
007FFFFFE0
001FFFFFE0
ENDCHAR
STARTCHAR gbreve
ENCODING 287
SWIDTH 888 0
DWIDTH 39 0
BBX 35 40 2 0
BITMAP
0007038000
0007038000
0007070000
0003870000
0003FE0000
0000FC0000
0000000000
0000000000
001FFFFF80
00FFFFFF80
03FFFFFF80
07FFFFFF80
0FFFFFFF80
1FFFFFFF80
3FE0000000
3F80000000
7F00000000
7E00000000
7E00000000
FC00000000
FC00000000
FC01FFFFE0
FC01FFFFE0
F801FFFFE0
F801FFFFE0
FC01FFFFE0
FC000007E0
FC000007E0
FC000007E0
7E000007E0
7E000007E0
3F000007E0
3F800007E0
1FE00007E0
0FFFFFFFE0
0FFFFFFFE0
03FFFFFFE0
01FFFFFFE0
007FFFFFE0
001FFFFFE0
ENDCHAR
STARTCHAR Gdotaccent
ENCODING 288
SWIDTH 888 0
DWIDTH 39 0
BBX 35 39 2 0
BITMAP
0000380000
0000780000
00007C0000
0000380000
0000000000
0000000000
0000000000
001FFFFF80
00FFFFFF80
03FFFFFF80
07FFFFFF80
0FFFFFFF80
1FFFFFFF80
3FE0000000
3F80000000
7F00000000
7E00000000
7E00000000
FC00000000
FC00000000
FC01FFFFE0
FC01FFFFE0
F801FFFFE0
F801FFFFE0
FC01FFFFE0
FC000007E0
FC000007E0
FC000007E0
7E000007E0
7E000007E0
3F000007E0
3F800007E0
1FE00007E0
0FFFFFFFE0
0FFFFFFFE0
03FFFFFFE0
01FFFFFFE0
007FFFFFE0
001FFFFFE0
ENDCHAR
STARTCHAR gdotaccent
ENCODING 289
SWIDTH 888 0
DWIDTH 39 0
BBX 35 39 2 0
BITMAP
0000380000
0000780000
00007C0000
0000380000
0000000000
0000000000
0000000000
001FFFFF80
00FFFFFF80
03FFFFFF80
07FFFFFF80
0FFFFFFF80
1FFFFFFF80
3FE0000000
3F80000000
7F00000000
7E00000000
7E00000000
FC00000000
FC00000000
FC01FFFFE0
FC01FFFFE0
F801FFFFE0
F801FFFFE0
FC01FFFFE0
FC000007E0
FC000007E0
FC000007E0
7E000007E0
7E000007E0
3F000007E0
3F800007E0
1FE00007E0
0FFFFFFFE0
0FFFFFFFE0
03FFFFFFE0
01FFFFFFE0
007FFFFFE0
001FFFFFE0
ENDCHAR
STARTCHAR Gcommaaccent
ENCODING 290
SWIDTH 888 0
DWIDTH 39 0
BBX 35 41 2 -9
BITMAP
001FFFFF80
00FFFFFF80
03FFFFFF80
07FFFFFF80
0FFFFFFF80
1FFFFFFF80
3FE0000000
3F80000000
7F00000000
7E00000000
7E00000000
FC00000000
FC00000000
FC01FFFFE0
FC01FFFFE0
F801FFFFE0
F801FFFFE0
FC01FFFFE0
FC000007E0
FC000007E0
FC000007E0
7E000007E0
7E000007E0
3F000007E0
3F800007E0
1FE00007E0
0FFFFFFFE0
0FFFFFFFE0
03FFFFFFE0
01FFFFFFE0
007FFFFFE0
001FFFFFE0
0000000000
0000000000
0001F80000
0000F00000
0000F00000
0000600000
0000600000
0000600000
0000400000
ENDCHAR
STARTCHAR gcommaaccent
ENCODING 291
SWIDTH 888 0
DWIDTH 39 0
BBX 35 41 2 -9
BITMAP
001FFFFF80
00FFFFFF80
03FFFFFF80
07FFFFFF80
0FFFFFFF80
1FFFFFFF80
3FE0000000
3F80000000
7F00000000
7E00000000
7E00000000
FC00000000
FC00000000
FC01FFFFE0
FC01FFFFE0
F801FFFFE0
F801FFFFE0
FC01FFFFE0
FC000007E0
FC000007E0
FC000007E0
7E000007E0
7E000007E0
3F000007E0
3F800007E0
1FE00007E0
0FFFFFFFE0
0FFFFFFFE0
03FFFFFFE0
01FFFFFFE0
007FFFFFE0
001FFFFFE0
0000000000
0000000000
0001F80000
0000F00000
0000F00000
0000600000
0000600000
0000600000
0000400000
ENDCHAR
STARTCHAR Hbar
ENCODING 294
SWIDTH 838 0
DWIDTH 37 0
BBX 31 32 3 0
BITMAP
F800003E
F800003E
F800003E
F800003E
F800003E
F87FFFFE
F87FFFFE
F87FFFFE
F800003E
F800003E
F800003E
F800003E
F800003E
F87FFFFE
F87FFFFE
F87FFFFE
F87FFFFE
F87FFFFE
F87FFFFE
F800003E
F800003E
F800003E
F800003E
F800003E
F800003E
F800003E
F800003E
F800003E
F800003E
F800003E
F800003E
F800003E
ENDCHAR
STARTCHAR hbar
ENCODING 295
SWIDTH 838 0
DWIDTH 37 0
BBX 31 32 3 0
BITMAP
F800003E
F800003E
F800003E
F800003E
F800003E
F87FFFFE
F87FFFFE
F87FFFFE
F800003E
F800003E
F800003E
F800003E
F800003E
F87FFFFE
F87FFFFE
F87FFFFE
F87FFFFE
F87FFFFE
F87FFFFE
F800003E
F800003E
F800003E
F800003E
F800003E
F800003E
F800003E
F800003E
F800003E
F800003E
F800003E
F800003E
F800003E
ENDCHAR
STARTCHAR uni012A
ENCODING 298
SWIDTH 267 0
DWIDTH 12 0
BBX 12 39 0 0
BITMAP
FFF0
FFF0
FFF0
0000
0000
0000
0000
1F80
1F80
1F80
1F80
1F80
1F80
1F80
1F80
1F80
1F80
1F80
1F80
1F80
1F80
1F80
1F80
1F80
1F80
1F80
1F80
1F80
1F80
1F80
1F80
1F80
1F80
1F80
1F80
1F80
1F80
1F80
1F80
ENDCHAR
STARTCHAR imacron
ENCODING 299
SWIDTH 267 0
DWIDTH 12 0
BBX 12 39 0 0
BITMAP
FFF0
FFF0
FFF0
0000
0000
0000
0000
1F80
1F80
1F80
1F80
1F80
1F80
1F80
1F80
1F80
1F80
1F80
1F80
1F80
1F80
1F80
1F80
1F80
1F80
1F80
1F80
1F80
1F80
1F80
1F80
1F80
1F80
1F80
1F80
1F80
1F80
1F80
1F80
ENDCHAR
STARTCHAR Ibreve
ENCODING 300
SWIDTH 267 0
DWIDTH 12 0
BBX 12 40 0 0
BITMAP
E070
E070
E070
70E0
7FC0
1F80
0000
0000
1F80
1F80
1F80
1F80
1F80
1F80
1F80
1F80
1F80
1F80
1F80
1F80
1F80
1F80
1F80
1F80
1F80
1F80
1F80
1F80
1F80
1F80
1F80
1F80
1F80
1F80
1F80
1F80
1F80
1F80
1F80
1F80
ENDCHAR
STARTCHAR ibreve
ENCODING 301
SWIDTH 267 0
DWIDTH 12 0
BBX 12 40 0 0
BITMAP
E070
E070
E070
70E0
7FC0
1F80
0000
0000
1F80
1F80
1F80
1F80
1F80
1F80
1F80
1F80
1F80
1F80
1F80
1F80
1F80
1F80
1F80
1F80
1F80
1F80
1F80
1F80
1F80
1F80
1F80
1F80
1F80
1F80
1F80
1F80
1F80
1F80
1F80
1F80
ENDCHAR
STARTCHAR Iogonek
ENCODING 302
SWIDTH 267 0
DWIDTH 12 0
BBX 9 41 0 -9
BITMAP
1F80
1F80
1F80
1F80
1F80
1F80
1F80
1F80
1F80
1F80
1F80
1F80
1F80
1F80
1F80
1F80
1F80
1F80
1F80
1F80
1F80
1F80
1F80
1F80
1F80
1F80
1F80
1F80
1F80
1F80
1F80
1F80
0700
0C00
3800
7000
7000
FF80
FF80
7F80
3F80
ENDCHAR
STARTCHAR iogonek
ENCODING 303
SWIDTH 267 0
DWIDTH 12 0
BBX 9 41 0 -9
BITMAP
1F80
1F80
1F80
1F80
1F80
1F80
1F80
1F80
1F80
1F80
1F80
1F80
1F80
1F80
1F80
1F80
1F80
1F80
1F80
1F80
1F80
1F80
1F80
1F80
1F80
1F80
1F80
1F80
1F80
1F80
1F80
1F80
0700
0C00
3800
7000
7000
FF80
FF80
7F80
3F80
ENDCHAR
STARTCHAR Idotaccent
ENCODING 304
SWIDTH 267 0
DWIDTH 12 0
BBX 6 39 3 0
BITMAP
70
78
78
70
00
00
00
FC
FC
FC
FC
FC
FC
FC
FC
FC
FC
FC
FC
FC
FC
FC
FC
FC
FC
FC
FC
FC
FC
FC
FC
FC
FC
FC
FC
FC
FC
FC
FC
ENDCHAR
STARTCHAR dotlessi
ENCODING 305
SWIDTH 267 0
DWIDTH 12 0
BBX 6 32 3 0
BITMAP
FC
FC
FC
FC
FC
FC
FC
FC
FC
FC
FC
FC
FC
FC
FC
FC
FC
FC
FC
FC
FC
FC
FC
FC
FC
FC
FC
FC
FC
FC
FC
FC
ENDCHAR
STARTCHAR IJ
ENCODING 306
SWIDTH 975 0
DWIDTH 43 0
BBX 38 32 3 0
BITMAP
FC000000FC
FC000000FC
FC000000FC
FC000000FC
FC000000FC
FC000000FC
FC000000FC
FC000000FC
FC000000FC
FC000000FC
FC000000FC
FC000000FC
FC000000FC
FC000000FC
FC000000FC
FC000000FC
FC000000FC
FC000000FC
FC000000FC
FC000000FC
FC000000F8
FC000001F8
FC000001F8
FC000003F8
FC000007F0
FC00001FF0
FC3FFFFFE0
FC3FFFFFE0
FC3FFFFFC0
FC3FFFFF00
FC3FFFFE00
FC3FFFE000
ENDCHAR
STARTCHAR ij
ENCODING 307
SWIDTH 975 0
DWIDTH 43 0
BBX 38 32 3 0
BITMAP
FC000000FC
FC000000FC
FC000000FC
FC000000FC
FC000000FC
FC000000FC
FC000000FC
FC000000FC
FC000000FC
FC000000FC
FC000000FC
FC000000FC
FC000000FC
FC000000FC
FC000000FC
FC000000FC
FC000000FC
FC000000FC
FC000000FC
FC000000FC
FC000000F8
FC000001F8
FC000001F8
FC000003F8
FC000007F0
FC00001FF0
FC3FFFFFE0
FC3FFFFFE0
FC3FFFFFC0
FC3FFFFF00
FC3FFFFE00
FC3FFFE000
ENDCHAR
STARTCHAR Kcommaaccent
ENCODING 310
SWIDTH 875 0
DWIDTH 39 0
BBX 35 41 3 -9
BITMAP
F800007FC0
F80001FF00
F80003FE00
F80007F800
F8000FF000
F8003FE000
F8007F8000
F800FF0000
F803FE0000
F807F80000
F80FF00000
F83FE00000
F87F800000
F8FF000000
F9FE000000
F9F8000000
F9FC000000
F8FF000000
F87F800000
F83FC00000
F81FF00000
F807F80000
F803FC0000
F801FE0000
F8007F8000
F8003FC000
F8001FE000
F8000FF800
F80003FC00
F80001FE00
F80000FF80
F800007FE0
0000000000
0000000000
0007E00000
0003E00000
0003C00000
0001C00000
0001800000
0000800000
0000800000
ENDCHAR
STARTCHAR kcommaaccent
ENCODING 311
SWIDTH 875 0
DWIDTH 39 0
BBX 35 41 3 -9
BITMAP
F800007FC0
F80001FF00
F80003FE00
F80007F800
F8000FF000
F8003FE000
F8007F8000
F800FF0000
F803FE0000
F807F80000
F80FF00000
F83FE00000
F87F800000
F8FF000000
F9FE000000
F9F8000000
F9FC000000
F8FF000000
F87F800000
F83FC00000
F81FF00000
F807F80000
F803FC0000
F801FE0000
F8007F8000
F8003FC000
F8001FE000
F8000FF800
F80003FC00
F80001FE00
F80000FF80
F800007FE0
0000000000
0000000000
0007E00000
0003E00000
0003C00000
0001C00000
0001800000
0000800000
0000800000
ENDCHAR
STARTCHAR Lacute
ENCODING 313
SWIDTH 707 0
DWIDTH 31 0
BBX 29 40 1 0
BITMAP
00200000
01E00000
1FE00000
FFE00000
FE000000
E0000000
00000000
00000000
3E000000
3E000000
3E000000
3E000000
3E000000
3E000000
3E000000
3E000000
3E000000
3E000000
3E000000
3E000000
3E000000
3E000000
3E000000
3E000000
3E000000
3E000000
3E000000
3E000000
3E000000
3E000000
3E000000
3E000000
3E000000
3E000000
3FFFFFF8
3FFFFFF8
3FFFFFF8
3FFFFFF8
3FFFFFF8
3FFFFFF8
ENDCHAR
STARTCHAR lacute
ENCODING 314
SWIDTH 707 0
DWIDTH 31 0
BBX 29 40 1 0
BITMAP
00200000
01E00000
1FE00000
FFE00000
FE000000
E0000000
00000000
00000000
3E000000
3E000000
3E000000
3E000000
3E000000
3E000000
3E000000
3E000000
3E000000
3E000000
3E000000
3E000000
3E000000
3E000000
3E000000
3E000000
3E000000
3E000000
3E000000
3E000000
3E000000
3E000000
3E000000
3E000000
3E000000
3E000000
3FFFFFF8
3FFFFFF8
3FFFFFF8
3FFFFFF8
3FFFFFF8
3FFFFFF8
ENDCHAR
STARTCHAR Lcommaaccent
ENCODING 315
SWIDTH 707 0
DWIDTH 31 0
BBX 27 41 3 -9
BITMAP
F8000000
F8000000
F8000000
F8000000
F8000000
F8000000
F8000000
F8000000
F8000000
F8000000
F8000000
F8000000
F8000000
F8000000
F8000000
F8000000
F8000000
F8000000
F8000000
F8000000
F8000000
F8000000
F8000000
F8000000
F8000000
F8000000
FFFFFFE0
FFFFFFE0
FFFFFFE0
FFFFFFE0
FFFFFFE0
FFFFFFE0
00000000
00000000
003F0000
001F0000
001E0000
000E0000
000C0000
00040000
00040000
ENDCHAR
STARTCHAR lcommaaccent
ENCODING 316
SWIDTH 707 0
DWIDTH 31 0
BBX 27 41 3 -9
BITMAP
F8000000
F8000000
F8000000
F8000000
F8000000
F8000000
F8000000
F8000000
F8000000
F8000000
F8000000
F8000000
F8000000
F8000000
F8000000
F8000000
F8000000
F8000000
F8000000
F8000000
F8000000
F8000000
F8000000
F8000000
F8000000
F8000000
FFFFFFE0
FFFFFFE0
FFFFFFE0
FFFFFFE0
FFFFFFE0
FFFFFFE0
00000000
00000000
003F0000
001F0000
001E0000
000E0000
000C0000
00040000
00040000
ENDCHAR
STARTCHAR Lcaron
ENCODING 317
SWIDTH 707 0
DWIDTH 31 0
BBX 27 32 3 0
BITMAP
F81F0000
F81F0000
F81F0000
F81F0000
F81E0000
F81E0000
F81E0000
F81E0000
F81E0000
F81C0000
F81C0000
F8000000
F8000000
F8000000
F8000000
F8000000
F8000000
F8000000
F8000000
F8000000
F8000000
F8000000
F8000000
F8000000
F8000000
F8000000
FFFFFFE0
FFFFFFE0
FFFFFFE0
FFFFFFE0
FFFFFFE0
FFFFFFE0
ENDCHAR
STARTCHAR lcaron
ENCODING 318
SWIDTH 707 0
DWIDTH 31 0
BBX 27 32 3 0
BITMAP
F81F0000
F81F0000
F81F0000
F81F0000
F81E0000
F81E0000
F81E0000
F81E0000
F81E0000
F81C0000
F81C0000
F8000000
F8000000
F8000000
F8000000
F8000000
F8000000
F8000000
F8000000
F8000000
F8000000
F8000000
F8000000
F8000000
F8000000
F8000000
FFFFFFE0
FFFFFFE0
FFFFFFE0
FFFFFFE0
FFFFFFE0
FFFFFFE0
ENDCHAR
STARTCHAR Ldot
ENCODING 319
SWIDTH 707 0
DWIDTH 31 0
BBX 27 32 3 0
BITMAP
F8000000
F8000000
F8000000
F8000000
F8000000
F8000000
F8000000
F8000000
F8000000
F8000000
F8000000
F8000000
F8000000
F8000000
F8380000
F87C0000
F87C0000
F8380000
F8000000
F8000000
F8000000
F8000000
F8000000
F8000000
F8000000
F8000000
FFFFFFE0
FFFFFFE0
FFFFFFE0
FFFFFFE0
FFFFFFE0
FFFFFFE0
ENDCHAR
STARTCHAR ldot
ENCODING 320
SWIDTH 707 0
DWIDTH 31 0
BBX 27 32 3 0
BITMAP
F8000000
F8000000
F8000000
F8000000
F8000000
F8000000
F8000000
F8000000
F8000000
F8000000
F8000000
F8000000
F8000000
F8000000
F8380000
F87C0000
F87C0000
F8380000
F8000000
F8000000
F8000000
F8000000
F8000000
F8000000
F8000000
F8000000
FFFFFFE0
FFFFFFE0
FFFFFFE0
FFFFFFE0
FFFFFFE0
FFFFFFE0
ENDCHAR
STARTCHAR Lslash
ENCODING 321
SWIDTH 707 0
DWIDTH 31 0
BBX 27 32 3 0
BITMAP
F8000000
F8000000
F8000000
F8000000
F8000000
F8000000
F8000000
F8000000
F8000000
F8008000
F8038000
F80F8000
F87F8000
F9FF8000
FFFF0000
FFFC0000
FFE00000
FF800000
FE000000
F8000000
F8000000
F8000000
F8000000
F8000000
F8000000
F8000000
FFFFFFE0
FFFFFFE0
FFFFFFE0
FFFFFFE0
FFFFFFE0
FFFFFFE0
ENDCHAR
STARTCHAR lslash
ENCODING 322
SWIDTH 707 0
DWIDTH 31 0
BBX 27 32 3 0
BITMAP
F8000000
F8000000
F8000000
F8000000
F8000000
F8000000
F8000000
F8000000
F8000000
F8008000
F8038000
F80F8000
F87F8000
F9FF8000
FFFF0000
FFFC0000
FFE00000
FF800000
FE000000
F8000000
F8000000
F8000000
F8000000
F8000000
F8000000
F8000000
FFFFFFE0
FFFFFFE0
FFFFFFE0
FFFFFFE0
FFFFFFE0
FFFFFFE0
ENDCHAR
STARTCHAR Nacute
ENCODING 323
SWIDTH 873 0
DWIDTH 38 0
BBX 33 40 3 0
BITMAP
0000020000
00001E0000
0001FE0000
000FFE0000
000FE00000
000C000000
0000000000
0000000000
7000001F80
F800001F80
FC00001F80
FE00001F80
FF00001F80
FF80001F80
FFC0001F80
FFE0001F80
FFF0001F80
FBF8001F80
F9FC001F80
F8FE001F80
F87F001F80
F83F801F80
F81FE01F80
F80FF01F80
F807F81F80
F803FC1F80
F801FE1F80
F800FF1F80
F8007F9F80
F8003FDF80
F8001FFF80
F8000FFF80
F80007FF80
F80003FF80
F80001FF80
F80000FF80
F800007F80
F800003F80
F800001F00
F800000F00
ENDCHAR
STARTCHAR nacute
ENCODING 324
SWIDTH 873 0
DWIDTH 38 0
BBX 33 40 3 0
BITMAP
0000020000
00001E0000
0001FE0000
000FFE0000
000FE00000
000C000000
0000000000
0000000000
7000001F80
F800001F80
FC00001F80
FE00001F80
FF00001F80
FF80001F80
FFC0001F80
FFE0001F80
FFF0001F80
FBF8001F80
F9FC001F80
F8FE001F80
F87F001F80
F83F801F80
F81FE01F80
F80FF01F80
F807F81F80
F803FC1F80
F801FE1F80
F800FF1F80
F8007F9F80
F8003FDF80
F8001FFF80
F8000FFF80
F80007FF80
F80003FF80
F80001FF80
F80000FF80
F800007F80
F800003F80
F800001F00
F800000F00
ENDCHAR
STARTCHAR Ncommaaccent
ENCODING 325
SWIDTH 873 0
DWIDTH 38 0
BBX 33 41 3 -9
BITMAP
7000001F80
F800001F80
FC00001F80
FE00001F80
FF00001F80
FF80001F80
FFC0001F80
FFE0001F80
FFF0001F80
FBF8001F80
F9FC001F80
F8FE001F80
F87F001F80
F83F801F80
F81FE01F80
F80FF01F80
F807F81F80
F803FC1F80
F801FE1F80
F800FF1F80
F8007F9F80
F8003FDF80
F8001FFF80
F8000FFF80
F80007FF80
F80003FF80
F80001FF80
F80000FF80
F800007F80
F800003F80
F800001F00
F800000F00
0000000000
0000000000
0007E00000
0003E00000
0003C00000
0001C00000
0001800000
0000800000
0000800000
ENDCHAR
STARTCHAR ncommaaccent
ENCODING 326
SWIDTH 873 0
DWIDTH 38 0
BBX 33 41 3 -9
BITMAP
7000001F80
F800001F80
FC00001F80
FE00001F80
FF00001F80
FF80001F80
FFC0001F80
FFE0001F80
FFF0001F80
FBF8001F80
F9FC001F80
F8FE001F80
F87F001F80
F83F801F80
F81FE01F80
F80FF01F80
F807F81F80
F803FC1F80
F801FE1F80
F800FF1F80
F8007F9F80
F8003FDF80
F8001FFF80
F8000FFF80
F80007FF80
F80003FF80
F80001FF80
F80000FF80
F800007F80
F800003F80
F800001F00
F800000F00
0000000000
0000000000
0007E00000
0003E00000
0003C00000
0001C00000
0001800000
0000800000
0000800000
ENDCHAR
STARTCHAR Ncaron
ENCODING 327
SWIDTH 873 0
DWIDTH 38 0
BBX 33 40 3 0
BITMAP
003C1C0000
001C380000
000E780000
0007700000
0007E00000
0003E00000
0000000000
0000000000
7000001F80
F800001F80
FC00001F80
FE00001F80
FF00001F80
FF80001F80
FFC0001F80
FFE0001F80
FFF0001F80
FBF8001F80
F9FC001F80
F8FE001F80
F87F001F80
F83F801F80
F81FE01F80
F80FF01F80
F807F81F80
F803FC1F80
F801FE1F80
F800FF1F80
F8007F9F80
F8003FDF80
F8001FFF80
F8000FFF80
F80007FF80
F80003FF80
F80001FF80
F80000FF80
F800007F80
F800003F80
F800001F00
F800000F00
ENDCHAR
STARTCHAR ncaron
ENCODING 328
SWIDTH 873 0
DWIDTH 38 0
BBX 33 40 3 0
BITMAP
003C1C0000
001C380000
000E780000
0007700000
0007E00000
0003E00000
0000000000
0000000000
7000001F80
F800001F80
FC00001F80
FE00001F80
FF00001F80
FF80001F80
FFC0001F80
FFE0001F80
FFF0001F80
FBF8001F80
F9FC001F80
F8FE001F80
F87F001F80
F83F801F80
F81FE01F80
F80FF01F80
F807F81F80
F803FC1F80
F801FE1F80
F800FF1F80
F8007F9F80
F8003FDF80
F8001FFF80
F8000FFF80
F80007FF80
F80003FF80
F80001FF80
F80000FF80
F800007F80
F800003F80
F800001F00
F800000F00
ENDCHAR
STARTCHAR Eng
ENCODING 330
SWIDTH 873 0
DWIDTH 38 0
BBX 33 41 3 -9
BITMAP
7000001F80
F800001F80
FC00001F80
FE00001F80
FF00001F80
FF80001F80
FFC0001F80
FFE0001F80
FFF0001F80
FBF8001F80
F9FC001F80
F8FE001F80
F87F001F80
F83F801F80
F81FE01F80
F80FF01F80
F807F81F80
F803FC1F80
F801FE1F80
F800FF1F80
F8007F9F80
F8003FDF80
F8001FFF80
F8000FFF80
F80007FF80
F80003FF80
F80001FF80
F80000FF80
F800007F80
F800003F80
F800001F80
F800003F80
0000003F00
0000007F00
000001FF00
000FFFFE00
000FFFFC00
000FFFF800
000FFFF000
000FFF8000
000FFC0000
ENDCHAR
STARTCHAR eng
ENCODING 331
SWIDTH 873 0
DWIDTH 38 0
BBX 33 41 3 -9
BITMAP
7000001F80
F800001F80
FC00001F80
FE00001F80
FF00001F80
FF80001F80
FFC0001F80
FFE0001F80
FFF0001F80
FBF8001F80
F9FC001F80
F8FE001F80
F87F001F80
F83F801F80
F81FE01F80
F80FF01F80
F807F81F80
F803FC1F80
F801FE1F80
F800FF1F80
F8007F9F80
F8003FDF80
F8001FFF80
F8000FFF80
F80007FF80
F80003FF80
F80001FF80
F80000FF80
F800007F80
F800003F80
F800001F80
F800003F80
0000003F00
0000007F00
000001FF00
000FFFFE00
000FFFFC00
000FFFF800
000FFFF000
000FFF8000
000FFC0000
ENDCHAR
STARTCHAR Omacron
ENCODING 332
SWIDTH 968 0
DWIDTH 43 0
BBX 39 39 2 0
BITMAP
0003FF8000
0003FF8000
0003FF8000
0000000000
0000000000
0000000000
0000000000
001FFFE000
00FFFFFC00
03FFFFFF00
07FFFFFFC0
0FFFFFFFE0
1FFFFFFFE0
3FE0001FF0
3F800007F8
7F000003F8
7E000001FC
7E000000FC
FC000000FC
FC0000007E
FC0000007E
FC0000007E
F80000007E
F80000007E
FC0000007E
FC0000007E
FC0000007C
FC000000FC
7E000000FC
7E000001FC
3F000003F8
3F800007F8
1FE0001FF0
0FFFFFFFE0
0FFFFFFFC0
03FFFFFF80
01FFFFFF00
007FFFFC00
001FFFE000
ENDCHAR
STARTCHAR omacron
ENCODING 333
SWIDTH 968 0
DWIDTH 43 0
BBX 39 39 2 0
BITMAP
0003FF8000
0003FF8000
0003FF8000
0000000000
0000000000
0000000000
0000000000
001FFFE000
00FFFFFC00
03FFFFFF00
07FFFFFFC0
0FFFFFFFE0
1FFFFFFFE0
3FE0001FF0
3F800007F8
7F000003F8
7E000001FC
7E000000FC
FC000000FC
FC0000007E
FC0000007E
FC0000007E
F80000007E
F80000007E
FC0000007E
FC0000007E
FC0000007C
FC000000FC
7E000000FC
7E000001FC
3F000003F8
3F800007F8
1FE0001FF0
0FFFFFFFE0
0FFFFFFFC0
03FFFFFF80
01FFFFFF00
007FFFFC00
001FFFE000
ENDCHAR
STARTCHAR Obreve
ENCODING 334
SWIDTH 968 0
DWIDTH 43 0
BBX 39 40 2 0
BITMAP
0007038000
0007038000
0003838000
0003870000
0001FF0000
0000FE0000
0000000000
0000000000
001FFFE000
00FFFFFC00
03FFFFFF00
07FFFFFFC0
0FFFFFFFE0
1FFFFFFFE0
3FE0001FF0
3F800007F8
7F000003F8
7E000001FC
7E000000FC
FC000000FC
FC0000007E
FC0000007E
FC0000007E
F80000007E
F80000007E
FC0000007E
FC0000007E
FC0000007C
FC000000FC
7E000000FC
7E000001FC
3F000003F8
3F800007F8
1FE0001FF0
0FFFFFFFE0
0FFFFFFFC0
03FFFFFF80
01FFFFFF00
007FFFFC00
001FFFE000
ENDCHAR
STARTCHAR obreve
ENCODING 335
SWIDTH 968 0
DWIDTH 43 0
BBX 39 40 2 0
BITMAP
0007038000
0007038000
0003838000
0003870000
0001FF0000
0000FE0000
0000000000
0000000000
001FFFE000
00FFFFFC00
03FFFFFF00
07FFFFFFC0
0FFFFFFFE0
1FFFFFFFE0
3FE0001FF0
3F800007F8
7F000003F8
7E000001FC
7E000000FC
FC000000FC
FC0000007E
FC0000007E
FC0000007E
F80000007E
F80000007E
FC0000007E
FC0000007E
FC0000007C
FC000000FC
7E000000FC
7E000001FC
3F000003F8
3F800007F8
1FE0001FF0
0FFFFFFFE0
0FFFFFFFC0
03FFFFFF80
01FFFFFF00
007FFFFC00
001FFFE000
ENDCHAR
STARTCHAR Ohungarumlaut
ENCODING 336
SWIDTH 968 0
DWIDTH 43 0
BBX 39 40 2 0
BITMAP
0000F1E000
0000F1E000
0000E1C000
0001C38000
0001C38000
0003870000
0000000000
0000000000
001FFFE000
00FFFFFC00
03FFFFFF00
07FFFFFFC0
0FFFFFFFE0
1FFFFFFFE0
3FE0001FF0
3F800007F8
7F000003F8
7E000001FC
7E000000FC
FC000000FC
FC0000007E
FC0000007E
FC0000007E
F80000007E
F80000007E
FC0000007E
FC0000007E
FC0000007C
FC000000FC
7E000000FC
7E000001FC
3F000003F8
3F800007F8
1FE0001FF0
0FFFFFFFE0
0FFFFFFFC0
03FFFFFF80
01FFFFFF00
007FFFFC00
001FFFE000
ENDCHAR
STARTCHAR ohungarumlaut
ENCODING 337
SWIDTH 968 0
DWIDTH 43 0
BBX 39 40 2 0
BITMAP
0000F1E000
0000F1E000
0000E1C000
0001C38000
0001C38000
0003870000
0000000000
0000000000
001FFFE000
00FFFFFC00
03FFFFFF00
07FFFFFFC0
0FFFFFFFE0
1FFFFFFFE0
3FE0001FF0
3F800007F8
7F000003F8
7E000001FC
7E000000FC
FC000000FC
FC0000007E
FC0000007E
FC0000007E
F80000007E
F80000007E
FC0000007E
FC0000007E
FC0000007C
FC000000FC
7E000000FC
7E000001FC
3F000003F8
3F800007F8
1FE0001FF0
0FFFFFFFE0
0FFFFFFFC0
03FFFFFF80
01FFFFFF00
007FFFFC00
001FFFE000
ENDCHAR
STARTCHAR OE
ENCODING 338
SWIDTH 1304 0
DWIDTH 57 0
BBX 53 32 2 0
BITMAP
001FFFFFFFFFF8
00FFFFFFFFFFF8
03FFFFFFFFFFF8
07FFFFFFFFFFF8
0FFFFFFFFFFFF8
1FFFFFFFFFFFF8
3FE0003F000000
3F80003F000000
7F00003F000000
7E00003F000000
7E00003F000000
FC00003F000000
FC00003F000000
FC00003F0FFFF0
FC00003F0FFFF0
F800003F0FFFF0
F800003F0FFFF0
FC00003F0FFFF0
FC00003F000000
FC00003F000000
FC00003F000000
7E00003F000000
7E00003F000000
3F00003F000000
3F80003F000000
1FE0003F000000
0FFFFFFFFFFFF8
0FFFFFFFFFFFF8
03FFFFFFFFFFF8
01FFFFFFFFFFF8
007FFFFFFFFFF8
001FFFFFFFFFF8
ENDCHAR
STARTCHAR oe
ENCODING 339
SWIDTH 1304 0
DWIDTH 57 0
BBX 53 32 2 0
BITMAP
001FFFFFFFFFF8
00FFFFFFFFFFF8
03FFFFFFFFFFF8
07FFFFFFFFFFF8
0FFFFFFFFFFFF8
1FFFFFFFFFFFF8
3FE0003F000000
3F80003F000000
7F00003F000000
7E00003F000000
7E00003F000000
FC00003F000000
FC00003F000000
FC00003F0FFFF0
FC00003F0FFFF0
F800003F0FFFF0
F800003F0FFFF0
FC00003F0FFFF0
FC00003F000000
FC00003F000000
FC00003F000000
7E00003F000000
7E00003F000000
3F00003F000000
3F80003F000000
1FE0003F000000
0FFFFFFFFFFFF8
0FFFFFFFFFFFF8
03FFFFFFFFFFF8
01FFFFFFFFFFF8
007FFFFFFFFFF8
001FFFFFFFFFF8
ENDCHAR
STARTCHAR Racute
ENCODING 340
SWIDTH 921 0
DWIDTH 41 0
BBX 37 40 3 0
BITMAP
0000040000
00003C0000
0001FC0000
001FFC0000
001FC00000
001C000000
0000000000
0000000000
FFFFFFE000
FFFFFFF800
FFFFFFFE00
FFFFFFFF00
FFFFFFFF00
FFFFFFFF80
F800003F80
F800000FC0
F800000FC0
F8000007C0
F8000007C0
F8000007C0
F8000007C0
F8000007C0
F800000FC0
F800000FC0
F800001FC0
F800003F80
F87FFFFF00
F87FFFFF00
F87FFFFE00
F87FFFF800
F87FFFF000
F80003F800
F80001FC00
F80000FE00
F800007F00
F800007F80
F800003FC0
F800001FE0
F800000FF0
F8000007F8
ENDCHAR
STARTCHAR racute
ENCODING 341
SWIDTH 921 0
DWIDTH 41 0
BBX 37 40 3 0
BITMAP
0000040000
00003C0000
0001FC0000
001FFC0000
001FC00000
001C000000
0000000000
0000000000
FFFFFFE000
FFFFFFF800
FFFFFFFE00
FFFFFFFF00
FFFFFFFF00
FFFFFFFF80
F800003F80
F800000FC0
F800000FC0
F8000007C0
F8000007C0
F8000007C0
F8000007C0
F8000007C0
F800000FC0
F800000FC0
F800001FC0
F800003F80
F87FFFFF00
F87FFFFF00
F87FFFFE00
F87FFFF800
F87FFFF000
F80003F800
F80001FC00
F80000FE00
F800007F00
F800007F80
F800003FC0
F800001FE0
F800000FF0
F8000007F8
ENDCHAR
STARTCHAR Rcommaaccent
ENCODING 342
SWIDTH 921 0
DWIDTH 41 0
BBX 37 41 3 -9
BITMAP
FFFFFFE000
FFFFFFF800
FFFFFFFE00
FFFFFFFF00
FFFFFFFF00
FFFFFFFF80
F800003F80
F800000FC0
F800000FC0
F8000007C0
F8000007C0
F8000007C0
F8000007C0
F8000007C0
F800000FC0
F800000FC0
F800001FC0
F800003F80
F87FFFFF00
F87FFFFF00
F87FFFFE00
F87FFFF800
F87FFFF000
F80003F800
F80001FC00
F80000FE00
F800007F00
F800007F80
F800003FC0
F800001FE0
F800000FF0
F8000007F8
0000000000
0000000000
0003F00000
0001F00000
0001E00000
0000E00000
0000C00000
0000400000
0000400000
ENDCHAR
STARTCHAR rcommaaccent
ENCODING 343
SWIDTH 921 0
DWIDTH 41 0
BBX 37 41 3 -9
BITMAP
FFFFFFE000
FFFFFFF800
FFFFFFFE00
FFFFFFFF00
FFFFFFFF00
FFFFFFFF80
F800003F80
F800000FC0
F800000FC0
F8000007C0
F8000007C0
F8000007C0
F8000007C0
F8000007C0
F800000FC0
F800000FC0
F800001FC0
F800003F80
F87FFFFF00
F87FFFFF00
F87FFFFE00
F87FFFF800
F87FFFF000
F80003F800
F80001FC00
F80000FE00
F800007F00
F800007F80
F800003FC0
F800001FE0
F800000FF0
F8000007F8
0000000000
0000000000
0003F00000
0001F00000
0001E00000
0000E00000
0000C00000
0000400000
0000400000
ENDCHAR
STARTCHAR Rcaron
ENCODING 344
SWIDTH 921 0
DWIDTH 41 0
BBX 37 40 3 0
BITMAP
00783C0000
003C700000
001C700000
000EE00000
000FC00000
0007C00000
0000000000
0000000000
FFFFFFE000
FFFFFFF800
FFFFFFFE00
FFFFFFFF00
FFFFFFFF00
FFFFFFFF80
F800003F80
F800000FC0
F800000FC0
F8000007C0
F8000007C0
F8000007C0
F8000007C0
F8000007C0
F800000FC0
F800000FC0
F800001FC0
F800003F80
F87FFFFF00
F87FFFFF00
F87FFFFE00
F87FFFF800
F87FFFF000
F80003F800
F80001FC00
F80000FE00
F800007F00
F800007F80
F800003FC0
F800001FE0
F800000FF0
F8000007F8
ENDCHAR
STARTCHAR rcaron
ENCODING 345
SWIDTH 921 0
DWIDTH 41 0
BBX 37 40 3 0
BITMAP
00783C0000
003C700000
001C700000
000EE00000
000FC00000
0007C00000
0000000000
0000000000
FFFFFFE000
FFFFFFF800
FFFFFFFE00
FFFFFFFF00
FFFFFFFF00
FFFFFFFF80
F800003F80
F800000FC0
F800000FC0
F8000007C0
F8000007C0
F8000007C0
F8000007C0
F8000007C0
F800000FC0
F800000FC0
F800001FC0
F800003F80
F87FFFFF00
F87FFFFF00
F87FFFFE00
F87FFFF800
F87FFFF000
F80003F800
F80001FC00
F80000FE00
F800007F00
F800007F80
F800003FC0
F800001FE0
F800000FF0
F8000007F8
ENDCHAR
STARTCHAR Sacute
ENCODING 346
SWIDTH 880 0
DWIDTH 39 0
BBX 35 40 2 0
BITMAP
0000010000
00000F0000
0000FF0000
0007FF0000
0007F00000
0006000000
0000000000
0000000000
03FFFFFF80
0FFFFFFF80
1FFFFFFF80
3FFFFFFF80
7FFFFFFF80
7FFFFFFF80
7E00000000
FC00000000
FC00000000
FC00000000
FC00000000
7E00000000
7F00000000
7FFFFFF800
3FFFFFFE00
1FFFFFFF00
0FFFFFFF80
03FFFFFFC0
0000001FC0
00000007C0
00000007E0
00000007E0
00000007E0
00000007E0
00000007E0
0000000FC0
7FFFFFFFC0
7FFFFFFFC0
7FFFFFFF80
7FFFFFFF00
7FFFFFFE00
7FFFFFF000
ENDCHAR
STARTCHAR sacute
ENCODING 347
SWIDTH 880 0
DWIDTH 39 0
BBX 35 40 2 0
BITMAP
0000010000
00000F0000
0000FF0000
0007FF0000
0007F00000
0006000000
0000000000
0000000000
03FFFFFF80
0FFFFFFF80
1FFFFFFF80
3FFFFFFF80
7FFFFFFF80
7FFFFFFF80
7E00000000
FC00000000
FC00000000
FC00000000
FC00000000
7E00000000
7F00000000
7FFFFFF800
3FFFFFFE00
1FFFFFFF00
0FFFFFFF80
03FFFFFFC0
0000001FC0
00000007C0
00000007E0
00000007E0
00000007E0
00000007E0
00000007E0
0000000FC0
7FFFFFFFC0
7FFFFFFFC0
7FFFFFFF80
7FFFFFFF00
7FFFFFFE00
7FFFFFF000
ENDCHAR
STARTCHAR Scedilla
ENCODING 350
SWIDTH 880 0
DWIDTH 39 0
BBX 35 41 2 -9
BITMAP
03FFFFFF80
0FFFFFFF80
1FFFFFFF80
3FFFFFFF80
7FFFFFFF80
7FFFFFFF80
7E00000000
FC00000000
FC00000000
FC00000000
FC00000000
7E00000000
7F00000000
7FFFFFF800
3FFFFFFE00
1FFFFFFF00
0FFFFFFF80
03FFFFFFC0
0000001FC0
00000007C0
00000007E0
00000007E0
00000007E0
00000007E0
00000007E0
0000000FC0
7FFFFFFFC0
7FFFFFFFC0
7FFFFFFF80
7FFFFFFF00
7FFFFFFE00
7FFFFFF000
0000000000
0000000000
0003F00000
0001F00000
0001E00000
0000E00000
0000C00000
0000400000
0000400000
ENDCHAR
STARTCHAR scedilla
ENCODING 351
SWIDTH 880 0
DWIDTH 39 0
BBX 35 41 2 -9
BITMAP
03FFFFFF80
0FFFFFFF80
1FFFFFFF80
3FFFFFFF80
7FFFFFFF80
7FFFFFFF80
7E00000000
FC00000000
FC00000000
FC00000000
FC00000000
7E00000000
7F00000000
7FFFFFF800
3FFFFFFE00
1FFFFFFF00
0FFFFFFF80
03FFFFFFC0
0000001FC0
00000007C0
00000007E0
00000007E0
00000007E0
00000007E0
00000007E0
0000000FC0
7FFFFFFFC0
7FFFFFFFC0
7FFFFFFF80
7FFFFFFF00
7FFFFFFE00
7FFFFFF000
0000000000
0000000000
0003F00000
0001F00000
0001E00000
0000E00000
0000C00000
0000400000
0000400000
ENDCHAR
STARTCHAR Scaron
ENCODING 352
SWIDTH 880 0
DWIDTH 39 0
BBX 35 40 2 0
BITMAP
000E0F0000
00070E0000
00071C0000
0003B80000
0001F80000
0001F00000
0000000000
0000000000
03FFFFFF80
0FFFFFFF80
1FFFFFFF80
3FFFFFFF80
7FFFFFFF80
7FFFFFFF80
7E00000000
FC00000000
FC00000000
FC00000000
FC00000000
7E00000000
7F00000000
7FFFFFF800
3FFFFFFE00
1FFFFFFF00
0FFFFFFF80
03FFFFFFC0
0000001FC0
00000007C0
00000007E0
00000007E0
00000007E0
00000007E0
00000007E0
0000000FC0
7FFFFFFFC0
7FFFFFFFC0
7FFFFFFF80
7FFFFFFF00
7FFFFFFE00
7FFFFFF000
ENDCHAR
STARTCHAR scaron
ENCODING 353
SWIDTH 880 0
DWIDTH 39 0
BBX 35 40 2 0
BITMAP
000E0F0000
00070E0000
00071C0000
0003B80000
0001F80000
0001F00000
0000000000
0000000000
03FFFFFF80
0FFFFFFF80
1FFFFFFF80
3FFFFFFF80
7FFFFFFF80
7FFFFFFF80
7E00000000
FC00000000
FC00000000
FC00000000
FC00000000
7E00000000
7F00000000
7FFFFFF800
3FFFFFFE00
1FFFFFFF00
0FFFFFFF80
03FFFFFFC0
0000001FC0
00000007C0
00000007E0
00000007E0
00000007E0
00000007E0
00000007E0
0000000FC0
7FFFFFFFC0
7FFFFFFFC0
7FFFFFFF80
7FFFFFFF00
7FFFFFFE00
7FFFFFF000
ENDCHAR
STARTCHAR Tcommaaccent
ENCODING 354
SWIDTH 720 0
DWIDTH 32 0
BBX 30 41 1 -9
BITMAP
FFFFFFFC
FFFFFFFC
FFFFFFFC
FFFFFFFC
FFFFFFFC
FFFFFFFC
000FC000
000FC000
000FC000
000FC000
000FC000
000FC000
000FC000
000FC000
000FC000
000FC000
000FC000
000FC000
000FC000
000FC000
000FC000
000FC000
000FC000
000FC000
000FC000
000FC000
000FC000
000FC000
000FC000
000FC000
000FC000
000FC000
00000000
00000000
000FC000
00078000
00078000
00070000
00030000
00020000
00020000
ENDCHAR
STARTCHAR tcommaaccent
ENCODING 355
SWIDTH 720 0
DWIDTH 32 0
BBX 30 41 1 -9
BITMAP
FFFFFFFC
FFFFFFFC
FFFFFFFC
FFFFFFFC
FFFFFFFC
FFFFFFFC
000FC000
000FC000
000FC000
000FC000
000FC000
000FC000
000FC000
000FC000
000FC000
000FC000
000FC000
000FC000
000FC000
000FC000
000FC000
000FC000
000FC000
000FC000
000FC000
000FC000
000FC000
000FC000
000FC000
000FC000
000FC000
000FC000
00000000
00000000
000FC000
00078000
00078000
00070000
00030000
00020000
00020000
ENDCHAR
STARTCHAR Tcaron
ENCODING 356
SWIDTH 720 0
DWIDTH 32 0
BBX 30 40 1 0
BITMAP
00707800
00387000
003CE000
001DC000
000FC000
000F8000
00000000
00000000
FFFFFFFC
FFFFFFFC
FFFFFFFC
FFFFFFFC
FFFFFFFC
FFFFFFFC
000FC000
000FC000
000FC000
000FC000
000FC000
000FC000
000FC000
000FC000
000FC000
000FC000
000FC000
000FC000
000FC000
000FC000
000FC000
000FC000
000FC000
000FC000
000FC000
000FC000
000FC000
000FC000
000FC000
000FC000
000FC000
000FC000
ENDCHAR
STARTCHAR tcaron
ENCODING 357
SWIDTH 720 0
DWIDTH 32 0
BBX 30 40 1 0
BITMAP
00707800
00387000
003CE000
001DC000
000FC000
000F8000
00000000
00000000
FFFFFFFC
FFFFFFFC
FFFFFFFC
FFFFFFFC
FFFFFFFC
FFFFFFFC
000FC000
000FC000
000FC000
000FC000
000FC000
000FC000
000FC000
000FC000
000FC000
000FC000
000FC000
000FC000
000FC000
000FC000
000FC000
000FC000
000FC000
000FC000
000FC000
000FC000
000FC000
000FC000
000FC000
000FC000
000FC000
000FC000
ENDCHAR
STARTCHAR Tbar
ENCODING 358
SWIDTH 720 0
DWIDTH 32 0
BBX 30 32 1 0
BITMAP
FFFFFFFC
FFFFFFFC
FFFFFFFC
FFFFFFFC
FFFFFFFC
FFFFFFFC
000FC000
000FC000
000FC000
000FC000
000FC000
000FC000
000FC000
000FC000
000FC000
000FC000
000FC000
01FFFE00
01FFFE00
01FFFE00
01FFFE00
000FC000
000FC000
000FC000
000FC000
000FC000
000FC000
000FC000
000FC000
000FC000
000FC000
000FC000
ENDCHAR
STARTCHAR tbar
ENCODING 359
SWIDTH 720 0
DWIDTH 32 0
BBX 30 32 1 0
BITMAP
FFFFFFFC
FFFFFFFC
FFFFFFFC
FFFFFFFC
FFFFFFFC
FFFFFFFC
000FC000
000FC000
000FC000
000FC000
000FC000
000FC000
000FC000
000FC000
000FC000
000FC000
000FC000
01FFFE00
01FFFE00
01FFFE00
01FFFE00
000FC000
000FC000
000FC000
000FC000
000FC000
000FC000
000FC000
000FC000
000FC000
000FC000
000FC000
ENDCHAR
STARTCHAR Utilde
ENCODING 360
SWIDTH 889 0
DWIDTH 39 0
BBX 35 39 2 0
BITMAP
0007810000
000FE20000
0008FE0000
00083C0000
0000000000
0000000000
0000000000
FC000007E0
FC000007E0
FC000007E0
FC000007E0
FC000007E0
FC000007E0
FC000007E0
FC000007E0
FC000007E0
FC000007E0
FC000007E0
FC000007E0
FC000007E0
FC000007E0
FC000007E0
FC000007E0
FC000007E0
FC000007E0
FC000007E0
FC000007E0
FC000007E0
7E000007E0
7E00000FC0
7F00000FC0
7F80001FC0
3FE0007F80
3FFFFFFF80
1FFFFFFF00
0FFFFFFE00
03FFFFF800
00FFFFE000
001FFF0000
ENDCHAR
STARTCHAR utilde
ENCODING 361
SWIDTH 889 0
DWIDTH 39 0
BBX 35 39 2 0
BITMAP
0007810000
000FE20000
0008FE0000
00083C0000
0000000000
0000000000
0000000000
FC000007E0
FC000007E0
FC000007E0
FC000007E0
FC000007E0
FC000007E0
FC000007E0
FC000007E0
FC000007E0
FC000007E0
FC000007E0
FC000007E0
FC000007E0
FC000007E0
FC000007E0
FC000007E0
FC000007E0
FC000007E0
FC000007E0
FC000007E0
FC000007E0
7E000007E0
7E00000FC0
7F00000FC0
7F80001FC0
3FE0007F80
3FFFFFFF80
1FFFFFFF00
0FFFFFFE00
03FFFFF800
00FFFFE000
001FFF0000
ENDCHAR
STARTCHAR Umacron
ENCODING 362
SWIDTH 889 0
DWIDTH 39 0
BBX 35 39 2 0
BITMAP
000FFE0000
000FFE0000
000FFE0000
0000000000
0000000000
0000000000
0000000000
FC000007E0
FC000007E0
FC000007E0
FC000007E0
FC000007E0
FC000007E0
FC000007E0
FC000007E0
FC000007E0
FC000007E0
FC000007E0
FC000007E0
FC000007E0
FC000007E0
FC000007E0
FC000007E0
FC000007E0
FC000007E0
FC000007E0
FC000007E0
FC000007E0
7E000007E0
7E00000FC0
7F00000FC0
7F80001FC0
3FE0007F80
3FFFFFFF80
1FFFFFFF00
0FFFFFFE00
03FFFFF800
00FFFFE000
001FFF0000
ENDCHAR
STARTCHAR umacron
ENCODING 363
SWIDTH 889 0
DWIDTH 39 0
BBX 35 39 2 0
BITMAP
000FFE0000
000FFE0000
000FFE0000
0000000000
0000000000
0000000000
0000000000
FC000007E0
FC000007E0
FC000007E0
FC000007E0
FC000007E0
FC000007E0
FC000007E0
FC000007E0
FC000007E0
FC000007E0
FC000007E0
FC000007E0
FC000007E0
FC000007E0
FC000007E0
FC000007E0
FC000007E0
FC000007E0
FC000007E0
FC000007E0
FC000007E0
7E000007E0
7E00000FC0
7F00000FC0
7F80001FC0
3FE0007F80
3FFFFFFF80
1FFFFFFF00
0FFFFFFE00
03FFFFF800
00FFFFE000
001FFF0000
ENDCHAR
STARTCHAR Ubreve
ENCODING 364
SWIDTH 889 0
DWIDTH 39 0
BBX 35 40 2 0
BITMAP
001C070000
000E0E0000
000E0E0000
000F1E0000
0007FC0000
0003F80000
0000000000
0000000000
FC000007E0
FC000007E0
FC000007E0
FC000007E0
FC000007E0
FC000007E0
FC000007E0
FC000007E0
FC000007E0
FC000007E0
FC000007E0
FC000007E0
FC000007E0
FC000007E0
FC000007E0
FC000007E0
FC000007E0
FC000007E0
FC000007E0
FC000007E0
FC000007E0
7E000007E0
7E00000FC0
7F00000FC0
7F80001FC0
3FE0007F80
3FFFFFFF80
1FFFFFFF00
0FFFFFFE00
03FFFFF800
00FFFFE000
001FFF0000
ENDCHAR
STARTCHAR ubreve
ENCODING 365
SWIDTH 889 0
DWIDTH 39 0
BBX 35 40 2 0
BITMAP
001C070000
000E0E0000
000E0E0000
000F1E0000
0007FC0000
0003F80000
0000000000
0000000000
FC000007E0
FC000007E0
FC000007E0
FC000007E0
FC000007E0
FC000007E0
FC000007E0
FC000007E0
FC000007E0
FC000007E0
FC000007E0
FC000007E0
FC000007E0
FC000007E0
FC000007E0
FC000007E0
FC000007E0
FC000007E0
FC000007E0
FC000007E0
FC000007E0
7E000007E0
7E00000FC0
7F00000FC0
7F80001FC0
3FE0007F80
3FFFFFFF80
1FFFFFFF00
0FFFFFFE00
03FFFFF800
00FFFFE000
001FFF0000
ENDCHAR
STARTCHAR Uring
ENCODING 366
SWIDTH 889 0
DWIDTH 39 0
BBX 35 43 2 0
BITMAP
0003F80000
0007FC0000
000C060000
000C060000
000C060000
000C060000
000C060000
0007FC0000
0003F80000
0000000000
0000000000
FC000007E0
FC000007E0
FC000007E0
FC000007E0
FC000007E0
FC000007E0
FC000007E0
FC000007E0
FC000007E0
FC000007E0
FC000007E0
FC000007E0
FC000007E0
FC000007E0
FC000007E0
FC000007E0
FC000007E0
FC000007E0
FC000007E0
FC000007E0
FC000007E0
7E000007E0
7E00000FC0
7F00000FC0
7F80001FC0
3FE0007F80
3FFFFFFF80
1FFFFFFF00
0FFFFFFE00
03FFFFF800
00FFFFE000
001FFF0000
ENDCHAR
STARTCHAR uring
ENCODING 367
SWIDTH 889 0
DWIDTH 39 0
BBX 35 43 2 0
BITMAP
0003F80000
0007FC0000
000C060000
000C060000
000C060000
000C060000
000C060000
0007FC0000
0003F80000
0000000000
0000000000
FC000007E0
FC000007E0
FC000007E0
FC000007E0
FC000007E0
FC000007E0
FC000007E0
FC000007E0
FC000007E0
FC000007E0
FC000007E0
FC000007E0
FC000007E0
FC000007E0
FC000007E0
FC000007E0
FC000007E0
FC000007E0
FC000007E0
FC000007E0
FC000007E0
7E000007E0
7E00000FC0
7F00000FC0
7F80001FC0
3FE0007F80
3FFFFFFF80
1FFFFFFF00
0FFFFFFE00
03FFFFF800
00FFFFE000
001FFF0000
ENDCHAR
STARTCHAR Uhungarumlaut
ENCODING 368
SWIDTH 889 0
DWIDTH 39 0
BBX 35 40 2 0
BITMAP
0001E3C000
0003C78000
0003870000
0003870000
00070E0000
00060C0000
0000000000
0000000000
FC000007E0
FC000007E0
FC000007E0
FC000007E0
FC000007E0
FC000007E0
FC000007E0
FC000007E0
FC000007E0
FC000007E0
FC000007E0
FC000007E0
FC000007E0
FC000007E0
FC000007E0
FC000007E0
FC000007E0
FC000007E0
FC000007E0
FC000007E0
FC000007E0
7E000007E0
7E00000FC0
7F00000FC0
7F80001FC0
3FE0007F80
3FFFFFFF80
1FFFFFFF00
0FFFFFFE00
03FFFFF800
00FFFFE000
001FFF0000
ENDCHAR
STARTCHAR uhungarumlaut
ENCODING 369
SWIDTH 889 0
DWIDTH 39 0
BBX 35 40 2 0
BITMAP
0001E3C000
0003C78000
0003870000
0003870000
00070E0000
00060C0000
0000000000
0000000000
FC000007E0
FC000007E0
FC000007E0
FC000007E0
FC000007E0
FC000007E0
FC000007E0
FC000007E0
FC000007E0
FC000007E0
FC000007E0
FC000007E0
FC000007E0
FC000007E0
FC000007E0
FC000007E0
FC000007E0
FC000007E0
FC000007E0
FC000007E0
FC000007E0
7E000007E0
7E00000FC0
7F00000FC0
7F80001FC0
3FE0007F80
3FFFFFFF80
1FFFFFFF00
0FFFFFFE00
03FFFFF800
00FFFFE000
001FFF0000
ENDCHAR
STARTCHAR Uogonek
ENCODING 370
SWIDTH 889 0
DWIDTH 39 0
BBX 35 41 2 -9
BITMAP
FC000007E0
FC000007E0
FC000007E0
FC000007E0
FC000007E0
FC000007E0
FC000007E0
FC000007E0
FC000007E0
FC000007E0
FC000007E0
FC000007E0
FC000007E0
FC000007E0
FC000007E0
FC000007E0
FC000007E0
FC000007E0
FC000007E0
FC000007E0
FC000007E0
7E000007E0
7E00000FC0
7F00000FC0
7F80001FC0
3FE0007F80
3FFFFFFF80
1FFFFFFF00
0FFFFFFE00
03FFFFFC00
00FFFFF000
001FFF8000
0000380000
0000E00000
0001C00000
0003800000
0003800000
0007FC0000
0003FC0000
0003FC0000
0001FC0000
ENDCHAR
STARTCHAR uogonek
ENCODING 371
SWIDTH 889 0
DWIDTH 39 0
BBX 35 41 2 -9
BITMAP
FC000007E0
FC000007E0
FC000007E0
FC000007E0
FC000007E0
FC000007E0
FC000007E0
FC000007E0
FC000007E0
FC000007E0
FC000007E0
FC000007E0
FC000007E0
FC000007E0
FC000007E0
FC000007E0
FC000007E0
FC000007E0
FC000007E0
FC000007E0
FC000007E0
7E000007E0
7E00000FC0
7F00000FC0
7F80001FC0
3FE0007F80
3FFFFFFF80
1FFFFFFF00
0FFFFFFE00
03FFFFFC00
00FFFFF000
001FFF8000
0000380000
0000E00000
0001C00000
0003800000
0003800000
0007FC0000
0003FC0000
0003FC0000
0001FC0000
ENDCHAR
STARTCHAR Wcircumflex
ENCODING 372
SWIDTH 1268 0
DWIDTH 56 0
BBX 54 40 1 0
BITMAP
00000078000000
000000FC000000
000001DC000000
000001CE000000
00000387000000
00000787000000
00000703800000
00000000000000
FE00FE000000FC
FE007E000001F8
7F007F000001F8
3F003F000003F0
3F803F800007F0
1F801F800007E0
1FC01FC0000FE0
0FC00FC0000FC0
0FE00FE0001FC0
07E007E0001F80
07F007F0003F00
03F003F0003F00
03F803F8007E00
01F801F8007E00
00FC01FC00FC00
00FE00FC00FC00
007E00FE01F800
007F01FE03F800
003F03FF03F000
003F83FF07E000
001F87FF87E000
001FC7FF8FC000
000FCFCFCFC000
000FEFCFDF8000
0007FF87FF8000
0003FF87FF0000
0003FF03FF0000
0001FE03FE0000
0001FE01FE0000
0000FC01FC0000
0000FC00F80000
00007800700000
ENDCHAR
STARTCHAR wcircumflex
ENCODING 373
SWIDTH 1268 0
DWIDTH 56 0
BBX 54 40 1 0
BITMAP
00000078000000
000000FC000000
000001DC000000
000001CE000000
00000387000000
00000787000000
00000703800000
00000000000000
FE00FE000000FC
FE007E000001F8
7F007F000001F8
3F003F000003F0
3F803F800007F0
1F801F800007E0
1FC01FC0000FE0
0FC00FC0000FC0
0FE00FE0001FC0
07E007E0001F80
07F007F0003F00
03F003F0003F00
03F803F8007E00
01F801F8007E00
00FC01FC00FC00
00FE00FC00FC00
007E00FE01F800
007F01FE03F800
003F03FF03F000
003F83FF07E000
001F87FF87E000
001FC7FF8FC000
000FCFCFCFC000
000FEFCFDF8000
0007FF87FF8000
0003FF87FF0000
0003FF03FF0000
0001FE03FE0000
0001FE01FE0000
0000FC01FC0000
0000FC00F80000
00007800700000
ENDCHAR
STARTCHAR Ycircumflex
ENCODING 374
SWIDTH 926 0
DWIDTH 41 0
BBX 39 40 1 0
BITMAP
00007C0000
00007C0000
0000EE0000
0001C70000
0001C70000
0003838000
000383C000
0000000000
FF000000FE
7F000001FC
3F800003F8
1FC00007F0
1FE0000FE0
0FF0001FC0
07F8001FC0
03F8003F80
01FC007F00
00FE00FE00
007F01FC00
007F83F800
003FC7F000
001FE7F000
000FEFE000
0007FFC000
0003FF8000
0001FF0000
0001FE0000
0000FC0000
00007C0000
00007C0000
00007C0000
00007C0000
00007C0000
00007C0000
00007C0000
00007C0000
00007C0000
00007C0000
00007C0000
00007C0000
ENDCHAR
STARTCHAR ycircumflex
ENCODING 375
SWIDTH 926 0
DWIDTH 41 0
BBX 39 40 1 0
BITMAP
00007C0000
00007C0000
0000EE0000
0001C70000
0001C70000
0003838000
000383C000
0000000000
FF000000FE
7F000001FC
3F800003F8
1FC00007F0
1FE0000FE0
0FF0001FC0
07F8001FC0
03F8003F80
01FC007F00
00FE00FE00
007F01FC00
007F83F800
003FC7F000
001FE7F000
000FEFE000
0007FFC000
0003FF8000
0001FF0000
0001FE0000
0000FC0000
00007C0000
00007C0000
00007C0000
00007C0000
00007C0000
00007C0000
00007C0000
00007C0000
00007C0000
00007C0000
00007C0000
00007C0000
ENDCHAR
STARTCHAR Ydieresis
ENCODING 376
SWIDTH 926 0
DWIDTH 41 0
BBX 39 39 1 0
BITMAP
0003838000
0007C7C000
0007C7C000
0003838000
0000000000
0000000000
0000000000
FF000000FE
7F000001FC
3F800003F8
1FC00007F0
1FE0000FE0
0FF0001FC0
07F8001FC0
03F8003F80
01FC007F00
00FE00FE00
007F01FC00
007F83F800
003FC7F000
001FE7F000
000FEFE000
0007FFC000
0003FF8000
0001FF0000
0001FE0000
0000FC0000
00007C0000
00007C0000
00007C0000
00007C0000
00007C0000
00007C0000
00007C0000
00007C0000
00007C0000
00007C0000
00007C0000
00007C0000
ENDCHAR
STARTCHAR Zacute
ENCODING 377
SWIDTH 802 0
DWIDTH 35 0
BBX 31 40 2 0
BITMAP
00000600
00003E00
0001FE00
001FFE00
001FC000
001C0000
00000000
00000000
FFFFFFFC
FFFFFFFE
FFFFFFFE
FFFFFFFE
FFFFFFFE
FFFFFFFC
000007F8
00000FF0
00001FE0
00003FC0
00007F80
0000FF00
0001FE00
0003FC00
0007F800
000FF000
001FE000
003FC000
007F8000
00FF0000
01FE0000
03FC0000
07F80000
0FF00000
1FE00000
3FC00000
7FFFFFFE
FFFFFFFE
FFFFFFFE
FFFFFFFE
FFFFFFFE
7FFFFFFE
ENDCHAR
STARTCHAR zacute
ENCODING 378
SWIDTH 802 0
DWIDTH 35 0
BBX 31 40 2 0
BITMAP
00000600
00003E00
0001FE00
001FFE00
001FC000
001C0000
00000000
00000000
FFFFFFFC
FFFFFFFE
FFFFFFFE
FFFFFFFE
FFFFFFFE
FFFFFFFC
000007F8
00000FF0
00001FE0
00003FC0
00007F80
0000FF00
0001FE00
0003FC00
0007F800
000FF000
001FE000
003FC000
007F8000
00FF0000
01FE0000
03FC0000
07F80000
0FF00000
1FE00000
3FC00000
7FFFFFFE
FFFFFFFE
FFFFFFFE
FFFFFFFE
FFFFFFFE
7FFFFFFE
ENDCHAR
STARTCHAR Zdotaccent
ENCODING 379
SWIDTH 802 0
DWIDTH 35 0
BBX 31 39 2 0
BITMAP
00038000
0007C000
0007C000
00038000
00000000
00000000
00000000
FFFFFFFC
FFFFFFFE
FFFFFFFE
FFFFFFFE
FFFFFFFE
FFFFFFFC
000007F8
00000FF0
00001FE0
00003FC0
00007F80
0000FF00
0001FE00
0003FC00
0007F800
000FF000
001FE000
003FC000
007F8000
00FF0000
01FE0000
03FC0000
07F80000
0FF00000
1FE00000
3FC00000
7FFFFFFE
FFFFFFFE
FFFFFFFE
FFFFFFFE
FFFFFFFE
7FFFFFFE
ENDCHAR
STARTCHAR zdotaccent
ENCODING 380
SWIDTH 802 0
DWIDTH 35 0
BBX 31 39 2 0
BITMAP
00038000
0007C000
0007C000
00038000
00000000
00000000
00000000
FFFFFFFC
FFFFFFFE
FFFFFFFE
FFFFFFFE
FFFFFFFE
FFFFFFFC
000007F8
00000FF0
00001FE0
00003FC0
00007F80
0000FF00
0001FE00
0003FC00
0007F800
000FF000
001FE000
003FC000
007F8000
00FF0000
01FE0000
03FC0000
07F80000
0FF00000
1FE00000
3FC00000
7FFFFFFE
FFFFFFFE
FFFFFFFE
FFFFFFFE
FFFFFFFE
7FFFFFFE
ENDCHAR
STARTCHAR Zcaron
ENCODING 381
SWIDTH 802 0
DWIDTH 35 0
BBX 31 40 2 0
BITMAP
00783800
00387000
001CF000
001EE000
000FC000
00078000
00000000
00000000
FFFFFFFC
FFFFFFFE
FFFFFFFE
FFFFFFFE
FFFFFFFE
FFFFFFFC
000007F8
00000FF0
00001FE0
00003FC0
00007F80
0000FF00
0001FE00
0003FC00
0007F800
000FF000
001FE000
003FC000
007F8000
00FF0000
01FE0000
03FC0000
07F80000
0FF00000
1FE00000
3FC00000
7FFFFFFE
FFFFFFFE
FFFFFFFE
FFFFFFFE
FFFFFFFE
7FFFFFFE
ENDCHAR
STARTCHAR zcaron
ENCODING 382
SWIDTH 802 0
DWIDTH 35 0
BBX 31 40 2 0
BITMAP
00783800
00387000
001CF000
001EE000
000FC000
00078000
00000000
00000000
FFFFFFFC
FFFFFFFE
FFFFFFFE
FFFFFFFE
FFFFFFFE
FFFFFFFC
000007F8
00000FF0
00001FE0
00003FC0
00007F80
0000FF00
0001FE00
0003FC00
0007F800
000FF000
001FE000
003FC000
007F8000
00FF0000
01FE0000
03FC0000
07F80000
0FF00000
1FE00000
3FC00000
7FFFFFFE
FFFFFFFE
FFFFFFFE
FFFFFFFE
FFFFFFFE
7FFFFFFE
ENDCHAR
STARTCHAR Scommaaccent
ENCODING 536
SWIDTH 880 0
DWIDTH 39 0
BBX 35 41 2 -9
BITMAP
03FFFFFF80
0FFFFFFF80
1FFFFFFF80
3FFFFFFF80
7FFFFFFF80
7FFFFFFF80
7E00000000
FC00000000
FC00000000
FC00000000
FC00000000
7E00000000
7F00000000
7FFFFFF800
3FFFFFFE00
1FFFFFFF00
0FFFFFFF80
03FFFFFFC0
0000001FC0
00000007C0
00000007E0
00000007E0
00000007E0
00000007E0
00000007E0
0000000FC0
7FFFFFFFC0
7FFFFFFFC0
7FFFFFFF80
7FFFFFFF00
7FFFFFFE00
7FFFFFF000
0000000000
0000000000
0003F00000
0001F00000
0001E00000
0000E00000
0000C00000
0000400000
0000400000
ENDCHAR
STARTCHAR scommaaccent
ENCODING 537
SWIDTH 880 0
DWIDTH 39 0
BBX 35 41 2 -9
BITMAP
03FFFFFF80
0FFFFFFF80
1FFFFFFF80
3FFFFFFF80
7FFFFFFF80
7FFFFFFF80
7E00000000
FC00000000
FC00000000
FC00000000
FC00000000
7E00000000
7F00000000
7FFFFFF800
3FFFFFFE00
1FFFFFFF00
0FFFFFFF80
03FFFFFFC0
0000001FC0
00000007C0
00000007E0
00000007E0
00000007E0
00000007E0
00000007E0
0000000FC0
7FFFFFFFC0
7FFFFFFFC0
7FFFFFFF80
7FFFFFFF00
7FFFFFFE00
7FFFFFF000
0000000000
0000000000
0003F00000
0001F00000
0001E00000
0000E00000
0000C00000
0000400000
0000400000
ENDCHAR
STARTCHAR uni021A
ENCODING 538
SWIDTH 720 0
DWIDTH 32 0
BBX 30 41 1 -9
BITMAP
FFFFFFFC
FFFFFFFC
FFFFFFFC
FFFFFFFC
FFFFFFFC
FFFFFFFC
000FC000
000FC000
000FC000
000FC000
000FC000
000FC000
000FC000
000FC000
000FC000
000FC000
000FC000
000FC000
000FC000
000FC000
000FC000
000FC000
000FC000
000FC000
000FC000
000FC000
000FC000
000FC000
000FC000
000FC000
000FC000
000FC000
00000000
00000000
000FC000
00078000
00078000
00070000
00030000
00020000
00020000
ENDCHAR
STARTCHAR uni021B
ENCODING 539
SWIDTH 720 0
DWIDTH 32 0
BBX 30 41 1 -9
BITMAP
FFFFFFFC
FFFFFFFC
FFFFFFFC
FFFFFFFC
FFFFFFFC
FFFFFFFC
000FC000
000FC000
000FC000
000FC000
000FC000
000FC000
000FC000
000FC000
000FC000
000FC000
000FC000
000FC000
000FC000
000FC000
000FC000
000FC000
000FC000
000FC000
000FC000
000FC000
000FC000
000FC000
000FC000
000FC000
000FC000
000FC000
00000000
00000000
000FC000
00078000
00078000
00070000
00030000
00020000
00020000
ENDCHAR
STARTCHAR circumflex
ENCODING 710
SWIDTH 379 0
DWIDTH 17 0
BBX 12 7 2 33
BITMAP
0F80
1F80
1DC0
39C0
38E0
7070
E070
ENDCHAR
STARTCHAR caron
ENCODING 711
SWIDTH 379 0
DWIDTH 17 0
BBX 12 6 2 34
BITMAP
F070
70E0
38E0
1DC0
1F80
0F80
ENDCHAR
STARTCHAR breve
ENCODING 728
SWIDTH 382 0
DWIDTH 17 0
BBX 12 6 2 34
BITMAP
E070
7070
7070
78F0
3FE0
1FC0
ENDCHAR
STARTCHAR dotaccent
ENCODING 729
SWIDTH 208 0
DWIDTH 9 0
BBX 5 4 2 35
BITMAP
70
F8
F8
70
ENDCHAR
STARTCHAR ring
ENCODING 730
SWIDTH 362 0
DWIDTH 16 0
BBX 12 9 2 34
BITMAP
1F80
7FE0
6060
C030
C030
C020
6060
7FE0
1F80
ENDCHAR
STARTCHAR ogonek
ENCODING 731
SWIDTH 234 0
DWIDTH 10 0
BBX 8 9 1 -9
BITMAP
07
1C
30
60
E0
FF
FF
FF
3F
ENDCHAR
STARTCHAR tilde
ENCODING 732
SWIDTH 362 0
DWIDTH 16 0
BBX 12 4 2 35
BITMAP
7810
FE30
C7F0
81E0
ENDCHAR
STARTCHAR hungarumlaut
ENCODING 733
SWIDTH 399 0
DWIDTH 18 0
BBX 13 6 2 34
BITMAP
3C78
3C78
3870
70E0
70E0
E1C0
ENDCHAR
STARTCHAR commaaccent
ENCODING 806
SWIDTH 219 0
DWIDTH 10 0
BBX 6 7 2 -9
BITMAP
FC
78
78
70
30
20
20
ENDCHAR
STARTCHAR Wgrave
ENCODING 7808
SWIDTH 1268 0
DWIDTH 56 0
BBX 54 40 1 0
BITMAP
00000800000000
00000F80000000
00000FF0000000
00000FFE000000
000000FE000000
00000006000000
00000000000000
00000000000000
FE00FE000000FC
FE007E000001F8
7F007F000001F8
3F003F000003F0
3F803F800007F0
1F801F800007E0
1FC01FC0000FE0
0FC00FC0000FC0
0FE00FE0001FC0
07E007E0001F80
07F007F0003F00
03F003F0003F00
03F803F8007E00
01F801F8007E00
00FC01FC00FC00
00FE00FC00FC00
007E00FE01F800
007F01FE03F800
003F03FF03F000
003F83FF07E000
001F87FF87E000
001FC7FF8FC000
000FCFCFCFC000
000FEFCFDF8000
0007FF87FF8000
0003FF87FF0000
0003FF03FF0000
0001FE03FE0000
0001FE01FE0000
0000FC01FC0000
0000FC00F80000
00007800700000
ENDCHAR
STARTCHAR wgrave
ENCODING 7809
SWIDTH 1268 0
DWIDTH 56 0
BBX 54 40 1 0
BITMAP
00000800000000
00000F80000000
00000FF0000000
00000FFE000000
000000FE000000
00000006000000
00000000000000
00000000000000
FE00FE000000FC
FE007E000001F8
7F007F000001F8
3F003F000003F0
3F803F800007F0
1F801F800007E0
1FC01FC0000FE0
0FC00FC0000FC0
0FE00FE0001FC0
07E007E0001F80
07F007F0003F00
03F003F0003F00
03F803F8007E00
01F801F8007E00
00FC01FC00FC00
00FE00FC00FC00
007E00FE01F800
007F01FE03F800
003F03FF03F000
003F83FF07E000
001F87FF87E000
001FC7FF8FC000
000FCFCFCFC000
000FEFCFDF8000
0007FF87FF8000
0003FF87FF0000
0003FF03FF0000
0001FE03FE0000
0001FE01FE0000
0000FC01FC0000
0000FC00F80000
00007800700000
ENDCHAR
STARTCHAR Wacute
ENCODING 7810
SWIDTH 1268 0
DWIDTH 56 0
BBX 54 40 1 0
BITMAP
00000000400000
00000007C00000
0000003FC00000
000001FFC00000
000001FC000000
00000180000000
00000000000000
00000000000000
FE00FE000000FC
FE007E000001F8
7F007F000001F8
3F003F000003F0
3F803F800007F0
1F801F800007E0
1FC01FC0000FE0
0FC00FC0000FC0
0FE00FE0001FC0
07E007E0001F80
07F007F0003F00
03F003F0003F00
03F803F8007E00
01F801F8007E00
00FC01FC00FC00
00FE00FC00FC00
007E00FE01F800
007F01FE03F800
003F03FF03F000
003F83FF07E000
001F87FF87E000
001FC7FF8FC000
000FCFCFCFC000
000FEFCFDF8000
0007FF87FF8000
0003FF87FF0000
0003FF03FF0000
0001FE03FE0000
0001FE01FE0000
0000FC01FC0000
0000FC00F80000
00007800700000
ENDCHAR
STARTCHAR wacute
ENCODING 7811
SWIDTH 1268 0
DWIDTH 56 0
BBX 54 40 1 0
BITMAP
00000000400000
00000007C00000
0000003FC00000
000001FFC00000
000001FC000000
00000180000000
00000000000000
00000000000000
FE00FE000000FC
FE007E000001F8
7F007F000001F8
3F003F000003F0
3F803F800007F0
1F801F800007E0
1FC01FC0000FE0
0FC00FC0000FC0
0FE00FE0001FC0
07E007E0001F80
07F007F0003F00
03F003F0003F00
03F803F8007E00
01F801F8007E00
00FC01FC00FC00
00FE00FC00FC00
007E00FE01F800
007F01FE03F800
003F03FF03F000
003F83FF07E000
001F87FF87E000
001FC7FF8FC000
000FCFCFCFC000
000FEFCFDF8000
0007FF87FF8000
0003FF87FF0000
0003FF03FF0000
0001FE03FE0000
0001FE01FE0000
0000FC01FC0000
0000FC00F80000
00007800700000
ENDCHAR
STARTCHAR Wdieresis
ENCODING 7812
SWIDTH 1268 0
DWIDTH 56 0
BBX 54 39 1 0
BITMAP
00000707800000
00000787800000
00000787800000
00000707800000
00000000000000
00000000000000
00000000000000
FE00FE000000FC
FE007E000001F8
7F007F000001F8
3F003F000003F0
3F803F800007F0
1F801F800007E0
1FC01FC0000FE0
0FC00FC0000FC0
0FE00FE0001FC0
07E007E0001F80
07F007F0003F00
03F003F0003F00
03F803F8007E00
01F801F8007E00
00FC01FC00FC00
00FE00FC00FC00
007E00FE01F800
007F01FE03F800
003F03FF03F000
003F83FF07E000
001F87FF87E000
001FC7FF8FC000
000FCFCFCFC000
000FEFCFDF8000
0007FF87FF8000
0003FF87FF0000
0003FF03FF0000
0001FE03FE0000
0001FE01FE0000
0000FC01FC0000
0000FC00F80000
00007800700000
ENDCHAR
STARTCHAR wdieresis
ENCODING 7813
SWIDTH 1268 0
DWIDTH 56 0
BBX 54 39 1 0
BITMAP
00000707800000
00000787800000
00000787800000
00000707800000
00000000000000
00000000000000
00000000000000
FE00FE000000FC
FE007E000001F8
7F007F000001F8
3F003F000003F0
3F803F800007F0
1F801F800007E0
1FC01FC0000FE0
0FC00FC0000FC0
0FE00FE0001FC0
07E007E0001F80
07F007F0003F00
03F003F0003F00
03F803F8007E00
01F801F8007E00
00FC01FC00FC00
00FE00FC00FC00
007E00FE01F800
007F01FE03F800
003F03FF03F000
003F83FF07E000
001F87FF87E000
001FC7FF8FC000
000FCFCFCFC000
000FEFCFDF8000
0007FF87FF8000
0003FF87FF0000
0003FF03FF0000
0001FE03FE0000
0001FE01FE0000
0000FC01FC0000
0000FC00F80000
00007800700000
ENDCHAR
STARTCHAR Ygrave
ENCODING 7922
SWIDTH 926 0
DWIDTH 41 0
BBX 39 40 1 0
BITMAP
0004000000
0007800000
0007F80000
0007FF0000
00007F0000
0000070000
0000000000
0000000000
FF000000FE
7F000001FC
3F800003F8
1FC00007F0
1FE0000FE0
0FF0001FC0
07F8001FC0
03F8003F80
01FC007F00
00FE00FE00
007F01FC00
007F83F800
003FC7F000
001FE7F000
000FEFE000
0007FFC000
0003FF8000
0001FF0000
0001FE0000
0000FC0000
00007C0000
00007C0000
00007C0000
00007C0000
00007C0000
00007C0000
00007C0000
00007C0000
00007C0000
00007C0000
00007C0000
00007C0000
ENDCHAR
STARTCHAR ygrave
ENCODING 7923
SWIDTH 926 0
DWIDTH 41 0
BBX 39 40 1 0
BITMAP
0004000000
0007800000
0007F80000
0007FF0000
00007F0000
0000070000
0000000000
0000000000
FF000000FE
7F000001FC
3F800003F8
1FC00007F0
1FE0000FE0
0FF0001FC0
07F8001FC0
03F8003F80
01FC007F00
00FE00FE00
007F01FC00
007F83F800
003FC7F000
001FE7F000
000FEFE000
0007FFC000
0003FF8000
0001FF0000
0001FE0000
0000FC0000
00007C0000
00007C0000
00007C0000
00007C0000
00007C0000
00007C0000
00007C0000
00007C0000
00007C0000
00007C0000
00007C0000
00007C0000
ENDCHAR
STARTCHAR endash
ENCODING 8211
SWIDTH 590 0
DWIDTH 26 0
BBX 24 4 1 14
BITMAP
FFFFFF
FFFFFF
FFFFFF
FFFFFF
ENDCHAR
STARTCHAR emdash
ENCODING 8212
SWIDTH 866 0
DWIDTH 38 0
BBX 36 4 1 14
BITMAP
FFFFFFFFF0
FFFFFFFFF0
FFFFFFFFF0
FFFFFFFFF0
ENDCHAR
STARTCHAR quoteleft
ENCODING 8216
SWIDTH 259 0
DWIDTH 11 0
BBX 6 11 3 21
BITMAP
FC
FC
FC
FC
7C
7C
7C
7C
7C
3C
3C
ENDCHAR
STARTCHAR quoteright
ENCODING 8217
SWIDTH 259 0
DWIDTH 11 0
BBX 6 11 3 21
BITMAP
FC
F8
F8
F8
F8
F8
F0
F0
F0
F0
F0
ENDCHAR
STARTCHAR quotesinglbase
ENCODING 8218
SWIDTH 259 0
DWIDTH 11 0
BBX 6 11 3 -5
BITMAP
FC
F8
F8
F8
F8
F8
F0
F0
F0
F0
F0
ENDCHAR
STARTCHAR quotedblleft
ENCODING 8220
SWIDTH 462 0
DWIDTH 20 0
BBX 15 11 3 21
BITMAP
FC7E
FC7E
FC3E
FC3E
7C3E
7C3E
7C3E
7C1E
7C1E
3C1E
3C1E
ENDCHAR
STARTCHAR quotedblright
ENCODING 8221
SWIDTH 462 0
DWIDTH 20 0
BBX 15 11 3 21
BITMAP
FC7E
F87E
F87E
F87C
F87C
F87C
F07C
F07C
F078
F078
F078
ENDCHAR
STARTCHAR quotedblbase
ENCODING 8222
SWIDTH 462 0
DWIDTH 20 0
BBX 15 11 3 -5
BITMAP
FC7E
F87E
F87E
F87C
F87C
F87C
F07C
F07C
F078
F078
F078
ENDCHAR
STARTCHAR dagger
ENCODING 8224
SWIDTH 466 0
DWIDTH 21 0
BBX 15 32 3 0
BITMAP
0380
0380
0380
0380
0380
0380
0380
FFFE
FFFE
FFFE
0380
0380
0380
0380
0380
0380
0380
0380
0380
0380
0380
0380
0380
0380
0380
0380
0380
0380
0380
0380
0380
0380
ENDCHAR
STARTCHAR daggerdbl
ENCODING 8225
SWIDTH 466 0
DWIDTH 21 0
BBX 15 32 3 0
BITMAP
0380
0380
0380
0380
0380
0380
0380
FFFE
FFFE
FFFE
0380
0380
0380
0380
0380
0380
0380
0380
0380
0380
0380
0380
FFFE
FFFE
FFFE
0380
0380
0380
0380
0380
0380
0380
ENDCHAR
STARTCHAR bullet
ENCODING 8226
SWIDTH 413 0
DWIDTH 18 0
BBX 12 13 3 10
BITMAP
0F00
3FC0
7FE0
FFF0
FFF0
FFF0
FFF0
FFF0
FFF0
FFF0
7FE0
3FC0
0F00
ENDCHAR
STARTCHAR ellipsis
ENCODING 8230
SWIDTH 1310 0
DWIDTH 58 0
BBX 52 6 3 0
BITMAP
30000040000080
F80001F00003E0
FC0001F80003F0
FC0001F80003F0
F80001F00003F0
780000F00001E0
ENDCHAR
STARTCHAR perthousand
ENCODING 8240
SWIDTH 1314 0
DWIDTH 58 0
BBX 54 37 2 -3
BITMAP
00000007C00000
00000007000000
07E0000F000000
1FF8001E000000
3FFC003C000000
781E0038000000
700F0078000000
E00700F0000000
E00701E0000000
E00303C0000000
E0030380000000
E0070780000000
E0070F00000000
700F1E00000000
781E1C00000000
3FFC3C00000000
1FF87800000000
07E0F000000000
0001E000000000
0001C0FC001F80
0003C3FF007FE0
000787FF81FFF0
000F0F03C1E078
001E1E01C38038
001E1C00E3801C
003C1800E7001C
00783800E7001C
00F01800E7001C
00E01800E3001C
01E01C00E3801C
03C01E01C38038
07800F03C1E078
0F0007FF80FFF0
0F0003FF007FC0
1E0000FC001F00
3C000000000000
78000000000000
ENDCHAR
STARTCHAR guilsinglleft
ENCODING 8249
SWIDTH 367 0
DWIDTH 16 0
BBX 12 17 2 8
BITMAP
0010
0010
0070
01F0
03C0
0F00
3E00
7800
E000
F000
3C00
1F00
0780
01E0
00F0
0030
0010
ENDCHAR
STARTCHAR guilsinglright
ENCODING 8250
SWIDTH 368 0
DWIDTH 16 0
BBX 12 17 2 8
BITMAP
8000
C000
E000
F800
3E00
0F00
03C0
01F0
0070
00F0
03C0
0780
1E00
7800
F000
C000
8000
ENDCHAR
STARTCHAR fraction
ENCODING 8260
SWIDTH 185 0
DWIDTH 8 0
BBX 32 37 -12 -3
BITMAP
0000000F
0000001E
0000001C
0000003C
00000078
000000F0
000000E0
000001E0
000003C0
00000780
00000F00
00000E00
00001E00
00003C00
00007800
00007000
0000F000
0001E000
0003C000
00078000
00070000
000F0000
001E0000
003C0000
00380000
00780000
00F00000
01E00000
03C00000
03800000
07800000
0F000000
1E000000
3C000000
3C000000
78000000
F0000000
ENDCHAR
STARTCHAR zerosuperior
ENCODING 8304
SWIDTH 449 0
DWIDTH 20 0
BBX 16 16 2 16
BITMAP
07E0
1FF8
3FFC
781E
F00E
E007
E007
C007
C007
E007
E007
F00E
781E
3FFC
1FF8
07E0
ENDCHAR
STARTCHAR foursuperior
ENCODING 8308
SWIDTH 452 0
DWIDTH 20 0
BBX 17 16 2 17
BITMAP
C00C00
C00C00
C00C00
C00C00
C00C00
C00C00
C00C00
E00C00
E00C00
FFFF80
7FFF80
1FFF80
000C00
000C00
000C00
000C00
ENDCHAR
STARTCHAR fivesuperior
ENCODING 8309
SWIDTH 472 0
DWIDTH 21 0
BBX 17 16 2 17
BITMAP
FFFF00
FFFF00
FFFF00
E00000
E00000
E00000
E00000
FFFE00
FFFF00
000380
000380
000380
000380
FFFF80
FFFF00
FFFE00
ENDCHAR
STARTCHAR sixsuperior
ENCODING 8310
SWIDTH 466 0
DWIDTH 21 0
BBX 17 16 2 17
BITMAP
0FFF00
3FFF00
7FFF00
F00000
E00000
E00000
C00000
FFFE00
FFFF00
C00700
E00380
E00380
F00780
7FFF00
3FFF00
0FFC00
ENDCHAR
STARTCHAR sevensuperior
ENCODING 8311
SWIDTH 408 0
DWIDTH 18 0
BBX 15 16 2 17
BITMAP
FFFC
FFFE
FFFC
003C
0078
00F0
00E0
01C0
03C0
0780
0F00
1E00
1C00
3800
7800
F000
ENDCHAR
STARTCHAR eightsuperior
ENCODING 8312
SWIDTH 479 0
DWIDTH 21 0
BBX 17 16 2 17
BITMAP
3FFE00
7FFF00
FFFF80
E00380
E00380
E00380
700700
3FFE00
7FFF00
E00380
E00380
E00380
E00380
FFFF80
7FFF00
3FFE00
ENDCHAR
STARTCHAR ninesuperior
ENCODING 8313
SWIDTH 460 0
DWIDTH 20 0
BBX 17 16 2 17
BITMAP
3FF000
7FFC00
FFFE00
E00F00
C00700
C00700
E00380
E00380
FFFF80
3FFF80
000300
000700
000F00
7FFE00
7FFC00
7FF000
ENDCHAR
STARTCHAR zeroinferior
ENCODING 8320
SWIDTH 449 0
DWIDTH 20 0
BBX 16 16 2 -1
BITMAP
07E0
1FF8
3FFC
781E
F00E
E007
E007
C007
C007
E007
E007
F00E
781E
3FFC
1FF8
07E0
ENDCHAR
STARTCHAR oneinferior
ENCODING 8321
SWIDTH 222 0
DWIDTH 10 0
BBX 7 16 1 0
BITMAP
F0
FC
FC
1E
0E
0E
0E
0E
0E
0E
0E
0E
0E
0E
0E
0E
ENDCHAR
STARTCHAR twoinferior
ENCODING 8322
SWIDTH 442 0
DWIDTH 19 0
BBX 16 16 2 0
BITMAP
FFF8
FFFE
FFFE
000F
0007
0007
000E
3FFE
7FF8
E000
E000
E000
E000
FFFE
FFFE
FFFE
ENDCHAR
STARTCHAR threeinferior
ENCODING 8323
SWIDTH 443 0
DWIDTH 19 0
BBX 16 16 2 0
BITMAP
FFF8
FFFE
FFFE
000E
0006
0006
000E
1FF8
1FFE
000E
0007
0007
000F
FFFE
FFFE
FFF8
ENDCHAR
STARTCHAR fourinferior
ENCODING 8324
SWIDTH 452 0
DWIDTH 20 0
BBX 17 16 2 0
BITMAP
C00C00
C00C00
C00C00
C00C00
C00C00
C00C00
C00C00
E00C00
E00C00
FFFF80
7FFF80
1FFF80
000C00
000C00
000C00
000C00
ENDCHAR
STARTCHAR fiveinferior
ENCODING 8325
SWIDTH 472 0
DWIDTH 21 0
BBX 17 16 2 0
BITMAP
FFFF00
FFFF00
FFFF00
E00000
E00000
E00000
E00000
FFFE00
FFFF00
000380
000380
000380
000380
FFFF80
FFFF00
FFFE00
ENDCHAR
STARTCHAR sixinferior
ENCODING 8326
SWIDTH 466 0
DWIDTH 21 0
BBX 17 16 2 0
BITMAP
0FFF00
3FFF00
7FFF00
F00000
E00000
E00000
C00000
FFFE00
FFFF00
C00700
E00380
E00380
F00780
7FFF00
3FFF00
0FFC00
ENDCHAR
STARTCHAR seveninferior
ENCODING 8327
SWIDTH 408 0
DWIDTH 18 0
BBX 15 16 2 0
BITMAP
FFFC
FFFE
FFFC
003C
0078
00F0
00E0
01C0
03C0
0780
0F00
1E00
1C00
3800
7800
F000
ENDCHAR
STARTCHAR eightinferior
ENCODING 8328
SWIDTH 479 0
DWIDTH 21 0
BBX 17 16 2 0
BITMAP
3FFE00
7FFF00
FFFF80
E00380
E00380
E00380
700700
3FFE00
7FFF00
E00380
E00380
E00380
E00380
FFFF80
7FFF00
3FFE00
ENDCHAR
STARTCHAR nineinferior
ENCODING 8329
SWIDTH 460 0
DWIDTH 20 0
BBX 17 16 2 0
BITMAP
3FF000
7FFC00
FFFE00
E00F00
C00700
C00700
E00380
E00380
FFFF80
3FFF80
000300
000700
000F00
7FFE00
7FFC00
7FF000
ENDCHAR
STARTCHAR Euro
ENCODING 8364
SWIDTH 884 0
DWIDTH 39 0
BBX 36 32 1 0
BITMAP
0001FFFFF0
000FFFFFF0
003FFFFFE0
007FFFFFC0
00FFFFFFC0
01FFFFFF80
03FE000000
03F8000000
07F0000000
07E0000000
0FE0000000
0FC0000000
7FFFFFF800
FFFFFFF000
0F80000000
0F80000000
0F80000000
0F80000000
7FFFFF8000
FFFFFF0000
0FC0000000
0FE0000000
07E0000000
07F0000000
03F8000000
03FE000000
01FFFFFFC0
00FFFFFFC0
007FFFFFC0
003FFFFFC0
000FFFFFC0
0001FFFFC0
ENDCHAR
STARTCHAR uni2117
ENCODING 8471
SWIDTH 829 0
DWIDTH 36 0
BBX 33 32 2 0
BITMAP
000FF00000
00781E0000
01C0018000
030000E000
0600003000
0C00001800
1800000800
3000000400
2000000600
603FFC0200
403FFF0300
C020030100
C020018100
C020018100
8020018180
8020030180
8027FF0180
C027FC0180
C020000100
C020000100
C020000300
6020000300
6000000600
3000000600
3000000C00
1800001800
0C00003800
0700007000
038001C000
01F0078000
007FFE0000
000FF00000
ENDCHAR
STARTCHAR trademark
ENCODING 8482
SWIDTH 536 0
DWIDTH 24 0
BBX 19 11 2 21
BITMAP
FF6060
FF70E0
1870E0
1878E0
1879E0
1879E0
186D60
186F60
186760
186660
186660
ENDCHAR
STARTCHAR onethird
ENCODING 8531
SWIDTH 951 0
DWIDTH 42 0
BBX 38 37 2 -3
BITMAP
0000000F80
1E00000E00
1F80001E00
1FC0003C00
01C0007800
01C000F000
01C000E000
01C001E000
01C003C000
01C0078000
01C0070000
01C00F0000
01C01E0000
01C03C0000
01C0780000
01C0700000
01C0F00000
0001E00000
0003C3FFE0
000383FFF8
000783FFF8
000F00003C
001E00001C
003C00001C
0038000038
0078003FF0
00F0003FF8
01E000003C
03C000001C
03C000001C
078000003C
0F0003FFF8
1E0003FFF8
1C0003FFE0
3C00000000
7800000000
F000000000
ENDCHAR
STARTCHAR twothirds
ENCODING 8532
SWIDTH 979 0
DWIDTH 43 0
BBX 39 37 2 -3
BITMAP
00000001E0
FFF80003C0
FFFC000780
FFFE000700
000E000F00
0007001E00
0006003C00
000E007800
3FFC007000
7FF800F000
E00001E000
E00003C000
E000038000
E000078000
FFFE0F0000
FFFE1E0000
FFFE3C0000
0000380000
000079FFF8
0000F1FFFC
0001E1FFFE
0003C0000E
0003C0000E
000780000E
000F00001C
001E001FF8
001C001FFC
003C00000E
007800000E
00F000000E
01E000000E
01E001FFFE
03C001FFFC
078001FFF8
0F00000000
0E00000000
3E00000000
ENDCHAR
STARTCHAR oneeighth
ENCODING 8539
SWIDTH 985 0
DWIDTH 43 0
BBX 39 37 2 -3
BITMAP
0000000F80
1E00000E00
1F80001E00
1FC0003C00
01C0007800
01C000F000
01C000E000
01C001E000
01C003C000
01C0078000
01C0070000
01C00F0000
01C01E0000
01C03C0000
01C0780000
01C0700000
01C0F00000
0001E00000
0003C07FF8
000381FFFC
000781FFFE
000F03C00E
001E03800E
003C03800E
003801C01E
007800FFF8
00F001FFFC
01E003800E
03C0038006
03C0038006
078003800E
0F0003FFFE
1E0001FFFC
1C0000FFF8
3C00000000
7800000000
F000000000
ENDCHAR
STARTCHAR threeeighths
ENCODING 8540
SWIDTH 972 0
DWIDTH 43 0
BBX 39 37 2 -3
BITMAP
00000003E0
FFF8000380
FFFE000780
FFFE000F00
000F001E00
0007001C00
0006003C00
000E007800
0FFC00F000
0FFE01E000
000F01C000
000703C000
0007078000
000F0F0000
FFFE1E0000
FFFE1E0000
FFF83C0000
0000780000
0000F0FFF0
0000E1FFFC
0001E3FFFC
0003C3801E
000783800E
000F03800E
000E03801C
001E00FFF8
003C03FFFC
007803801E
007007000E
00F007000E
01E003801E
03C003FFFC
078001FFFC
070000FFF0
0F00000000
1E00000000
3C00000000
ENDCHAR
STARTCHAR fiveeighths
ENCODING 8541
SWIDTH 973 0
DWIDTH 43 0
BBX 39 37 2 -3
BITMAP
00000001E0
FFFF0003C0
FFFF000780
FFFF000700
E000000F00
E000001E00
E000003C00
E000007800
FFFE007000
FFFF00F000
000381E000
000383C000
0003838000
0003878000
FFFF0F0000
FFFF1E0000
FFFC3C0000
0000380000
000078FFF0
0000F1FFFC
0001E3FFFC
0003C3801E
0003C3800E
000783800E
000F03801C
001E00FFF8
001C03FFFC
003C03801E
007807000E
00F007000E
01E003801E
01E003FFFC
03C001FFFC
078000FFF0
0F00000000
0E00000000
3E00000000
ENDCHAR
STARTCHAR seveneighths
ENCODING 8542
SWIDTH 965 0
DWIDTH 42 0
BBX 39 37 2 -3
BITMAP
0000000F80
3FFF000E00
3FFF801E00
3FFF003C00
000F007800
001E00F000
003C00E000
003801E000
007003C000
00E0078000
01E0070000
03C00F0000
07801E0000
07003C0000
0E00780000
1E00700000
3C00F00000
0001E00000
0003C0FFF0
000383FFF8
000783FFFC
000F07801C
001E07001C
003C03001C
003803803C
007801FFF0
00F003FFFC
01E007801C
03C007000E
03C007000E
078007801C
0F0003FFFC
1E0003FFF8
1C0000FFF0
3C00000000
7800000000
F000000000
ENDCHAR
STARTCHAR minus
ENCODING 8722
SWIDTH 690 0
DWIDTH 30 0
BBX 25 4 3 14
BITMAP
FFFFFF80
FFFFFF80
FFFFFF80
FFFFFF80
ENDCHAR
STARTCHAR approxequal
ENCODING 8776
SWIDTH 691 0
DWIDTH 30 0
BBX 25 17 3 8
BITMAP
1F800080
7FF00180
FFFE0780
FFFFFF80
E07FFF80
800FFF00
8001FC00
00000000
00000000
00000000
1F800080
7FF00180
FFFE0780
FFFFFF80
E07FFF80
800FFF00
8001FC00
ENDCHAR
STARTCHAR notequal
ENCODING 8800
SWIDTH 690 0
DWIDTH 30 0
BBX 33 38 -1 -4
BITMAP
0000000780
0000000F00
0000001E00
0000003C00
0000007800
0000007000
000000F000
000001E000
000003C000
0000078000
0FFFFFF800
0FFFFFF800
0FFFFFF800
0FFFFFF800
0000380000
0000780000
0000F00000
0001E00000
0003C00000
0003800000
0007800000
000F000000
0FFFFFF800
0FFFFFF800
0FFFFFF800
0FFFFFF800
00F0000000
00E0000000
01E0000000
03C0000000
0780000000
0F00000000
0F00000000
1E00000000
3C00000000
7800000000
7000000000
F000000000
ENDCHAR
STARTCHAR lessequal
ENCODING 8804
SWIDTH 690 0
DWIDTH 30 0
BBX 25 31 3 -2
BITMAP
00000080
00000380
00001F80
00007F80
0001FF00
000FFC00
003FE000
01FF0000
07FC0000
1FE00000
7F800000
FC000000
FC000000
FF000000
3FE00000
0FF80000
01FF0000
007FC000
001FF800
0003FE00
0000FF80
00001F80
00000780
00000180
00000000
00000000
00000000
FFFFFF80
FFFFFF80
FFFFFF80
FFFFFF80
ENDCHAR
STARTCHAR greaterequal
ENCODING 8805
SWIDTH 690 0
DWIDTH 30 0
BBX 25 31 3 -2
BITMAP
80000000
E0000000
F8000000
FE000000
FFC00000
1FF00000
07FE0000
00FF8000
001FE000
0007FC00
0000FF00
00003F00
00001F80
0000FF00
0003FC00
001FF000
007FC000
03FE0000
0FF80000
7FC00000
FF000000
FC000000
E0000000
80000000
00000000
00000000
00000000
FFFFFF80
FFFFFF80
FFFFFF80
FFFFFF80
ENDCHAR
STARTCHAR .notdef
ENCODING -1
SWIDTH 430 0
DWIDTH 19 0
BBX 15 32 2 0
BITMAP
3FF8
7FFC
C00E
C006
C006
C006
C006
C006
C006
C006
C006
C006
C006
C006
C006
C006
C006
C006
C006
C006
C006
C006
C006
C006
C006
C006
C006
C006
C006
C00E
7FFC
3FF8
ENDCHAR
STARTCHAR nonmarkingreturn
ENCODING -1
SWIDTH 104 0
DWIDTH 5 0
BBX 1 1 0 0
BITMAP
00
ENDCHAR
STARTCHAR .null
ENCODING -1
SWIDTH 104 0
DWIDTH 5 0
BBX 1 1 0 0
BITMAP
00
ENDCHAR
STARTCHAR .ttfautohint
ENCODING -1
SWIDTH 104 0
DWIDTH 5 0
BBX 1 1 0 0
BITMAP
00
ENDCHAR
ENDFONT
